<?xml version="1.0" standalone="no"?><!DOCTYPE svg PUBLIC "-//W3C//DTD SVG 1.1//EN" "http://www.w3.org/Graphics/SVG/1.1/DTD/svg11.dtd"><svg t="1763743553365" class="icon" viewBox="0 0 1024 1024" version="1.1" xmlns="http://www.w3.org/2000/svg" p-id="7378" xmlns:xlink="http://www.w3.org/1999/xlink" width="200" height="200"><path d="M812.0832 174.336H640l-28.1088-55.5008A82.688 82.688 0 0 0 537.6 73.216H343.04a82.8416 82.8416 0 0 0-77.2608 51.968L245.76 174.336h-38.9632a148.7872 148.7872 0 0 0-148.48 148.48v396.544a148.7872 148.7872 0 0 0 148.48 148.48h28.9792l-35.84 45.3632a25.6 25.6 0 0 0 40.192 31.7952l60.928-76.9536h419.84l61.0304 77.1584a25.6 25.6 0 1 0 40.1408-31.7952l-35.84-45.3632h26.1632a148.7872 148.7872 0 0 0 148.48-148.48V322.9184a148.7872 148.7872 0 0 0-148.7872-148.5824z m97.28 545.1264a97.28 97.28 0 0 1-97.28 97.28H206.7968a97.28 97.28 0 0 1-97.28-97.28V322.9184a97.28 97.28 0 0 1 97.28-97.28h56.32a28.1088 28.1088 0 0 0 4.608-0.4608l1.3824-0.3072c1.024 0 2.0992-0.6144 3.1232-0.9728l1.28-0.512a27.9552 27.9552 0 0 0 3.84-2.0992l0.4096-0.3072a24.6784 24.6784 0 0 0 3.072-2.56l0.8704-0.8704a24.1664 24.1664 0 0 0 2.0992-2.56c0.3072-0.3584 0.5632-0.768 0.8192-1.1264a29.4912 29.4912 0 0 0 1.6896-3.072L286.72 209.92l26.5216-65.536A31.8464 31.8464 0 0 1 343.04 124.416h194.56a31.7952 31.7952 0 0 1 28.5184 17.5104l35.2256 69.5808c0 0.4096 0.512 0.768 0.768 1.1776s0.9728 1.5872 1.4848 2.3552 1.024 1.28 1.5872 1.8944a17.9712 17.9712 0 0 0 1.6896 1.7408c0.6144 0.5632 1.28 1.0752 1.9456 1.5872a17.3568 17.3568 0 0 0 1.9968 1.3824 22.3232 22.3232 0 0 0 2.1504 1.1776c0.768 0.3584 1.4848 0.7168 2.304 1.024l2.3552 0.7168a17.4592 17.4592 0 0 0 2.3552 0.512l2.7648 0.3072h189.44a97.28 97.28 0 0 1 97.28 97.28z" fill="#262626" p-id="7379"></path><path d="M641.4848 307.2H268.288A73.984 73.984 0 0 0 194.56 380.9792v276.9408a73.9328 73.9328 0 0 0 73.728 73.8816h373.1968a73.984 73.984 0 0 0 73.9328-73.8816V380.9792A74.0352 74.0352 0 0 0 641.4848 307.2z m22.7328 350.8224a22.6816 22.6816 0 0 1-22.7328 22.6816H268.288a22.6816 22.6816 0 0 1-22.528-22.784V380.9792A22.7328 22.7328 0 0 1 268.288 358.4h373.1968a22.7328 22.7328 0 0 1 22.7328 22.6816zM801.1264 369.152a36.4544 36.4544 0 1 0-36.4544-36.352 36.4544 36.4544 0 0 0 36.4544 36.352zM801.1264 521.8304a36.4544 36.4544 0 1 0-36.4544-36.4544 36.4544 36.4544 0 0 0 36.4544 36.4544zM821.4016 589.9776h-42.1888a25.6 25.6 0 0 0 0 51.2h42.1888a25.6 25.6 0 0 0 0-51.2zM821.4016 699.648h-42.1888a25.6 25.6 0 0 0 0 51.2h42.1888a25.6 25.6 0 0 0 0-51.2z" fill="#262626" p-id="7380"></path></svg>