<?xml version="1.0" standalone="no"?><!DOCTYPE svg PUBLIC "-//W3C//DTD SVG 1.1//EN" "http://www.w3.org/Graphics/SVG/1.1/DTD/svg11.dtd"><svg t="1763841517587" class="icon" viewBox="0 0 1024 1024" version="1.1" xmlns="http://www.w3.org/2000/svg" p-id="3474" xmlns:xlink="http://www.w3.org/1999/xlink" width="200" height="200"><path d="M512 512m-512 0a512 512 0 1 0 1024 0 512 512 0 1 0-1024 0Z" fill="#DE242E" p-id="3475"></path><path d="M226.56 715.428571a105.380571 105.380571 0 0 0 52.114286-12.105142 80.054857 80.054857 0 0 0 33.462857-35.053715 121.325714 121.325714 0 0 0 11.52-54.857143V306.706286h-69.302857v308.553143a32.914286 32.914286 0 0 1-7.314286 22.948571 26.057143 26.057143 0 0 1-20.48 8.210286 24.868571 24.868571 0 0 1-19.931429-8.210286 32.914286 32.914286 0 0 1-7.314285-22.948571V306.706286H130.011429v306.614857a123.812571 123.812571 0 0 0 11.337142 54.857143 80.676571 80.676571 0 0 0 33.28 35.053714 106.057143 106.057143 0 0 0 51.931429 12.105143z m234.24 0a105.380571 105.380571 0 0 0 52.114286-12.105142 80.054857 80.054857 0 0 0 33.462857-35.053715 121.325714 121.325714 0 0 0 11.52-54.857143V306.706286h-69.302857v308.553143a32.914286 32.914286 0 0 1-7.314286 22.948571 26.057143 26.057143 0 0 1-20.48 8.210286 25.124571 25.124571 0 0 1-19.931429-8.210286 32.914286 32.914286 0 0 1-7.314285-22.948571V306.706286h-69.302857v306.614857a121.325714 121.325714 0 0 0 11.52 54.857143 79.268571 79.268571 0 0 0 33.097142 35.053714 106.057143 106.057143 0 0 0 51.931429 12.105143z m205.714286-408.722285h-69.12V711.314286h69.12V306.706286z m89.782857 404.534857h58.514286a106.587429 106.587429 0 0 0 49.554285-10.697143A72.868571 72.868571 0 0 0 896 669.366857a104.009143 104.009143 0 0 0 10.788571-48.822857v-223.085714a104.064 104.064 0 0 0-10.788571-48.822857 73.289143 73.289143 0 0 0-31.451429-31.085715 105.837714 105.837714 0 0 0-49.554285-10.715428h-58.697143v66.212571h51.748571a26.898286 26.898286 0 0 1 21.394286 8.484572 34.194286 34.194286 0 0 1 7.497143 23.771428V612.754286a34.121143 34.121143 0 0 1-7.497143 23.771428 26.825143 26.825143 0 0 1-21.394286 8.484572h-51.748571V711.314286z m-45.897143 0h68.937143V306.706286h-68.937143V711.314286z" fill="#FFFFFF" p-id="3476"></path></svg>