<?xml version="1.0" standalone="no"?><!DOCTYPE svg PUBLIC "-//W3C//DTD SVG 1.1//EN" "http://www.w3.org/Graphics/SVG/1.1/DTD/svg11.dtd"><svg t="1763763323165" class="icon" viewBox="0 0 1024 1024" version="1.1" xmlns="http://www.w3.org/2000/svg" p-id="192187" xmlns:xlink="http://www.w3.org/1999/xlink" width="200" height="200"><path d="M865.792 36.352H58.88v955.392h806.912V36.352zM797.184 923.136H127.488V104.96h669.696V923.136z" fill="#040000" p-id="192188"></path><path d="M190.464 549.376h528.384v37.888H190.464zM190.464 644.096h528.384v37.888H190.464zM190.976 727.04h528.384v37.888H190.976zM190.976 821.76h528.384v37.888H190.976zM470.016 184.832h242.688v37.888h-242.688zM470.016 279.04h242.688v37.888h-242.688zM475.136 361.984h242.688v37.888h-242.688zM475.136 456.704h242.688v37.888h-242.688zM424.448 187.904h-246.784v286.72h246.784v-286.72z m-46.592 232.448v1.024c0 16.384-34.816 29.696-78.336 29.696-43.008 0-78.336-13.312-78.336-29.696v-49.664h0.512c3.072-15.36 15.872-28.672 34.816-36.864l21.504-8.192 0.512-9.216c-9.216-7.168-15.872-18.944-18.432-32.768-5.12-0.512-9.216-5.632-9.216-12.288 0-5.12 2.048-9.216 5.632-11.264 0 0-13.312-38.4 14.336-52.736 0 0 53.248-24.064 56.32 6.656 22.016 10.24 11.264 45.056 11.264 45.056 4.608 1.024 8.192 6.144 8.192 12.288 0 6.656-4.608 12.288-9.728 12.288h-0.512c-2.048 12.288-7.68 23.04-15.36 30.208l0.512 9.728 19.968 10.24c18.944 8.192 32.256 21.504 34.816 36.864h0.512v48.64z" fill="#040000" p-id="192189"></path></svg>