<?xml version="1.0" standalone="no"?><!DOCTYPE svg PUBLIC "-//W3C//DTD SVG 1.1//EN" "http://www.w3.org/Graphics/SVG/1.1/DTD/svg11.dtd"><svg t="1763903241892" class="icon" viewBox="0 0 1024 1024" version="1.1" xmlns="http://www.w3.org/2000/svg" p-id="6513" xmlns:xlink="http://www.w3.org/1999/xlink" width="200" height="200"><path d="M267.9 152.5c-9.3 9.3-24.5 9.3-33.8 0-9.3-9.3-9.3-24.5 0-33.8 9.3-9.3 24.5-9.3 33.8 0 9.3 9.4 9.3 24.6 0 33.8zM494.5 379.2c-9.3 9.3-24.5 9.3-33.8 0L296.4 214.8c-9.3-9.3-9.3-24.5 0-33.8 9.3-9.3 24.5-9.3 33.8 0l164.4 164.4c9.2 9.3 9.2 24.5-0.1 33.8zM578.1 361.6l-32.4-32.4c-0.4-0.4-1-0.4-1.4 0l-32.4 32.4c-0.4 0.4-0.4 1 0 1.4l32.4 32.4c0.4 0.4 1 0.4 1.4 0l32.4-32.4c0.4-0.4 0.4-1 0-1.4zM788.5 118.8c-9.3-9.3-24.5-9.3-33.8 0L590.4 283.2c-9.3 9.3-9.3 24.5 0 33.8 9.3 9.3 24.5 9.3 33.8 0l164.4-164.4c9.2-9.3 9.2-24.5-0.1-33.8z" fill="#5E4739" p-id="6514"></path><path d="M841.3 857.7h-660c-54.9 0-99.8-44.9-99.8-99.8V384.5c0-54.9 44.9-99.8 99.8-99.8h660c54.9 0 99.8 44.9 99.8 99.8v373.4c0 54.9-44.9 99.8-99.8 99.8z" fill="#F8DBC8" p-id="6515"></path><path d="M841.3 858.7h-660c-55.6 0-100.8-45.2-100.8-100.8V384.5c0-55.6 45.2-100.8 100.8-100.8h660c55.6 0 100.8 45.2 100.8 100.8v373.4c0 55.6-45.2 100.8-100.8 100.8zM181.4 285.6c-54.5 0-98.8 44.3-98.8 98.8v373.4c0 54.5 44.3 98.8 98.8 98.8h660c54.5 0 98.8-44.3 98.8-98.8V384.5c0-54.5-44.3-98.8-98.8-98.8h-660z" fill="#5D4638" p-id="6516"></path><path d="M797.6 762.2H225c-26.4 0-48-21.6-48-48v-286c0-26.4 21.6-48 48-48h572.6c26.4 0 48 21.6 48 48v286c0 26.4-21.6 48-48 48z" fill="#F8DBC8" p-id="6517"></path><path d="M797.6 786.2H225c-39.7 0-72-32.3-72-72v-286c0-39.7 32.3-72 72-72h572.6c39.7 0 72 32.3 72 72v286c0 39.7-32.3 72-72 72zM225 404.1c-13.2 0-24 10.8-24 24v286c0 13.2 10.8 24 24 24h572.6c13.2 0 24-10.8 24-24v-286c0-13.2-10.8-24-24-24H225z" fill="#5D4638" p-id="6518"></path><path d="M845.6 812.3H177c-52.5 0-95.5-43-95.5-95.5v43.3c0 52.5 43 95.5 95.5 95.5h668.6c52.5 0 95.5-43 95.5-95.5v-43.3c0 52.5-43 95.5-95.5 95.5z" fill="#EEB28A" p-id="6519"></path><path d="M845.6 330.1H177c-52.5 0-95.5 43-95.5 95.5v-43.3c0-52.5 43-95.5 95.5-95.5h668.6c52.5 0 95.5 43 95.5 95.5v43.3c0-52.5-43-95.5-95.5-95.5z" fill="#FFFFFF" p-id="6520"></path><path d="M832.5 881.7H190.2c-73.1 0-132.6-59.5-132.6-132.6V393.2c0-73.1 59.5-132.6 132.6-132.6h642.4c73.1 0 132.6 59.5 132.6 132.6V749c-0.1 73.2-59.6 132.7-132.7 132.7zM190.2 308.6c-46.7 0-84.6 38-84.6 84.6V749c0 46.7 38 84.6 84.6 84.6h642.4c46.7 0 84.6-38 84.6-84.6V393.2c0-46.7-38-84.6-84.6-84.6H190.2z" fill="#5D4638" p-id="6521"></path><path d="M297.2 473.3c9.3-9.3 9.3-24.5 0-33.8-9.3-9.3-24.5-9.3-33.8 0-9.3 9.3-9.3 24.5 0 33.8 9.4 9.3 24.5 9.3 33.8 0z" fill="#FFFFFF" p-id="6522"></path><path d="M280.3 615.2c13.1 0 23.9-10.7 23.9-23.9v-57.5c0-13.1-10.7-23.9-23.9-23.9-13.1 0-23.9 10.7-23.9 23.9v57.5c0.1 13.1 10.8 23.9 23.9 23.9z" fill="#FFFFFF" p-id="6523"></path><path d="M604.8 563.2L472.4 478c-1.5-1-2.9-1.8-4.2-2.6-1.3-0.8-2.9-1.1-4.6-1.1-1.7 0-6 0.8-8.6 3.2 0 0-3 2.6-3 7.6l0.1 173.8c0 3.5 3.1 6.3 3.1 6.3 2.8 2.4 6.2 2.8 8.5 2.7 3.2-0.2 7.1-2.1 8.7-3.1l132.5-85c7.2-5.4 6.9-12.1-0.1-16.6z" fill="#5E4739" p-id="6524"></path></svg>