<?xml version="1.0" standalone="no"?><!DOCTYPE svg PUBLIC "-//W3C//DTD SVG 1.1//EN" "http://www.w3.org/Graphics/SVG/1.1/DTD/svg11.dtd"><svg t="1763751163626" class="icon" viewBox="0 0 1024 1024" version="1.1" xmlns="http://www.w3.org/2000/svg" p-id="66069" xmlns:xlink="http://www.w3.org/1999/xlink" width="200" height="200"><path d="M214.308571 512c0-33.28 5.632-65.097143 15.725715-95.085714L53.76 285.257143A502.857143 502.857143 0 0 0 0 512C0 593.554286 19.309714 670.427429 53.613714 738.742857l176.274286-132.022857A296.96 296.96 0 0 1 214.308571 512" fill="#FBBC05" p-id="66070"></path><path d="M523.922286 209.481143c73.801143 0 140.434286 25.6 192.877714 67.437714l152.356571-148.918857A528.457143 528.457143 0 0 0 523.922286 0C316.928 0 138.898286 115.858286 53.686857 285.184L230.107429 416.914286C270.628571 296.228571 386.486857 209.481143 523.922286 209.481143z" fill="#EA4335" p-id="66071"></path><path d="M523.922286 814.518857c-137.508571 0-253.293714-86.747429-293.888-207.506286l-176.274286 131.803429C138.825143 908.141714 316.781714 1024 523.849143 1024c127.780571 0 249.709714-44.397714 341.357714-127.634286l-167.424-126.537143c-47.177143 29.037714-106.642286 44.690286-174.006857 44.690286" fill="#34A853" p-id="66072"></path><path d="M1024 512c0-30.208-4.827429-62.829714-11.922286-93.037714H523.849143v197.778285h281.014857a230.4 230.4 0 0 1-106.934857 153.088l167.350857 126.610286C961.462857 809.106286 1024 678.985143 1024 512.073143" fill="#4285F4" p-id="66073"></path></svg>