<?xml version="1.0" standalone="no"?><!DOCTYPE svg PUBLIC "-//W3C//DTD SVG 1.1//EN" "http://www.w3.org/Graphics/SVG/1.1/DTD/svg11.dtd"><svg t="1763832680441" class="icon" viewBox="0 0 1024 1024" version="1.1" xmlns="http://www.w3.org/2000/svg" p-id="2624" xmlns:xlink="http://www.w3.org/1999/xlink" width="200" height="200"><path d="M797.913735 651.641263H224.473735V82.135579c0-15.467789 12.719158-28.240842 28.186947-28.240842h517.012211c15.467789 0 28.240842 12.773053 28.240842 28.240842V651.587368z" fill="#20A565" p-id="2625"></path><path d="M847.550787 847.009684L293.890156 697.397895 442.585735 147.348211a28.079158 28.079158 0 0 1 34.384842-19.887158l498.957474 135.006315c14.982737 3.988211 23.821474 19.402105 19.833263 34.438737l-148.210527 550.103579z" fill="#EA4B3D" p-id="2626"></path><path d="M209.544893 806.426947l537.761684-199.410526-180.870737-488.34021a28.294737 28.294737 0 0 0-36.217263-16.761264L45.435419 281.869474a28.294737 28.294737 0 0 0-16.815158 36.109473l180.924632 488.394106z" fill="#FFC61C" p-id="2627"></path><path d="M866.898998 937.984H183.513735a36.325053 36.325053 0 0 1-36.109474-36.217263V395.317895c0-19.833263 16.276211-36.109474 36.109474-36.109474h683.385263c19.833263 0 36.163368 16.276211 36.163368 36.109474v506.448842a36.325053 36.325053 0 0 1-36.163368 36.217263z" fill="#508EF4" p-id="2628"></path><path d="M502.193314 625.232842h-131.503158v50.714947h74.159158a79.117474 79.117474 0 0 1-74.105263 51.631158c-43.654737 0-79.009684-35.301053-79.009685-78.955789s35.301053-78.955789 79.009685-78.95579c20.264421 0 38.804211 7.491368 52.493473 20.264421l36.648421-41.013894a133.605053 133.605053 0 0 0-222.800842 99.705263 133.605053 133.605053 0 0 0 133.658948 133.658947 133.874526 133.874526 0 0 0 130.96421-106.334316 135.491368 135.491368 0 0 0 0.431158-50.714947zM753.234998 569.667368H559.591208V514.964211h193.64379a27.486316 27.486316 0 0 1 27.378526 27.324631 27.486316 27.486316 0 0 1-27.378526 27.378526zM753.234998 779.964632H559.591208v-54.703158h193.64379a27.486316 27.486316 0 0 1 27.378526 27.324631 27.486316 27.486316 0 0 1-27.378526 27.378527zM786.326366 675.139368H559.591208v-54.703157h226.735158a27.486316 27.486316 0 0 1 27.378527 27.324631 27.486316 27.486316 0 0 1-27.378527 27.378526z" fill="#FFFFFF" p-id="2629"></path></svg>