<?xml version="1.0" standalone="no"?><!DOCTYPE svg PUBLIC "-//W3C//DTD SVG 1.1//EN" "http://www.w3.org/Graphics/SVG/1.1/DTD/svg11.dtd"><svg t="1763761270552" class="icon" viewBox="0 0 1024 1024" version="1.1" xmlns="http://www.w3.org/2000/svg" p-id="134708" xmlns:xlink="http://www.w3.org/1999/xlink" width="200" height="200"><path d="M361.893647 625.483294v47.947294c-16.805647 3.373176-36.141176 7.529412-58.006588 12.649412-36.984471 8.432941-63.849412 14.275765-80.715294 17.588706l-10.059294-58.006588c30.298353-1.626353 79.872-8.432941 148.781176-20.178824z m40.357647-95.774118c8.432941 0 22.708706-0.903529 42.88753-2.590117-1.686588 11.685647-2.529882 23.491765-2.529883 35.297882-4.999529 121.072941-12.589176 187.512471-22.64847 199.258353-13.492706 16.805647-44.574118 29.394824-93.364706 37.827765a27.828706 27.828706 0 0 0-12.589177 2.529882 192.752941 192.752941 0 0 0-25.238588-60.53647c45.417412 5.059765 73.968941 1.686588 85.775059-10.059295 5.059765-8.432941 9.216-24.395294 12.649412-47.947294 3.312941-21.805176 5.842824-59.632941 7.529411-113.483294-37.044706 3.373176-88.304941 7.589647-153.840941 12.649412 1.626353-25.298824 3.312941-61.44 4.99953-108.483765 1.686588-50.416941 2.529882-87.401412 2.529882-110.953411 40.357647 1.686588 61.379765 4.999529 63.066353 10.059294 0 3.373176-1.686588 6.746353-5.059765 10.119529-3.373176 8.432941-4.999529 16.805647-4.999529 25.178353-1.746824 3.433412-2.529882 10.119529-2.529883 20.178824-6.746353 57.223529-9.276235 93.364706-7.589647 108.423529h25.238589c20.178824-1.626353 33.611294-2.469647 40.357647-2.469647 6.686118-97.520941 11.745882-169.020235 15.119058-214.437647-79.028706 3.433412-131.132235 6.806588-156.370823 10.119529V269.854118c23.491765 5.059765 94.147765 5.963294 211.847529 2.529882a5108.736 5108.736 0 0 0-25.238588 257.264941z m171.550118-307.802352c40.357647 6.806588 63.006118 12.649412 68.065882 17.709176 0 3.373176-1.686588 6.746353-5.059765 10.059294-3.373176 3.433412-4.999529 5.963294-4.999529 7.589647 30.238118 65.596235 89.931294 117.699765 179.019294 156.370824-16.805647 13.492706-29.394824 31.141647-37.767529 53.007059-94.208-50.477176-148.781176-112.64-163.960471-186.729412C582.174118 340.570353 531.757176 407.792941 457.788235 481.761882a550.731294 550.731294 0 0 0-45.417411-35.297882c79.028706-52.103529 132.818824-126.915765 161.430588-224.436706z m108.423529 287.563294c41.984 8.432941 64.692706 16.022588 68.065883 22.708706 0 3.373176-2.469647 7.589647-7.529412 12.649411-6.746353 6.686118-10.059294 11.745882-10.059294 15.058824a228.773647 228.773647 0 0 0-5.059765 17.709176 4312.425412 4312.425412 0 0 1-53.007059 158.840471h15.179294c35.297882 1.746824 62.162824 0.903529 80.715294-2.469647v42.827294c-18.552471-3.373176-45.417412-4.216471-80.715294-2.469647H546.032941c-47.104-1.746824-79.028706-0.903529-95.834353 2.469647v-45.357177c10.059294 1.686588 25.238588 3.373176 45.417412 4.99953h128.602353c28.551529-65.536 47.947294-141.191529 58.006588-226.966588z m-168.96 15.119058c15.119059 43.791059 28.551529 98.364235 40.357647 163.960471l-53.007059 10.119529c-6.686118-70.656-17.648941-125.289412-32.768-163.96047l45.417412-10.11953z m0-93.30447c1.626353 0 10.059294 0.903529 25.178353 2.529882h108.42353c30.298353-1.626353 49.633882-2.529882 58.066823-2.529882v47.947294a1479.740235 1479.740235 0 0 0-83.245176-5.059765h-32.768c-35.297882 0-60.536471 0.843294-75.65553 2.529883V431.284706z m98.364235 80.715294c11.745882 60.536471 18.492235 110.953412 20.178824 151.311059l-53.007059 7.589647c-1.686588-53.790118-8.432941-104.207059-20.178823-151.311059l53.007058-7.589647z" fill="#08080A" p-id="134709"></path><path d="M981.052235 676.080941a36.261647 36.261647 0 0 0-51.2 4.216471l-190.464 224.858353-82.04047-76.016941a36.261647 36.261647 0 1 0-49.332706 53.248l109.869176 101.797647a36.261647 36.261647 0 0 0 52.404706-3.132236l215.04-253.771294a36.261647 36.261647 0 0 0-4.276706-51.2z" fill="#08080A" p-id="134710"></path><path d="M561.935059 929.430588a427.911529 427.911529 0 0 1-49.995294 2.95153 419.117176 419.117176 0 0 1-297.261177-123.120942A419.056941 419.056941 0 0 1 91.678118 512a418.996706 418.996706 0 0 1 123.120941-297.261176A419.056941 419.056941 0 0 1 512 91.617882a419.056941 419.056941 0 0 1 297.261176 123.120942A418.996706 418.996706 0 0 1 932.382118 512c0 32.768-3.734588 64.933647-11.083294 96.256a102.279529 102.279529 0 0 1 63.548235-2.951529 481.882353 481.882353 0 1 0-366.230588 376.711529l-55.416471-51.320471-1.264941-1.264941z" fill="#08080A" p-id="134711"></path></svg>