<?xml version="1.0" standalone="no"?><!DOCTYPE svg PUBLIC "-//W3C//DTD SVG 1.1//EN" "http://www.w3.org/Graphics/SVG/1.1/DTD/svg11.dtd"><svg t="1763909496672" class="icon" viewBox="0 0 1025 1024" version="1.1" xmlns="http://www.w3.org/2000/svg" p-id="27058" xmlns:xlink="http://www.w3.org/1999/xlink" width="200.1953125" height="200"><path d="M941.8 1024H82.2C36.8 1024 0 987.2 0 941.8V82.2C0 36.8 36.8 0 82.2 0h859.6c45.4 0 82.2 36.8 82.2 82.2v859.6c0 45.4-36.8 82.2-82.2 82.2z" fill="#EF9B6C" p-id="27059"></path><path d="M759.6 64.9H545.2c-5.9 0-10.8 4.8-10.8 10.8V476.5h26.8V215.3h198.3c5.9 0 10.8-4.8 10.8-10.8V75.7c0-6-4.8-10.8-10.7-10.8z" fill="#142E3F" p-id="27060"></path><path d="M774.5 293.8H588v183.9c0 7.4-6 13.4-13.4 13.4s-13.4-6-13.4-13.4V293.8H306.6c-92.1 0-166.7 74.6-166.7 166.7v239c0 15.4 12.5 27.9 27.9 27.9h745.6c15.4 0 27.9-12.5 27.9-27.9v-239c-0.1-92.1-74.7-166.7-166.8-166.7zM166.6 693V461c0-73.3 59.4-132.8 132.8-132.8 69.9 0 127.1 54.1 132.3 122.7H277.5V693H166.6z m132.8 0V472.9h132.8V693H299.4z" fill="#142E3F" p-id="27061"></path><path d="M139.8 699.5L230 885.6l235.9-164.9z" fill="#142E3F" p-id="27062"></path><path d="M177.3 799.1m-101.4 0a101.4 101.4 0 1 0 202.8 0 101.4 101.4 0 1 0-202.8 0Z" fill="#142E3F" p-id="27063"></path><path d="M538.1 754.8h43.8v208.9h-43.8z" fill="#142E3F" p-id="27064"></path></svg>