<?xml version="1.0" standalone="no"?><!DOCTYPE svg PUBLIC "-//W3C//DTD SVG 1.1//EN" "http://www.w3.org/Graphics/SVG/1.1/DTD/svg11.dtd"><svg t="1763909186478" class="icon" viewBox="0 0 1024 1024" version="1.1" xmlns="http://www.w3.org/2000/svg" p-id="14457" xmlns:xlink="http://www.w3.org/1999/xlink" width="200" height="200"><path d="M512 512m-512 0a512 512 0 1 0 1024 0 512 512 0 1 0-1024 0Z" fill="#535874" p-id="14458"></path><path d="M577.536 227.555556A312.718222 312.718222 0 0 1 853.333333 539.306667C853.333333 712.704 713.728 853.333333 540.899556 853.333333a312.433778 312.433778 0 0 1-285.752889-186.936889c21.219556 4.608 42.780444 7.338667 65.137777 7.338667 163.953778 0 296.618667-133.290667 296.618667-297.870222 0-54.044444-14.222222-104.675556-39.367111-148.309333zM391.68 435.370667l17.749333 52.906666 52.792889 17.806223-52.792889 17.749333-17.749333 52.906667-17.749333-52.906667-52.849778-17.749333 52.849778-17.806223 17.749333-52.906666zM262.485333 237.624889l22.755556 68.721778 68.608 22.755555-68.608 22.812445-22.755556 69.176889-22.755555-68.778667L170.666667 329.557333l68.664889-22.812444 23.153777-69.12z" fill="#FFFFFF" p-id="14459"></path></svg>