<?xml version="1.0" standalone="no"?><!DOCTYPE svg PUBLIC "-//W3C//DTD SVG 1.1//EN" "http://www.w3.org/Graphics/SVG/1.1/DTD/svg11.dtd"><svg t="1763752412615" class="icon" viewBox="0 0 1024 1024" version="1.1" xmlns="http://www.w3.org/2000/svg" p-id="87854" xmlns:xlink="http://www.w3.org/1999/xlink" width="200" height="200"><path d="M724.47429 494.606227l134.652381 32.639123c8.447773-28.031247 22.399398-53.630559 36.47902-79.357867 30.847171-60.606371 61.694342-121.276741 56.126491-244.921418-2.815924-58.238435-22.399398-102.589243-53.310567-125.948615-28.095245-20.991436-56.126492-20.991436-56.126492-20.991436-44.862794 0-100.989286 16.319561-143.100154 137.596302-33.663095 100.349303-14.015623 151.675924 0 186.682983l2.815924 4.607876c14.079622 39.678934 22.399398 74.685993 22.399398 109.693052z m159.931702 97.917369h-8.447773l-199.226646-46.654746c-16.831548-4.671874-28.031247-16.319561-25.215322-32.639123 5.631849-30.335185-2.815924-67.646182-16.831548-107.261117l-2.815924-4.671875c-16.831548-39.678934-42.110868-102.653241-2.815925-221.626044C657.148099 102.68076 707.642742 0.027519 839.479199 0.027519c2.815924 0 56.126492-2.303938 103.80521 35.007059 44.926793 35.007059 70.142115 91.005554 75.773964 165.627549 5.631849 135.292364-28.031247 207.61042-61.75834 268.28079-16.767549 32.639123-30.847171 60.606371-39.230946 97.917369a37.694987 37.694987 0 0 1-16.831548 18.687497c-2.815924 4.671874-11.263697 7.039811-16.831547 7.039811zM182.984842 233.30125c-14.079622 0-101.053284 4.671874-109.437059 144.636113-5.631849 123.644677 25.215322 184.315047 56.126492 244.921418 11.199699 25.66331 25.215322 49.022683 36.47902 79.357867l134.652381-32.639123c0-32.703121 8.383775-70.014118 22.399398-107.325116l2.815924-4.671874c14.079622-35.007059 36.47902-86.33368 0-186.618985C283.974128 249.620811 227.847637 233.365248 183.048841 233.365248z m-44.926792 534.193644a60.158383 60.158383 0 0 1-19.647472-4.671875 37.694987 37.694987 0 0 1-16.831548-18.623499c-8.383775-37.374996-22.399398-65.278246-39.294944-97.981367C31.436915 583.243845-5.042104 513.229727 0.653742 377.937363 3.405668 303.379367 28.620991 247.316873 76.363708 212.309814c47.678719-37.310997 100.989286-34.943061 106.621134-34.943061 129.020533 0 182.395098 102.589243 207.610421 179.579174 42.04687 118.972803 14.015623 184.315047-2.815925 221.626044v2.303938c-16.831548 39.678934-22.399398 74.685993-16.831547 107.325116 2.815924 14.015623-8.447773 27.967248-25.279321 32.639122l-199.162647 46.654747h-8.447773z m541.489447-153.979862c-30.847171 49.022683-47.678719 109.693052-30.847171 144.636113 8.447773 14.015623 19.647472 23.359372 42.110868 28.031246 30.847171 6.975813 56.126492 4.607876 78.52589-9.343749 36.47902-20.991436 61.75834-67.646182 72.958039-125.948615l-162.747626-37.374995z m39.294944 233.273731c-14.015623 0-30.847171-2.303938-47.678719-4.671875-42.110868-9.279751-72.958039-30.271186-87.03766-62.974307-30.783173-62.974308 5.631849-153.915864 47.742717-214.586233a39.422941 39.422941 0 0 1 42.110868-14.015624l213.242269 51.326621c16.831548 4.671874 25.215322 16.319561 25.215322 30.335185-8.383775 88.637618-47.678719 158.587738-103.80521 191.290859-28.031247 13.951625-58.878418 23.295374-89.789587 23.295374z m-535.857599-20.991436c11.199699 58.302433 36.47902 104.957179 72.95804 125.948615 22.399398 14.079622 47.678719 16.38356 78.525889 9.343749 22.399398-4.671874 33.663095-13.951625 42.110868-27.967249 16.831548-35.007059-2.815924-95.677429-30.911169-144.636113l-162.683628 37.310998z m120.636758 195.962733c-30.847171 0-61.75834-7.039811-89.789587-23.359372-58.878418-34.943061-95.357437-104.957179-103.80521-191.226861 0-14.079622 8.383775-25.66331 25.215322-30.335185l213.242269-51.32662c16.831548-4.671874 33.663095 2.303938 39.294944 14.015623v2.303938c42.110868 58.302433 78.589888 151.675924 47.678719 212.282295-14.015623 30.335185-44.862794 51.326621-86.973663 62.974308-14.015623 2.303938-28.031247 4.671874-44.862794 4.671874z" fill="#5584FF" p-id="87855"></path></svg>