<?xml version="1.0" standalone="no"?><!DOCTYPE svg PUBLIC "-//W3C//DTD SVG 1.1//EN" "http://www.w3.org/Graphics/SVG/1.1/DTD/svg11.dtd"><svg t="1763743765959" class="icon" viewBox="0 0 1024 1024" version="1.1" xmlns="http://www.w3.org/2000/svg" p-id="14563" xmlns:xlink="http://www.w3.org/1999/xlink" width="200" height="200"><path d="M912.73 945.31H512.4c-58.48 0-115.23-11.46-168.67-34.06-51.6-21.83-97.94-53.06-137.72-92.85-39.78-39.78-71.02-86.12-92.85-137.72C90.55 627.23 79.09 570.48 79.09 512s11.46-115.23 34.06-168.67c21.83-51.6 53.06-97.94 92.85-137.72 39.78-39.78 86.12-71.02 137.72-92.85 53.44-22.6 110.19-34.06 168.67-34.06s115.23 11.46 168.67 34.06c51.6 21.83 97.94 53.06 137.72 92.85 39.78 39.78 71.02 86.12 92.85 137.72 22.6 53.44 34.06 110.19 34.06 168.67 0 50.84-8.73 100.64-25.95 148.02-16.64 45.78-40.77 88.19-71.73 126.06-10.9 13.33-30.54 15.31-43.88 4.41-13.33-10.9-15.3-30.54-4.41-43.88 26.51-32.42 47.16-68.72 61.4-107.89 14.73-40.53 22.2-83.16 22.2-126.72 0-99.08-38.58-192.23-108.65-262.3-70.06-70.06-163.21-108.65-262.3-108.65S320.16 179.64 250.1 249.7C180.04 319.77 141.45 412.92 141.45 512c0 99.08 38.58 192.24 108.65 262.3 70.06 70.06 163.21 108.65 262.3 108.65h400.33c17.22 0 31.18 13.96 31.18 31.18s-13.96 31.18-31.18 31.18z" fill="#3E3A39" p-id="14564"></path><path d="M318.87 632.73c-31.05 0-62.09-11.82-85.73-35.46-22.9-22.9-35.51-53.35-35.51-85.73 0-32.39 12.61-62.83 35.51-85.73 47.27-47.27 124.19-47.27 171.47 0 22.9 22.9 35.51 53.35 35.51 85.73 0 32.39-12.61 62.83-35.51 85.73-23.64 23.64-54.7 35.46-85.74 35.46z m0-180.07c-15.73 0-30.52 6.12-41.64 17.25-11.12 11.12-17.25 25.91-17.25 41.64s6.12 30.52 17.25 41.64c11.12 11.12 25.91 17.25 41.64 17.25s30.52-6.12 41.64-17.25c11.12-11.12 17.25-25.91 17.25-41.64s-6.12-30.51-17.25-41.64c-11.13-11.12-25.91-17.25-41.64-17.25zM523.54 428.11c-32.39 0-62.83-12.61-85.73-35.51-47.27-47.27-47.27-124.19 0-171.47 22.9-22.9 53.35-35.51 85.73-35.51 32.39 0 62.83 12.61 85.73 35.51 47.27 47.27 47.27 124.19 0 171.47-22.89 22.9-53.34 35.51-85.73 35.51z m0-180.13c-15.73 0-30.52 6.12-41.64 17.25-11.12 11.12-17.25 25.91-17.25 41.64s6.12 30.52 17.25 41.64c11.12 11.12 25.91 17.25 41.64 17.25s30.51-6.12 41.64-17.25c11.12-11.12 17.25-25.91 17.25-41.64s-6.12-30.52-17.25-41.64c-11.12-11.12-25.91-17.25-41.64-17.25zM524.46 838.38c-32.39 0-62.83-12.61-85.73-35.51-22.9-22.9-35.51-53.35-35.51-85.73 0-32.39 12.61-62.83 35.51-85.73 47.27-47.27 124.19-47.27 171.47 0 47.27 47.27 47.27 124.19 0 171.47-22.91 22.89-53.36 35.5-85.74 35.5z m0-180.1c-15.08 0-30.16 5.74-41.64 17.22-11.12 11.12-17.25 25.91-17.25 41.64s6.12 30.52 17.25 41.64c11.12 11.12 25.91 17.25 41.64 17.25s30.52-6.12 41.64-17.25c22.96-22.96 22.96-60.32 0-83.27-11.48-11.49-26.56-17.23-41.64-17.23zM729.13 633.65c-31.05 0-62.1-11.82-85.73-35.45-47.27-47.27-47.27-124.19 0-171.47 22.9-22.9 53.35-35.51 85.73-35.51 32.39 0 62.83 12.61 85.73 35.51 22.9 22.9 35.51 53.35 35.51 85.73s-12.61 62.83-35.51 85.73c-23.63 23.64-54.68 35.46-85.73 35.46z m0-180.08c-15.73 0-30.52 6.12-41.64 17.25-22.96 22.96-22.96 60.32 0 83.27 11.48 11.48 26.56 17.22 41.64 17.22 15.08 0 30.16-5.74 41.64-17.22 11.12-11.12 17.25-25.91 17.25-41.64s-6.12-30.52-17.25-41.64c-11.12-11.11-25.91-17.24-41.64-17.24z" fill="#3E3A39" p-id="14565"></path></svg>