<?xml version="1.0" standalone="no"?><!DOCTYPE svg PUBLIC "-//W3C//DTD SVG 1.1//EN" "http://www.w3.org/Graphics/SVG/1.1/DTD/svg11.dtd"><svg t="1763842945801" class="icon" viewBox="0 0 1024 1024" version="1.1" xmlns="http://www.w3.org/2000/svg" p-id="13442" xmlns:xlink="http://www.w3.org/1999/xlink" width="200" height="200"><path d="M638.464 108.8a19.968 19.968 0 0 1 14.08 37.632 88.832 88.832 0 0 0-40.96 37.888 307.2 307.2 0 0 0-31.232 74.24 623.616 623.616 0 0 0-15.616 66.816c58.88-58.88 140.288-98.048 220.672-98.048 131.584 0 210.944 102.912 177.152 230.144-22.272 82.944-87.04 155.392-166.144 195.84a235.008 235.008 0 0 1 32.768 70.4c28.416 106.496-37.888 192.768-147.968 192.768-60.672 0-121.6-26.88-169.216-68.352a264.704 264.704 0 0 1-169.216 68.352c-110.08 0-176.384-86.528-147.968-192.768a235.264 235.264 0 0 1 32.768-70.4C148.48 612.864 83.712 540.416 61.44 457.472 27.648 330.24 107.008 227.328 238.592 227.328c80.384 0 161.28 38.912 220.16 97.792a622.336 622.336 0 0 0-15.36-66.56A307.2 307.2 0 0 0 412.16 184.32a88.576 88.576 0 0 0-40.96-37.888 19.968 19.968 0 0 1 14.336-37.632 128 128 0 0 1 60.416 54.272c15.36 24.32 26.88 53.76 35.84 83.712 14.592 47.872 22.528 99.584 26.368 140.8L512 394.496l3.584-6.912a750.08 750.08 0 0 1 26.368-140.8 345.6 345.6 0 0 1 35.84-83.968 128 128 0 0 1 60.672-54.272z" fill="#87EFEC" p-id="13443"></path></svg>