<?xml version="1.0" standalone="no"?><!DOCTYPE svg PUBLIC "-//W3C//DTD SVG 1.1//EN" "http://www.w3.org/Graphics/SVG/1.1/DTD/svg11.dtd"><svg t="1763762121552" class="icon" viewBox="0 0 1024 1024" version="1.1" xmlns="http://www.w3.org/2000/svg" p-id="167764" xmlns:xlink="http://www.w3.org/1999/xlink" width="200" height="200"><path d="M153.6 656.29c-9.31 0-13.964-4.654-18.618-9.308-9.31-9.31-4.655-23.273 4.654-32.582l260.655-186.182 158.254 190.837c9.31 9.309 4.655 23.272-4.654 32.581-9.31 9.31-23.273 4.655-32.582-4.654L390.982 488.727l-223.418 162.91c-4.655 4.654-9.31 4.654-13.964 4.654z" fill="#333333" p-id="167765"></path><path d="M861.09 605.09c-4.654 0-13.963-4.654-18.617-9.308L670.255 372.364 484.073 558.545c-9.31 9.31-23.273 9.31-32.582 0-9.31-9.309-9.31-23.272 0-32.581l223.418-223.419 204.8 265.31c9.31 9.309 4.655 23.272-4.654 32.581 0 4.655-9.31 4.655-13.964 4.655z" fill="#333333" p-id="167766"></path><path d="M181.527 274.618a69.818 69.818 0 1 0 139.637 0 69.818 69.818 0 1 0-139.637 0z" fill="#333333" p-id="167767"></path><path d="M498.036 884.364H93.091V139.636h837.818v479.419h46.546V93.09H46.545v837.818h451.491z" fill="#333333" p-id="167768"></path><path d="M805.236 623.71v83.78H563.2v46.546h414.255z m-69.818 335.126v-83.781h242.037v-46.546H563.2z" fill="#333333" p-id="167769"></path></svg>