<?xml version="1.0" standalone="no"?><!DOCTYPE svg PUBLIC "-//W3C//DTD SVG 1.1//EN" "http://www.w3.org/Graphics/SVG/1.1/DTD/svg11.dtd"><svg t="1763745644205" class="icon" viewBox="0 0 1024 1024" version="1.1" xmlns="http://www.w3.org/2000/svg" p-id="40241" xmlns:xlink="http://www.w3.org/1999/xlink" width="200" height="200"><path d="M919.648 160C941.92 160 960 177.312 960 198.688V697.28C960 718.72 941.92 736 919.648 736H545.12v64H800v64H224v-64h257.12v-64H104.352c-20.896 0-38.08-15.232-40.128-34.72L64 697.28V198.72C64 177.28 82.08 160 104.352 160H919.68zM896 221.344H128v453.312h768V221.344zM559.68 377.6c55.68 0.896 85.792 32.64 88.704 92.576l0.224 6.752v29.888h-117.344l0.064 0.384c2.976 14.976 11.264 22.784 25.984 24.448l4.16 0.32h4.512c19.616 0 37.12-1.152 52.544-3.488l8.992-1.536 9.504-1.792v49.056l-5.696 1.728c-17.984 5.376-39.744 8.032-65.216 8.032-57.472 0.864-89.248-26.976-92.736-81.408l-0.256-6.4v-19.456c1.728-59.872 28.8-93.632 79.808-98.624l6.752-0.48z m163.52-65.6v68.672l2.176-0.64a104 104 0 0 1 13.92-2.784l7.168-0.704 7.328-0.224c49.92 0 76.64 29.312 78.624 84.8l0.128 6.816v31.936c-1.344 56.096-32.32 84.992-90.336 84.096-18.816 0-37.664-1.088-56.512-3.328l-14.112-1.92-6.816-0.96V312H723.2zM249.728 381.44l20.256 104.512 27.424-104.48h61.152l28.384 104.416 19.296-104.416h60.48l-46.176 197.376h-62.624l-29.92-109.024-29.888 109.024H235.488L189.28 381.44h60.448z m501.504 49.472c-9.536 0-18.496 1.28-26.944 3.776l-1.088 0.352v96.32l2.048 0.16c3.456 0.192 7.36 0.32 11.68 0.384l6.816 0.064c19.84 0.64 29.632-8.032 31.36-28.352l0.288-4.544v-31.136c0-26.08-7.84-37.024-24.16-37.024z m-186.56 1.28h-3.84c-15.36 0-24.224 5.76-27.68 18.656l-0.832 3.904 55.84 0.032c-2.272-15.136-9.76-22.08-23.456-22.592z" p-id="40242"></path></svg>