<?xml version="1.0" standalone="no"?><!DOCTYPE svg PUBLIC "-//W3C//DTD SVG 1.1//EN" "http://www.w3.org/Graphics/SVG/1.1/DTD/svg11.dtd"><svg t="1763761873025" class="icon" viewBox="0 0 1024 1024" version="1.1" xmlns="http://www.w3.org/2000/svg" p-id="160973" xmlns:xlink="http://www.w3.org/1999/xlink" width="200" height="200"><path d="M905.216 738.304h-10.24C871.424 702.464 829.44 675.84 781.312 675.84c-13.312 0-25.6 1.024-36.864 5.12-1.024-3.072-3.072-6.144-4.096-8.192v-1.024c-1.024-3.072-3.072-5.12-5.12-8.192-23.552-36.864-65.536-61.44-112.64-61.44-74.752 0-135.168 60.416-135.168 135.168v2.048c-37.888 9.216-66.56 41.984-66.56 82.944 0 48.128 38.912 84.992 86.016 84.992h397.312c48.128 0 86.016-36.864 86.016-83.968 2.048-49.152-36.864-84.992-84.992-84.992zM335.872 395.264H491.52c43.008 0 78.848-32.768 78.848-76.8 0-43.008-34.816-76.8-78.848-76.8h-10.24c-21.504-32.768-60.416-57.344-103.424-57.344-11.264 0-22.528 1.024-33.792 4.096-19.456-41.984-62.464-71.68-111.616-71.68-67.584 0-122.88 55.296-122.88 122.88v2.048c-34.816 8.192-60.416 37.888-60.416 75.776 0 43.008 34.816 77.824 78.848 77.824h207.872zM653.312 313.344c41.984-2.048 82.944 13.312 112.64 43.008 18.432 17.408 30.72 39.936 37.888 64.512l-32.768-12.288c-3.072-1.024-6.144 0-8.192 1.024-2.048 2.048-3.072 5.12-3.072 8.192l29.696 171.008c0 2.048 1.024 3.072 2.048 4.096 1.024 1.024 2.048 1.024 3.072 2.048 3.072 1.024 6.144 0 8.192-1.024l133.12-111.616c2.048-2.048 3.072-5.12 3.072-8.192 0-3.072-2.048-5.12-5.12-6.144L887.808 450.56c-3.072-57.344-26.624-110.592-67.584-150.528-46.08-45.056-108.544-68.608-173.056-64.512-2.048 0-4.096 1.024-6.144 3.072-1.024 2.048-2.048 4.096-2.048 6.144l5.12 61.44c1.024 4.096 5.12 8.192 9.216 7.168zM365.568 756.736c-41.984 2.048-82.944-13.312-112.64-43.008-18.432-17.408-30.72-39.936-37.888-64.512l32.768 12.288c3.072 1.024 6.144 0 8.192-1.024 2.048-2.048 3.072-5.12 3.072-8.192L229.376 481.28c0-3.072-2.048-5.12-5.12-6.144-3.072-1.024-6.144 0-8.192 1.024L81.92 588.8c-2.048 2.048-3.072 5.12-3.072 8.192 0 3.072 2.048 5.12 5.12 6.144l46.08 16.384c3.072 57.344 26.624 110.592 67.584 150.528 46.08 45.056 108.544 68.608 173.056 64.512 2.048 0 4.096-1.024 6.144-3.072 1.024-2.048 2.048-4.096 2.048-6.144l-5.12-61.44c0-4.096-4.096-7.168-8.192-7.168z" fill="#3399CC" p-id="160974"></path></svg>