<?xml version="1.0" standalone="no"?><!DOCTYPE svg PUBLIC "-//W3C//DTD SVG 1.1//EN" "http://www.w3.org/Graphics/SVG/1.1/DTD/svg11.dtd"><svg t="1763767605698" class="icon" viewBox="0 0 1024 1024" version="1.1" xmlns="http://www.w3.org/2000/svg" p-id="5647" xmlns:xlink="http://www.w3.org/1999/xlink" width="200" height="200"><path d="M841.165 747.983H182.836c-46.786 0-84.848-38.063-84.848-84.847V184.352c0-46.785 38.063-84.848 84.848-84.848h658.329c46.785 0 84.848 38.063 84.848 84.848v478.785c0 46.784-38.063 84.846-84.848 84.846zM182.836 149.504c-19.215 0-34.848 15.633-34.848 34.848v478.785c0 19.215 15.633 34.847 34.848 34.847h658.329c19.215 0 34.848-15.632 34.848-34.847V184.352c0-19.215-15.633-34.848-34.848-34.848H182.836zM901.013 896.944H122.988c-13.807 0-25-11.192-25-25s11.193-25 25-25h778.024c13.807 0 25 11.192 25 25s-11.193 25-24.999 25z" fill="#515151" p-id="5648"></path><path d="M413.725 305.729l-72.151 209.445h-53.457l-71.275-209.445h50.828l43.671 145.765c2.336 7.887 3.747 14.85 4.235 20.886h0.876c0.681-6.522 2.191-13.679 4.528-21.47l43.378-145.18h49.367zM486.023 443.023v72.152h-47.176V305.729h73.904c52.773 0 79.163 22.251 79.163 66.748 0 21.032-7.573 38.047-22.712 51.047-15.142 12.999-35.371 19.499-60.687 19.499h-22.492z m0-101.071v65.287h18.548c25.121 0 37.683-11.002 37.683-33.009 0-21.518-12.562-32.278-37.683-32.278h-18.548zM810.999 515.175h-47.615l-86.319-131.597c-5.064-7.691-8.569-13.485-10.516-17.381h-0.585c0.779 7.401 1.169 18.696 1.169 33.885v115.093h-44.548V305.729h50.828l83.105 127.507a301.436 301.436 0 0 1 10.517 17.089h0.584c-0.78-4.868-1.168-14.459-1.168-28.773V305.729h44.548v209.446z" fill="#515151" p-id="5649"></path></svg>