<?xml version="1.0" standalone="no"?><!DOCTYPE svg PUBLIC "-//W3C//DTD SVG 1.1//EN" "http://www.w3.org/Graphics/SVG/1.1/DTD/svg11.dtd"><svg t="1763752603879" class="icon" viewBox="0 0 1024 1024" version="1.1" xmlns="http://www.w3.org/2000/svg" p-id="91568" xmlns:xlink="http://www.w3.org/1999/xlink" width="200" height="200"><path d="M170.666667 768h234.666666v53.333333a117.333333 117.333333 0 0 1-234.666666 0V768z m173.141333-170.666667l1.92-5.632C378.453333 501.845333 384 485.12 384 469.333333c0-32-8.661333-70.101333-22.528-96.981333C351.146667 352.298667 343.893333 346.453333 341.333333 346.453333c-54.613333 0-106.666667 58.197333-106.666666 122.88 0 40.874667 3.2 75.605333 9.685333 117.632l1.621333 10.325334h97.834667zM341.333333 261.12c85.333333 0 128 122.88 128 208.213333 0 42.666667-21.333333 85.333333-42.666666 149.333334L405.333333 682.666667H170.666667c0-42.666667-21.333333-106.666667-21.333334-213.333334S234.581333 261.12 341.333333 261.12z m514.304 340.394667l-9.258666 52.522666a117.333333 117.333333 0 0 1-231.082667-40.746666l9.216-52.48 231.125333 40.704z m-44.8-181.162667c7.04-21.333333 12.842667-38.144 12.928-38.4 8.618667-28.074667 15.402667-55.594667 20.693334-85.674667 11.221333-63.658667-29.952-130.005333-83.712-139.52-2.517333-0.426667-10.666667 4.053333-24.32 21.973334-18.346667 24.106667-33.450667 60.16-39.04 91.605333-2.474667 14.08-2.090667 17.28 11.52 96.554667 1.92 10.922667 3.498667 20.736 4.949333 30.592l0.853333 5.888 96.128 16.981333z m-35.242666-347.605333c105.130667 18.517333 171.434667 133.333333 152.917333 238.378666-18.517333 105.045333-50.645333 164.352-58.026667 206.378667l-231.125333-40.746667-9.898667-66.730666c-9.898667-66.730667-23.466667-112.469333-16.085333-154.453334 14.805333-84.053333 78.165333-197.632 162.218667-182.826666z" fill="#000000" p-id="91569"></path></svg>