<?xml version="1.0" standalone="no"?><!DOCTYPE svg PUBLIC "-//W3C//DTD SVG 1.1//EN" "http://www.w3.org/Graphics/SVG/1.1/DTD/svg11.dtd"><svg t="1763761696082" class="icon" viewBox="0 0 1024 1024" version="1.1" xmlns="http://www.w3.org/2000/svg" p-id="146996" xmlns:xlink="http://www.w3.org/1999/xlink" width="200" height="200"><path d="M892.288 699.52H141.44c-19.968 0-36.224-16.128-36.224-36.224V269.696c0-61.184 49.536-110.72 110.72-110.72h601.728c61.184 0 110.72 49.536 110.72 110.72v393.6c0 20.096-16.128 36.224-36.096 36.224z m0 0" fill="#F44336" p-id="146997"></path><path d="M313.6 668.672H161.152c-8.96 0-16.256-7.296-16.256-16.256V296.32c0-51.072 41.344-92.544 92.544-92.544 51.072 0 92.544 41.344 92.544 92.544v356.096c-0.128 8.96-7.296 16.256-16.384 16.256z m0 25.472" fill="#C62828" p-id="146998"></path><path d="M314.368 668.672h-273.92V306.816h289.408v344.832c0 5.504-1.664 8.576-3.968 11.392-2.688 3.328-7.04 5.504-11.52 5.632z m0 0" fill="#F5F5F5" p-id="146999"></path><path d="M40.448 487.808v180.864h273.92c4.48-0.128 8.96-2.304 11.52-5.632 2.304-2.688 4.096-5.888 3.968-11.392v-163.84H40.448z m0 0" fill="#D8D8D8" p-id="147000"></path><path d="M329.984 487.68L40.448 668.672V306.816L329.984 487.68z m0 0" fill="#E5E5E5" p-id="147001"></path><path d="M527.104 925.952c-17.024 0-30.848-13.824-30.848-30.848V699.52h61.696v195.456c0 17.152-13.824 30.976-30.848 30.976z" fill="#FFCA28" p-id="147002"></path><path d="M928.256 807.68l12.672 21.12c3.712 6.144 2.688 14.08-2.304 19.2l-27.136 27.136c-5.12 5.12-13.056 6.016-19.2 2.304l-21.12-12.672c-18.816 12.032-39.552 20.608-61.312 25.472l-6.016 23.808c-1.792 7.04-8.064 11.904-15.232 11.904h-38.272c-7.168 0-13.44-4.864-15.232-11.904l-6.016-23.808c-21.76-4.736-42.624-13.312-61.312-25.472l-21.12 12.672c-6.144 3.712-14.08 2.688-19.2-2.304L600.32 848c-5.12-5.12-6.016-13.056-2.304-19.2l12.672-21.12c-12.032-18.816-20.608-39.552-25.472-61.312l-23.808-6.016c-7.04-1.792-11.904-8.064-11.904-15.232v-38.272c0-7.168 4.864-13.44 11.904-15.232l23.808-6.016c4.736-21.76 13.312-42.624 25.472-61.312l-12.672-21.12c-3.712-6.144-2.688-14.08 2.304-19.2l27.136-27.136c5.12-5.12 13.056-6.016 19.2-2.304l21.12 12.672c18.816-12.032 39.552-20.608 61.312-25.472l6.016-23.808c1.792-7.04 8.064-11.904 15.232-11.904h38.272c7.168 0 13.44 4.864 15.232 11.904l6.016 23.808c21.76 4.736 42.624 13.312 61.312 25.472l21.12-12.672c6.144-3.712 14.08-2.688 19.2 2.304l27.136 27.136c5.12 5.12 6.016 13.056 2.304 19.2l-12.672 21.12c12.032 18.816 20.608 39.552 25.472 61.312l23.808 6.016c7.04 1.792 11.904 8.064 11.904 15.232v38.272c0 7.168-4.864 13.44-11.904 15.232l-23.808 6.016c-4.736 21.76-13.44 42.496-25.472 61.312z m-158.72 10.624c62.08 0 112.256-50.304 112.256-112.256 0-62.08-50.304-112.256-112.256-112.256-62.08 0-112.256 50.304-112.256 112.256-0.128 61.952 50.176 112.256 112.256 112.256z" fill="#FFFFFF" p-id="147003"></path><path d="M657.152 705.92c0 62.08 50.304 112.256 112.256 112.256 62.08 0 112.256-50.304 112.256-112.256 0-62.08-50.304-112.256-112.256-112.256-61.952 0-112.256 50.304-112.256 112.256z m0 0" fill="#FFFFFF" opacity=".5" p-id="147004"></path></svg>