<?xml version="1.0" standalone="no"?><!DOCTYPE svg PUBLIC "-//W3C//DTD SVG 1.1//EN" "http://www.w3.org/Graphics/SVG/1.1/DTD/svg11.dtd"><svg t="1763762456503" class="icon" viewBox="0 0 1088 1024" version="1.1" xmlns="http://www.w3.org/2000/svg" p-id="171754" xmlns:xlink="http://www.w3.org/1999/xlink" width="212.5" height="200"><path d="M288 425.6a128 128 0 1 1 128-128 128 128 0 0 1-128 128z m0-160a32 32 0 0 0-32 32 32 32 0 0 0 64 0 32 32 0 0 0-32-32zM864 616.96a33.28 33.28 0 0 0-32-11.52 38.4 38.4 0 0 0-26.24 12.8 39.68 39.68 0 0 0 4.48 56.32 87.68 87.68 0 0 1 0 123.52L720 896a86.4 86.4 0 0 1-123.52 0 87.68 87.68 0 0 1 0-123.52l47.36-47.36a38.4 38.4 0 0 0 0-55.04 37.12 37.12 0 0 0-27.52-11.52 38.4 38.4 0 0 0-27.52 11.52l-47.36 47.36a165.12 165.12 0 0 0 116.48 282.24 166.4 166.4 0 0 0 117.12-48l94.08-94.72a164.48 164.48 0 0 0 0-233.6z" fill="#3894FF" p-id="171755"></path><path d="M1040 451.84a164.48 164.48 0 0 0-117.12-48.64 164.48 164.48 0 0 0-117.12 48.64l-94.08 94.08a164.48 164.48 0 0 0-48.64 117.12 161.92 161.92 0 0 0 48.64 116.48l3.84 4.48h3.2a39.04 39.04 0 0 0 25.6 10.24 39.68 39.68 0 0 0 29.44-13.44 37.76 37.76 0 0 0 9.6-28.16 40.32 40.32 0 0 0-13.44-27.52 87.04 87.04 0 0 1 0-123.52l94.08-94.08a88.96 88.96 0 0 1 123.52 0 86.4 86.4 0 0 1 0 123.52l-47.36 47.36a38.4 38.4 0 0 0-11.52 27.52 36.48 36.48 0 0 0 11.52 27.52 37.12 37.12 0 0 0 27.52 11.52 38.4 38.4 0 0 0 27.52-11.52l47.36-47.36A163.2 163.2 0 0 0 1088 568.96a166.4 166.4 0 0 0-48-117.12z" fill="#3894FF" p-id="171756"></path><path d="M438.4 832v-4.48H96v-154.24c44.8-13.44 121.6-22.4 213.12 73.6a48.64 48.64 0 0 0 35.2 14.72h3.84a50.56 50.56 0 0 0 35.84-21.76l9.6-14.72a441.6 441.6 0 0 1 279.04-223.36l3.2-4.48L768 403.2h3.2A484.48 484.48 0 0 0 335.36 640 284.8 284.8 0 0 0 96 576V121.6h896v224.64a232.96 232.96 0 0 1 96 51.2V25.6H0v896h457.6a234.24 234.24 0 0 1-19.2-89.6z" fill="#3894FF" p-id="171757"></path></svg>