<?xml version="1.0" standalone="no"?><!DOCTYPE svg PUBLIC "-//W3C//DTD SVG 1.1//EN" "http://www.w3.org/Graphics/SVG/1.1/DTD/svg11.dtd"><svg t="1763743665948" class="icon" viewBox="0 0 2082 1024" version="1.1" xmlns="http://www.w3.org/2000/svg" p-id="11104" xmlns:xlink="http://www.w3.org/1999/xlink" width="406.640625" height="200"><path d="M603.119282 225.107901l-67.957102 649.83979c0 8.494638-4.247319 12.741957-8.494638 12.741957l-4.247319-4.247319-42.473189 0 0 131.666886 123.172248 0c55.215146 4.247319 84.946378-21.236594 89.193697-76.45174L764.5174 225.107901l72.204421 0 0 645.592471c0 12.741957-4.247319 21.236594-8.494638 16.989276l-67.957102 0L760.270081 1023.603853l157.150799 0c63.709783 4.247319 97.688334-33.978551 93.441016-106.182972L1010.861896 72.204421l-229.35522 0 4.247319-63.709783-161.398118 0-4.247319 63.709783-114.67761 0 0 152.90348 0 0L603.119282 225.107901zM462.957759 174.140075 462.957759 16.989276 16.989276 16.989276 16.989276 174.140075 462.957759 174.140075zM118.924929 462.957759 0 883.442329 0 1023.603853l365.269425 0c63.709783 4.247319 93.441016-25.483913 89.193697-97.688334l0-220.860582L301.559641 705.054936l0 174.140075c0 8.494638-4.247319 12.741957-12.741957 12.741957L165.645437 891.936967l110.430291-428.979208 182.634712 0L458.71044 305.80696 8.494638 305.80696l0 152.90348L118.924929 458.71044z" p-id="11105"></path><path d="M1112.797549 216.613263c8.494638 55.215146 38.22587 80.699059 84.946378 80.699059l106.182972 0L1303.926899 174.140075 1274.195667 174.140075c-12.741957 4.247319-21.236594 0-21.236594-12.741957l-25.483913-161.398118-152.90348 0L1112.797549 216.613263zM1342.152769 382.2587l620.108558 0c67.957102 4.247319 101.935653-33.978551 101.935653-110.430291l0-271.828409-722.044211 0L1342.152769 382.2587zM1907.046182 148.656161l-407.742613 0L1499.303568 110.430291l407.742613 0L1907.046182 148.656161zM1902.798863 263.333771c0 12.741957-4.247319 16.989276-8.494638 16.989276l-395.000657 0L1499.303568 246.344496l403.495295 0L1902.798863 263.333771zM1112.797549 569.140731c8.494638 42.473189 38.22587 67.957102 93.441016 67.957102l93.441016 0 0-123.172248-33.978551 0c-12.741957-4.247319-16.989276-8.494638-16.989276-16.989276l-33.978551-140.161523-144.408842 0L1112.797549 569.140731zM1320.916175 675.323704l645.592471 0c67.957102-4.247319 106.182972-38.22587 110.430291-101.935653L2076.938937 411.989932 1320.916175 411.989932 1320.916175 675.323704zM1524.787482 569.140731l-55.215146 0 0-42.473189 55.215146 0L1524.787482 569.140731zM1724.411469 569.140731l-55.215146 0 0-42.473189 55.215146 0L1724.411469 569.140731zM1924.035457 547.904137c-4.247319 12.741957-8.494638 16.989276-12.741957 16.989276l-33.978551 0 0-42.473189 46.720508 0L1924.035457 547.904137zM1146.7761 679.571022l-29.731232 182.634712c-4.247319 16.989276-12.741957 25.483913-25.483913 25.483913L1061.829723 887.689648l0 118.924929 110.430291 0c55.215146-4.247319 89.193697-38.22587 101.935653-101.935653l25.483913-225.107901L1146.7761 679.571022zM1329.410813 806.990589l424.731889 0-80.699059 38.22587-310.054279 0 0 12.741957 127.419567 42.473189c-42.473189 4.247319-67.957102 4.247319-76.45174 4.247319l-114.67761 0 0 97.688334 254.839133 0c8.494638 0 29.731232-4.247319 63.709783-12.741957l55.215146-12.741957 38.22587 8.494638c21.236594 4.247319 42.473189 8.494638 67.957102 12.741957L2081.186256 998.119939l0-93.441016-131.666886 0c-42.473189 4.247319-67.957102 0-84.946378-8.494638l208.118626-110.430291 0-80.699059L1329.410813 705.054936 1329.410813 806.990589z" p-id="11106"></path></svg>