<?xml version="1.0" standalone="no"?><!DOCTYPE svg PUBLIC "-//W3C//DTD SVG 1.1//EN" "http://www.w3.org/Graphics/SVG/1.1/DTD/svg11.dtd"><svg t="1763756837896" class="icon" viewBox="0 0 1024 1024" version="1.1" xmlns="http://www.w3.org/2000/svg" p-id="105508" xmlns:xlink="http://www.w3.org/1999/xlink" width="200" height="200"><path d="M480 95.232l-5.418667 5.418667v194.858666l5.418667 5.504h65.109333l5.376-5.546666V100.693333l-5.376-5.418666H480zM285.44 232.746667L240.768 277.333333v8.96l68.266667 68.266667h47.274666l6.314667-6.314667V301.013333l-68.266667-68.266666h-8.96zM43.776 474.026667l-5.418667 5.418666v65.194667l5.418667 5.418667h259.84l5.418667-5.418667v-65.194667l-5.418667-5.418666h-259.84z m676.608 0l-5.418667 5.418666v65.194667l5.418667 5.418667h259.84l5.418667-5.418667v-65.194667l-5.418667-5.418666h-259.84z m-411.306667 195.413333l-68.266666 68.266667v8.96l44.586666 44.629333h8.96l68.266667-68.266667v-47.317333l-6.314667-6.229333H309.077333z m170.88 53.589333l-5.418666 5.546667v194.816l5.418666 5.418667h65.109334l5.376-5.418667v-194.858667l-5.376-5.504H480z" fill="#00BFA5" p-id="105509"></path><path d="M633.813333 647.338667h-64.981333l-5.418667-5.418667V489.813333c0-27.050667-10.624-48-43.221333-48.725333-16.810667-0.426667-36.010667 0-56.533333 0.810667l-3.072 3.157333v196.693333l-5.418667 5.461334H390.229333l-5.461333-5.418667V382.122667l5.461333-5.418667h146.133334a102.826667 102.826667 0 0 1 102.826666 102.826667v162.389333z" fill="#00897B" p-id="105510"></path></svg>