<?xml version="1.0" standalone="no"?><!DOCTYPE svg PUBLIC "-//W3C//DTD SVG 1.1//EN" "http://www.w3.org/Graphics/SVG/1.1/DTD/svg11.dtd"><svg t="1763903401816" class="icon" viewBox="0 0 1024 1024" version="1.1" xmlns="http://www.w3.org/2000/svg" p-id="10790" xmlns:xlink="http://www.w3.org/1999/xlink" width="200" height="200"><path d="M473.6 768v-76.8H172.8a38.4 38.4 0 0 1-38.4-38.4V236.8a38.4 38.4 0 0 1 38.4-38.4h678.4a38.4 38.4 0 0 1 38.4 38.4v416a38.4 38.4 0 0 1-38.4 38.4H537.6v76.8h204.8a32 32 0 0 1 0 64H281.6a32 32 0 0 1 0-64h192z m145.3888-221.312a22.368 22.368 0 0 0 21.3824-12.8832l74.4128-159.5904a22.3552 22.3552 0 0 0-40.5248-18.8928l-55.2704 118.528-55.2768-118.528a22.3552 22.3552 0 1 0-40.5248 18.8928l74.4192 159.5904a22.368 22.368 0 0 0 21.376 12.8832zM422.1632 384h60.64a22.4 22.4 0 0 0 0-44.8H316.8a22.4 22.4 0 0 0 0 44.8h60.6464v144.0448a22.3552 22.3552 0 0 0 44.7168 0V384z" fill="#5C646F" p-id="10791"></path></svg>