<?xml version="1.0" standalone="no"?><!DOCTYPE svg PUBLIC "-//W3C//DTD SVG 1.1//EN" "http://www.w3.org/Graphics/SVG/1.1/DTD/svg11.dtd"><svg t="1763762743436" class="icon" viewBox="0 0 1024 1024" version="1.1" xmlns="http://www.w3.org/2000/svg" p-id="176216" xmlns:xlink="http://www.w3.org/1999/xlink" width="200" height="200"><path d="M538.21160528 433.21305029c1.69119827-98.77223682 13.34908357-185.27446027 34.97758367-259.49882113 16.66869778-57.23390386 40.03548167-102.95118226 77.5871376-144.65431783 19.85489972-22.04443203 50.84580636-41.56579874 79.05467396-32.35249966 25.97617271 8.48345712 25.01874262 56.24900797 21.57356377 86.83575484-10.50033761 93.33764483-27.3966219 146.59664542-48.43261212 190.78752977-25.72504341 54.0320083-40.65153278 94.47949733-88.16987733 184.49360496" fill="#bfbfbf" p-id="176217"></path><path d="M546.22419572 431.78475351c3.38239652-97.73632922 16.38617808-182.99860126 38.97602971-255.77112259 17.73599734-57.14365419 41.55795116-100.22800097 77.46942056-138.72923939 21.33028208-22.8684483 47.53011675-34.663672 67.14958233-27.87533776 13.43933328 4.64981369 17.46917127 34.39684751 12.23469843 74.55396927-10.869184 83.41411877-26.30970258 137.32448543-50.61821983 186.18087863a1803.82934529 1803.82934529 0 0 0-16.68831752 34.54203036l-4.38691222 9.29962737c-28.29911727 60.1689765-41.36960416 86.49437583-70.08073037 138.65468492a11.77167936 11.77167936 0 1 0 20.62398125 11.34789982c29.00149349-52.68611204 42.26425196-79.39997595 70.75956382-139.98488595l4.36729401-9.26823544a1826.58400113 1826.58400113 0 0 1 16.48035075-34.09863107c25.53669644-51.3245222 41.69921099-107.74225581 52.89015426-193.63627572 2.62116099-20.09033228 3.29606985-38.84261746 1.13792948-54.79324225-3.09987526-22.91553543-11.99926432-39.16045367-29.02111327-45.04629256-30.35131274-10.5042622-65.07384251 5.13245253-92.05845549 34.06331453-38.45415289 41.23226892-63.99869692 87.42433857-82.73920992 147.81305245-23.24906686 74.91104346-36.57068305 162.21374038-40.02370952 261.93948273a11.77167936 11.77167936 0 1 0 23.52766354 0.81224567z" fill="#524F75" p-id="176218"></path><path d="M549.15534377 814.02294972l58.58372314-12.25824122c49.99824572-10.46894724 99.01551855 21.58141136 109.48054118 71.57965707 1.30665673 6.2311425 1.96194577 12.58392503 1.96194736 18.95240435 0 62.88038721-50.97529559 113.8596058-113.85960581 113.85960421h-53.16090331c-48.18540736 0-87.24776221-39.06235638-87.24776375-87.25168519v-1.18501664c0-50.14735315 35.15808148-93.42396995 84.24206119-103.69672258z" fill="#FAF1E1" p-id="176219"></path><path d="M551.56461345 825.54349977C507.93484703 834.67832292 476.68496193 873.14424642 476.68496193 917.7235969v1.18109204c0 41.68351581 33.79256702 75.47608285 75.4760844 75.47608284h53.16090331c56.3824202 0 102.08792645-45.70550621 102.08792645-102.08792646 0-5.56015665-0.57288854-11.10069353-1.71474262-16.53921009-9.13089858-43.63761557-51.90918132-71.61104902-95.54679534-62.4762243l-58.58372468 12.26608884z m-4.82246392-23.04502313l58.58372313-12.26216578c56.36280045-11.79129913 111.61906334 24.33598462 123.41428548 80.69878505 1.47145934 7.02376839 2.20915207 14.18094902 2.20915208 21.36167401 0 69.38227719-56.24900797 125.63128515-125.63128515 125.63128358h-53.15697874c-54.68729738 0-99.01944155-44.33606719-99.01944312-99.02336456v-1.18501664c0-55.71928197 39.06627939-103.7987429 93.60054632-115.22119566z" fill="#524F75" p-id="176220"></path><path d="M525.92589669 960.16050064c61.21273172-12.23077543 105.22704125-19.28985877 132.05077305-21.17332703 22.79781838-1.60094858 51.62666165-0.76123552 86.49830043 2.51913914A42.22501397 42.22501397 0 0 1 782.74862209 983.54690275c0 20.85941539-16.91197949 37.77139487-37.77139488 37.77139488h-218.61970183a27.79293408 27.79293408 0 0 1-27.79293563-27.79293408 34.03192416 34.03192416 0 0 1 27.36130694-33.36486291z" fill="#FAF1E1" p-id="176221"></path><path d="M510.3401937 993.52536355A16.02125472 16.02125472 0 0 0 526.36144842 1009.54661828h218.61970338a25.99971551 25.99971551 0 0 0 25.99579094-25.99971553 30.45725764 30.45725764 0 0 0-27.6045871-30.3238454c-34.27913044-3.22543993-62.49976864-4.04553319-84.57166805-2.4995209-26.19591009 1.84423027-69.81390589 8.8366067-130.56754153 20.98105701a22.24847418 22.24847418 0 0 0-17.89295236 21.82077009z m146.81245977-66.28240193c23.51589135-1.6558833 52.96470874-0.7965505 88.42492964 2.53875889A54.00061634 54.00061634 0 0 1 794.52030145 983.54690275c0 27.36130697-22.17784427 49.54307424-49.54307424 49.54307424h-218.61970183c-21.84823745 0-39.56461345-17.71637758-39.56461499-39.56461344a45.79575593 45.79575593 0 0 1 36.82181236-44.90503272c61.67182778-12.32887269 106.08637405-19.45073839 133.53793072-21.37736921z" fill="#524F75" p-id="176222"></path><path d="M770.196089 971.70459346h-35.25225574a11.77560238 11.77560238 0 0 0 0 23.54335874h35.25225574a11.77167936 11.77167936 0 0 0 0-23.54335874z" fill="#524F75" p-id="176223"></path><path d="M617.94511264 765.80615196l76.27655791-11.061454c20.3963963-2.3621841 38.83869444 12.30532834 41.19302938 32.76058242 0.16087963 1.41652618 0.24328171 2.84482294 0.24328171 4.26919512 0 20.5886663-16.645155 37.27698384-37.17888655 37.27698545a37.78709005 37.78709005 0 0 1-4.26134756-0.24328174l-70.59868419-6.04672008" fill="#FAF1E1" p-id="176224"></path><path d="M619.6363109 777.45618966l76.28048093-11.06145397c13.58844227-1.5656336 26.19591009 8.45598974 27.80470783 22.45251635 0.11379248 0.9731253 0.16872721 1.95017517 0.1687272 2.92722346 0 14.09462389-11.37929022 25.5053045-25.40720877 25.50530608-0.96920228 0-1.938403-0.05493474-2.90368068-0.1687272l-70.9518338-6.08203505a11.76383177 11.76383177 0 0 0-12.72910947 10.72399956 11.76383177 11.76383177 0 0 0 10.72007497 12.72910945l70.59868578 6.0467201c1.51854646 0.18442241 3.39024412 0.29036886 5.2658632 0.29036727 27.04347074 0 48.95056592-21.96595293 48.95056748-49.0486632 0-1.87954525-0.10594489-3.75124133-0.32175923-5.6190144-3.09595226-26.90221089-27.37700215-46.21168943-54.23605047-43.10004198l-76.6179369 11.10461654a11.77167936 11.77167936 0 0 0 3.37847193 23.30007699z" fill="#524F75" p-id="176225"></path><path d="M219.66996496 836.89532258h7.84778627c27.08663329 0 49.04866321 21.96202991 49.0486632 49.0486632s-21.96202991 49.04866321-49.0486632 49.0486648h-7.84778627c-27.08663329 0-49.04866321-21.96202991-49.04866319-49.0486648s21.96202991-49.04866321 49.04866319-49.0486632z" fill="#FAF1E1" p-id="176226"></path><path d="M219.66996496 848.66700195a37.27698384 37.27698384 0 0 0 0 74.55396928h7.84778627a37.27698384 37.27698384 0 0 0 0-74.55396928h-7.84778627z m0-23.54335872h7.84778627c33.59244943 0 60.82034257 27.22789471 60.82034255 60.82034255s-27.22789471 60.82034257-60.82034255 60.82034257h-7.84778627c-33.59244943 0-60.82034257-27.22789471-60.82034257-60.82034257s27.22789471-60.82034257 60.82034257-60.82034255z" fill="#524F75" p-id="176227"></path><path d="M628.74366672 746.43389108h85.60365106c12.84290194 0 25.61909855-1.75005601 37.98720923-5.21093005 74.78155422-20.92219772 114.41679759-95.69198133 108.27198177-170.45391421l-6.93744327-36.49220554c-24.15548523-85.85870497-110.38303657-150.07713924-178.31347262-172.16865681s-123.22986151-23.8415736-192.706313-9.01318312-166.28674095 76.15884085-186.1926508 186.69098488l-0.99666807 5.52876627a170.64618578 170.64618578 0 0 0-2.69963852 30.20612831c0 40.3572409 31.02622317 96.39043295 63.90059805 127.53437318-53.16482788 21.83254068-105.78815762 63.13936411-122.76291942 120.63224486a107.88744022 107.88744022 0 0 0-4.41830258 30.56320254c0 59.76089215 48.58171954 108.20919945 108.50741435 108.20919944h236.44987343c11.20271541 0 22.33872388-1.76575119 32.98424594-5.23839742 55.73497717-18.16762447 86.14907225-77.95205941 67.93043603-133.53008153a200.80130396 200.80130396 0 0 0-46.60800158-77.2575308z" fill="#bfbfbf" p-id="176228"></path><path d="M686.54261152 820.02258265c20.2433643 61.76992509-13.55312731 128.20928204-75.47215824 148.385941a118.24259342 118.24259342 0 0 1-36.63346695 5.81913352h-236.44987343C271.5673757 974.2315802 217.70801919 920.52133271 217.70801919 854.25462597c0-11.47738748 1.64803569-22.89199264 4.90094145-33.8985119 15.240401-51.61488947 58.18348637-94.416715 113.93416028-121.22475322-31.40684015-35.47984069-55.55055477-86.29818127-55.55055477-123.61048004 0-10.82994445 0.96527771-21.6363461 2.8840625-32.28971573l0.99274349-5.53268929c9.73910209-54.08694146 37.52811316-100.23977316 78.33267795-135.99821051 34.62835707-30.34346514 77.29677035-51.64628141 116.98694844-60.11796638 72.73328177-15.52292068 130.02212035-13.03909651 198.8079678 9.33101775 82.69212279 26.8943633 163.0926914 98.73692187 186.00430226 180.17339811l7.28274686 38.0931541c6.96491065 84.6972327-39.51360326 161.76249191-116.77898325 183.37529681a152.78070078 152.78070078 0 0 1-41.15771442 5.64648176h-60.0787268a212.54159293 212.54159293 0 0 1 32.27402054 61.82093522z m155.65691567-283.04217984c-20.76524269-72.94517311-94.90720143-139.10201036-170.48530772-163.67735213-64.77562763-21.06738213-117.86197643-23.37070691-186.60858277-8.69534686-35.77413257 7.63589647-74.79332641 27.11017764-106.38458895 54.79716684-36.9513016 32.38389003-61.9268801 73.86336366-70.67716169 122.46470297l-0.99666964 5.52876471a158.65476905 158.65476905 0 0 0-2.51129155 28.12254247c0 34.79708428 27.51041439 88.00115012 60.22391125 118.98813374l13.21567131 12.51721969-16.84134801 6.91782352c-57.24960063 23.50804375-101.58959239 64.44994383-115.94711778 113.07482591a96.18639079 96.18639079 0 0 0-3.93566373 27.2278947C241.25137791 907.50185438 284.55546207 950.68822148 337.9871129 950.68822148h236.44987343c9.96668862 0 19.86667035-1.57348118 29.33894947-4.66158429 49.5548464-16.15074395 76.58654495-69.28025689 60.39656145-118.6702991a188.95507167 188.95507167 0 0 0-43.88874329-72.73328176l-19.32517373-19.96084459h113.38873755c11.77167936 0 23.48057638-1.60487157 34.81670403-4.77930137 65.54471075-18.34027626 105.52525614-84.36762586 99.7532097-157.53645934l-6.71770432-35.36604822z" fill="#524F75" p-id="176229"></path><path d="M606.84834372 797.65639138c26.73740669 0 48.64842645 21.23610935 49.48421491 47.96567004l0.81224568 26.02718287c1.0594504 33.91028409-25.5720114 62.25648693-59.47837092 63.31593892-0.63567087 0.01961979-1.27918933 0.03139037-1.91486021 0.03139038-28.89554861 0-52.32119026-23.42564165-52.32119026-52.32119028 0-3.32746179 0.31391164-6.64315141 0.94565951-9.90782927l5.39927703-27.98913023A58.12070404 58.12070404 0 0 1 606.84834372 797.65639138zM684.90242498 581.84227297h62.66849586c30.33954058 0 54.93450366 24.59496154 54.93450368 54.93450212 0 3.70023117-0.37669397 7.39653775-1.11830971 11.0300636l-0.15303204 0.74161575a83.44943373 83.44943373 0 0 1-81.75823546 66.70618302h-6.05456767a84.3401585 84.3401585 0 0 1-82.47238544-66.70618302c-6.36847774-29.79804398 12.62316457-59.11737371 42.42120856-65.48585144a55.06006833 55.06006833 0 0 1 11.53232222-1.22033003z" fill="#FFFFFF" p-id="176230"></path><path d="M740.3509579 589.69005921c7.10224589 0.05493474 15.29533573 1.43614437 24.58711392 4.15540268 9.66062459 2.71925828 17.81055026 8.48345712 17.81055027 19.10935938 0 0.76123552-0.05101015 1.53031865-0.14910744 2.29155258-1.61272075 12.2857086-13.00378154 21.53040123-26.5372891 21.53040124h-23.7434763c-14.49878524 0-27.24751292-8.78167199-31.25380971-21.53040124-2.81343099-8.95824835 2.85267054-18.29711371 12.63885978-20.87511058 2.70748611-0.71807298 12.83897892-4.77930133 26.64715858-4.68120406z" fill="#8B674F" p-id="176231"></path><path d="M724.35324594 603.48646668c-2.20915207 0.56896395-7.44754948 2.2130751-7.64374406 2.2640868-3.50011202 0.92211515-5.14422314 3.63744885-4.41045498 5.96824099 2.41711882 7.7026018 10.52780498 13.29022582 20.02362536 13.29022583h23.74347787c7.80462368 0 14.04753677-5.06574561 14.86370703-11.29296351a5.45421177 5.45421177 0 0 0 0.05101016-0.75731251c0-3.42163451-2.59761663-5.91330626-9.34278993-7.8124713-8.30688229-2.42888943-15.45229075-3.63352426-21.36559702-3.68061138a61.2990584 61.2990584 0 0 0-15.91923443 2.02080508z m43.77887543-20.97713245c15.71126767 4.43007475 26.38818166 14.65966485 26.38818008 30.44548704 0 1.27526476-0.0824021 2.55445408-0.24720474 3.82187123-2.40534666 18.34812386-18.95240436 31.77568651-38.20694658 31.77568651h-23.74347787c-19.50959613 0-36.89244228-11.9796461-42.48398932-29.7784242-4.88917081-15.57785542 4.78714893-31.54809999 20.87118599-35.78590473a149.57880364 149.57880364 0 0 1 7.77715632-2.30332635 84.79925298 84.79925298 0 0 1 21.95418232-2.76242085c8.28333795 0.05885775 17.53195359 1.62056834 27.6909138 4.58703135z" fill="#524F75" p-id="176232"></path><path d="M723.90199746 512.62479843a60.27099837 60.27099837 0 1 0 120.54199677 0 60.27099837 60.27099837 0 1 0-120.54199677 0Z" fill="#FFFFFF" p-id="176233"></path><path d="M784.17299586 584.67139916C744.38079588 584.67139916 712.11854751 552.4130738 712.11854751 512.62479843S744.38079588 440.58212226 784.17299586 440.58212226s72.05444834 32.25440079 72.05444833 72.04267617c0.00392459 39.78827538-32.25832535 72.04660075-72.05444833 72.04660073z m0-23.54335871c26.79234141 0 48.51108961-21.71482363 48.51108961-48.49931744S810.96533728 464.1254794 784.17299586 464.1254794 735.66190622 485.84030459 735.66190622 512.62479843s21.7187482 48.50324202 48.51108964 48.50324202z" fill="#524F75" p-id="176234"></path><path d="M799.22504987 531.4751809a19.37618387 19.37618387 0 1 0-4.70867144-13.05871628l14.36537142 2.087512-9.65669998 10.97120428z" fill="#232323" p-id="176235"></path><path d="M598.33741924 513.51552162a65.08561469 65.08561469 0 1 0 130.17122936 0 65.08561469 65.08561469 0 1 0-130.17122936 0Z" fill="#FFFFFF" p-id="176236"></path><path d="M663.42303391 590.37281568C620.970435 590.37281568 586.55396928 555.96027453 586.55396928 513.5115986 586.55396928 471.06684725 620.970435 436.65822914 663.42303391 436.65822914c42.45259894 0 76.86906623 34.40861811 76.86906622 76.85336946 0 42.44867591-34.41646572 76.86121707-76.86906622 76.86121708z m0-23.54335875c29.45274196 0 53.3257075-23.87296553 53.32570751-53.31393531S692.87577587 460.20158627 663.42303391 460.20158627 610.09732641 484.07062882 610.09732641 513.5115986s23.87296553 53.3178599 53.3257075 53.31785833z" fill="#524F75" p-id="176237"></path><path d="M668.4142266 537.22368453a20.52196096 20.52196096 0 0 0 15.56215866 7.11794109 20.55335135 20.55335135 0 1 0 0-41.10670269 20.55727593 20.55727593 0 0 0-20.55335135 20.1374194l15.24432401 2.2130751-10.25313132 11.6382671z" fill="#232323" p-id="176238"></path><path d="M731.73801311 652.47234754v27.46725185a11.77560238 11.77560238 0 0 0 23.54335714 0v-27.46725185a11.77560238 11.77560238 0 0 0-23.54335714 0z" fill="#524F75" p-id="176239"></path><path d="M485.78054714 876.46386061c1.25564654 6.04671851 1.88739286 12.20723107 1.88739126 18.38343881 0 61.64043584-50.28076542 111.60729116-112.30966738 111.60729117h-55.95471454C271.90875471 1006.45459059 233.40359168 968.18878469 233.40359168 920.98827477v-3.84933861c0-32.68602947 15.87214729-62.2839543 41.01252999-80.73802459" fill="#bfbfbf" p-id="176240"></path><path d="M474.25607249 878.85351209c1.09476693 5.26586478 1.64411111 10.62197926 1.64411113 15.99378733 0 55.12285063-44.99528241 99.83561181-100.53798801 99.83561182H319.40355648C278.39102493 994.68291124 245.17527104 961.67119952 245.17527104 920.98827477v-3.84933861c0-28.31088789 13.5688225-54.63628721 36.20576125-71.24612722a11.77167936 11.77167936 0 1 0-13.92589668-18.97987016C238.82248691 847.92538618 221.63191232 881.26278173 221.63191232 917.13501316v3.84933861c0 53.71809667 43.79064603 97.23799517 97.77164416 97.23799361h55.95863913c68.51117377 0 124.08134673-55.22094795 124.08134673-123.37896895 0-6.97668125-0.71414837-13.94551648-2.13459757-20.77701487a11.77167936 11.77167936 0 0 0-23.05287228 4.78715053z" fill="#524F75" p-id="176241"></path><path d="M417.82656671 746.64578241m-15.69557248 0a15.69557249 15.69557249 0 1 0 31.39114338 0 15.69557249 15.69557249 0 1 0-31.39114338 0Z" fill="#524F75" p-id="176242"></path><path d="M293.89040283 961.47500494c61.4834808-12.05419905 105.67828816-19.01126209 132.58049905-20.85941698 22.96654559-1.58132878 52.06221334-0.73769116 87.28307872 2.53875893A41.31859403 41.31859403 0 0 1 551.23893121 984.29244307 37.02585452 37.02585452 0 0 1 514.2130751 1021.31829763H294.29848874a27.23966532 27.23966532 0 0 1-27.23966687-27.23966531 33.21967847 33.21967847 0 0 1 26.83158096-32.60362738z" fill="#FAF1E1" p-id="176243"></path><path d="M278.83050122 994.07863232A15.46406293 15.46406293 0 0 0 294.29848874 1009.54661828h219.91458636A25.25417519 25.25417519 0 0 0 539.46725184 984.29244307a29.53906708 29.53906708 0 0 0-26.80803818-29.41742698c-34.64012766-3.22151692-63.12759193-4.05338079-85.38391371-2.52306371-26.2861598 1.81283834-70.08465497 8.70319446-131.12473488 20.67106841a21.4519237 21.4519237 0 0 0-17.32006385 21.05561153z m146.82815497-65.21117934c23.67677095-1.63233897 53.37671766-0.76515854 89.18224218 2.56230168C542.13549841 933.97243813 563.01061055 956.8762014 563.01061055 984.29244307 563.01061055 1011.24566411 541.16237311 1033.08997699 514.2130751 1033.08997699H294.29848874c-21.54609641 0-39.01134467-17.46524826-39.01134623-39.01134467 0-21.51078145 15.22470581-40.01586192 36.33917351-44.15556937 61.93080469-12.14444874 106.51800118-19.16036954 134.03234017-21.05560997z" fill="#524F75" p-id="176244"></path><path d="M538.68639653 972.45798142h-35.25225574a11.77167936 11.77167936 0 1 0 0 23.54335871h35.25225574a11.77560238 11.77560238 0 0 0 0-23.54335871z" fill="#524F75" p-id="176245"></path><path d="M354.3536712 716.83204167c7.01984539 5.72888386 11.88939642 9.67239675 14.64789268 11.85800605 6.37632692 5.05789802 12.09736159 8.55408705 17.42208571 10.45325049a11.77167936 11.77167936 0 1 0 7.91841614-22.16999513c-2.52698673-0.89857078-6.18013233-3.13519022-10.71222738-6.7294765a1485.49567017 1485.49567017 0 0 1-14.38891577-11.65396388 11.77167936 11.77167936 0 1 0-14.88725138 18.24217897z" fill="#524F75" p-id="176246"></path><path d="M437.87765945 483.44673012l-3.67276382-4.8970184m-17.88510476-24.48901666c-47.45556223-62.92747278-84.13611474-123.79882706-110.04165758-182.61798429-24.01814996-54.53426535-34.99720187-109.85331059-32.93323422-165.94928652 1.08691777-29.66463173 19.61946558-55.9586391 47.27113984-67.07895241 25.46606651-10.24136071 54.60881986-2.74672566 71.83471099 18.4736885 56.13129091 69.16253983 92.01529294 140.62055682 100.9931595 186.05923858 9.11912799 46.17637447 19.07011983 90.13967228 35.64856948 166.58495739" fill="#bfbfbf" p-id="176247"></path><path d="M447.64815346 476.28170033l-3.66884078-4.89309383a11.77167936 11.77167936 0 1 0-18.83076271 14.12993885l3.67668839 4.89309384a11.76775478 11.76775478 0 1 0 18.8229151-14.12601428z m-21.57356375-29.40957784c-46.92976083-62.22902115-83.13944668-122.32736615-108.65652335-180.27149696-23.3079246-52.93331835-33.94167445-106.4787632-31.94833832-160.77366986 0.92211515-25.01089503 16.55882831-47.19658532 39.90599244-56.58253938 20.68676359-8.3186529 44.33214417-2.23661942 58.30120343 14.96965191 51.98373585 64.04970706 89.41375171 134.46004428 98.58388986 180.91501543 0.46301908 2.3621841 0.93781033 4.73613879 1.41260158 7.12186566 1.55778601 7.76930871 3.17835278 15.69557249 4.91663819 24.02992059 3.40593931 16.34301395 7.06300791 33.35309072 12.71733729 59.29002549l7.70260338 35.27579853c3.35492915 15.37773625 6.09380564 27.96951045 8.9425516 41.08315989a11.77167936 11.77167936 0 1 0 23.00578512-4.98334352c-2.84482294-13.12542163-5.58762401-25.73289101-8.94647619-41.11455186l-7.70260179-35.27579853a6272.93167438 6272.93167438 0 0 1-12.66632715-59.07813414c-1.72651322-8.27941493-3.33530939-16.14289636-4.88132321-23.85334576-0.47479125-2.3621841-0.94173491-4.71651904-1.404754-7.05908493-10.00592658-50.68492673-49.18600004-124.39918295-103.39458157-191.18776652-20.49056901-25.23847999-55.11892607-34.14571821-85.37214311-21.98557269-31.96010892 12.85467411-53.38456525 43.25307399-54.64805781 77.5675194-2.12674998 57.9048897 9.20152851 114.98968612 33.92597925 171.12882463 26.29400737 59.69810983 63.43757898 121.34247026 111.41109659 184.95662402a11.76775478 11.76775478 0 1 0 18.79544777-14.1731014z" fill="#524F75" p-id="176248"></path><path d="M354.65973523 148.58954164a28.46391993 28.46391993 0 0 1 36.04488168 11.78737456c29.54691468 50.91251326 47.73415889 90.22599738 54.58135248 117.94045553 7.36514737 29.82943593 21.18902222 78.39153571 41.46377844 145.67845328a14.54194779 14.54194779 0 0 1-7.60057993 17.28867346 18.21863618 18.21863618 0 0 1-20.41994068-3.15088541c-48.91525097-46.09397237-82.72743775-90.38687699-101.44440798-132.88656309-16.4685786-37.38685332-25.17177466-77.33208529-26.11350797-119.83961896a39.24677881 39.24677881 0 0 1 23.48842396-36.81788937z" fill="#1296db" p-id="176249"></path><path d="M520.76205379 652.77056401c18.99948992-13.30199801 45.18755242-8.68357469 58.4895504 10.31591522 1.21640701 1.72651322 2.29155417 3.55112374 3.22936296 5.438515l67.428179 136.06099285a21.49116167 21.49116167 0 0 1-6.92567109 27.13764503 21.00067522 21.00067522 0 0 1-27.56142455-3.05671275l-101.78578699-111.748551c-15.98593977-17.54765036-14.72244719-44.73238092 2.82520316-60.71047466 1.36551444-1.23602678 2.7977358-2.38965147 4.30058711-3.43732969z" fill="#FF7E3C" p-id="176250"></path><path d="M525.25883543 659.20182407a35.11884351 35.11884351 0 0 0-5.81521052 52.43105974l101.78578697 111.744628a13.1371938 13.1371938 0 0 0 17.24943391 1.91485863 13.62768025 13.62768025 0 0 0 4.39868436-17.21804196l-67.42817898-136.06491743a34.14571821 34.14571821 0 0 0-50.19051574-12.80758698z m-9.00141091-12.86252169c22.54668907-15.78582218 53.63569456-10.30806762 69.42543975 12.24254758 1.43614437 2.05219547 2.71925828 4.21426039 3.82972042 6.45872744l67.42817743 136.06099285a29.32717731 29.32717731 0 0 1-9.46050541 37.0493989 28.83276629 28.83276629 0 0 1-37.85771998-4.20641439l-101.78578698-111.73677882c-18.90139263-20.75739509-17.40638894-52.9019264 3.34707999-71.80331905 1.60487157-1.46753632 3.29606985-2.82520318 5.07359478-4.06515451z" fill="#524F75" p-id="176251"></path><path d="M422.02513193 624.27132915a20.04324513 20.04324513 0 0 1 29.00934107-6.67846638l58.59941989 40.9811396-6.34885955 14.03184159-70.86943327-22.26416939a18.10876673 18.10876673 0 0 1-10.39046814-26.07034542z" fill="#62CCA3" p-id="176252"></path><path d="M446.09036747 624.40474138a12.19938348 12.19938348 0 0 0-17.57904075 4.37514002 10.2570559 10.2570559 0 0 0 6.13696821 14.6557403l71.24612724 21.02421956-9.42126743 4.41830416 6.10165483-14.13386345 2.81735398 9.61353742-59.30179608-39.95307801z m6.31746757-14.48309003c0.84363762 0.44732389 1.6598063 0.93781033 2.45243379 1.47145933l64.70499772 43.594453-11.43422494 26.49804955-77.92066902-22.99008994a25.94870538 25.94870538 0 0 1-15.54646505-37.10433207 27.89888052 27.89888052 0 0 1 37.74785209-11.46953987z" fill="#524F75" p-id="176253"></path><path d="M521.7234069 549.28180816a20.03932212 20.03932212 0 0 0-16.19783108 24.97165548l18.46584089 69.07621316 15.35419349-1.1653953 3.31961418-74.20866724a18.10091913 18.10091913 0 0 0-20.94181748-18.67773069z" fill="#62CCA3" p-id="176254"></path><path d="M535.70031375 569.22303299c0-0.41593195-0.02354278-0.83186545-0.07455294-1.24387439a12.19938348 12.19938348 0 0 0-13.3883231-10.88095615 10.24136071 10.24136071 0 0 0-8.71496666 13.29022583l22.41327682 70.81842313-8.930781-5.3443423 15.13053154-2.84482293-6.39594512 7.71437398-0.03923954-71.50902717z m-15.0755968-27.7380009a27.88710836 27.88710836 0 0 1 30.76724626 27.73407632l0.03923797 78.01876631-28.3658226 5.33257013-24.50471186-77.4498008a25.94478079 25.94478079 0 0 1 22.06405023-33.63561196z" fill="#524F75" p-id="176255"></path><path d="M454.37762999 570.02743107a25.86630327 25.86630327 0 0 1 39.52145088 8.7738244l33.30208057 68.33459737-11.49700569 10.23351313-60.87135426-47.02393352a25.70149906 25.70149906 0 0 1-0.4551715-40.31800138z" fill="#62CCA3" p-id="176256"></path><path d="M486.83214992 582.25035732a18.01459245 18.01459245 0 0 0-30.42979026-3.14696241 17.85371284 17.85371284 0 0 0 3.21759233 25.03443784l55.7192804 43.04903183 2.19345689-1.95409976-30.70053936-62.9824075z m-37.3947009-18.32458106a33.7140895 33.7140895 0 0 1 51.50109699 11.44992012l35.91146941 73.67501667-20.81232983 18.51292806-66.01557742-51.00276296a33.5492853 33.5492853 0 0 1-0.58858373-52.63117731z" fill="#524F75" p-id="176257"></path><path d="M505.4392507 756.71449132l77.07703139 1.00451727c20.51411337 0.85933281 36.43334779 18.23040679 35.5583198 38.7955303a37.75569968 37.75569968 0 0 1-0.42378111 4.26134755c-3.21759233 20.33361398-22.27201696 34.21242355-42.55069623 30.99875579a37.72823232 37.72823232 0 0 1-4.16717484-0.91034296l-68.78584585-17.01399979" fill="#FAF1E1" p-id="176258"></path><path d="M504.89382951 769.43182863l77.07703142-0.341379c13.67869198 0.34137902 24.76761331 12.01888409 24.41053912 26.10173737-0.02354278 0.9809729-0.10202186 1.95409819-0.23935714 2.92330045-1.96194577 13.95728708-14.82054447 23.66892336-28.70720162 21.71874821a24.6969834 24.6969834 0 0 1-2.85659512-0.57288855l-69.40974456-15.89569006a11.77167936 11.77167936 0 1 0-5.25409261 22.94692583l69.07229014 15.81721255c1.47538391 0.39238916 3.31568961 0.75731094 5.17561509 1.02021242 26.77272322 3.7630135 51.52463978-14.94610913 55.29550087-41.76199334 0.25897691-1.85992547 0.41200893-3.73162155 0.45909607-5.61116679 0.68275799-27.07093809-20.67499298-49.5705416-47.70669154-50.23367984l-77.41841198 0.33745442a11.77167936 11.77167936 0 0 0 0.10202186 23.55120633z" fill="#524F75" p-id="176259"></path></svg>