<?xml version="1.0" standalone="no"?><!DOCTYPE svg PUBLIC "-//W3C//DTD SVG 1.1//EN" "http://www.w3.org/Graphics/SVG/1.1/DTD/svg11.dtd"><svg t="1763760990755" class="icon" viewBox="0 0 1024 1024" version="1.1" xmlns="http://www.w3.org/2000/svg" p-id="131292" xmlns:xlink="http://www.w3.org/1999/xlink" width="200" height="200"><path d="M363.618011 557.228617c-11.922286-8.61184-25.842834-10.596937-41.739702-5.961143l-32.800183 11.922286c23.856274 1.988023 39.424 6.313691 46.709028 12.914103 6.623817 7.31136 10.279497 22.523611 10.940709 45.727451v2.985692l11.922286 17.905371 10.929005-6.980754c3.974583-2.619977 6.306377-5.295543 6.955886-7.94624 3.322149-7.950629 4.9664-19.232183 4.9664-33.783223 0-15.918811-5.961143-28.17024-17.883429-36.783543z" fill="#EA571B" p-id="131293"></path><path d="M906.971429 0H117.028571C52.395154 0 0 52.395154 0 117.028571v789.942858c0 64.633417 52.395154 117.028571 117.028571 117.028571h789.942858c64.633417 0 117.028571-52.395154 117.028571-117.028571V117.028571c0-64.633417-52.395154-117.028571-117.028571-117.028571z m-105.08288 381.330286l-14.903589 179.872914c-1.985097 29.167909-1.653029 55.023909-13.573851 77.546057-3.976046 7.283566-6.954423 16.888686-8.942446 28.813897-1.323886 7.283566-2.97984 17.55136-4.967863 30.797532-7.283566 39.084617-18.904503 60.279954-20.228389 63.591863-17.884891 61.625783-62.265051 99.733211-133.162422 114.30912-90.095909 16.555154-167.959406 7.285029-233.545143-27.820618-65.5872-35.13344-106.677394-81.852709-123.225235-140.141714-6.62528-21.1968-7.298194-51.665189-1.98656-91.435886 1.323886-5.956754 5.298469-13.266651 11.922286-21.85216 9.284754-12.586423 14.57152-19.899246 15.896869-21.885805-19.22048-0.639269-32.800183-3.311909-40.747886-7.94624-7.949166-4.613851-13.910309-12.917029-17.884891-24.840777-3.976046-15.896869-2.981303-33.130789 2.97984-51.663726 5.962606-17.898057 14.905051-31.157394 26.827337-39.757532 19.883154-13.920549 40.747886-20.210834 62.6176-18.888411 21.208503 0.662674 39.091931 9.286217 53.666377 25.84576 7.298194 8.598674 15.566263 23.844571 24.839314 45.717211 0.662674 1.983634 5.310171 8.93952 13.922012 20.864732l5.961142-1.988023v-31.792274c-7.950629-127.212983-13.259337-222.962834-15.908571-287.212983-0.652434-21.871177 2.991543-37.766583 10.940709-47.703772 8.598674-9.286217 22.851291-13.923474 42.734445-13.923474 19.871451-0.648046 35.76832 4.637257 47.703772 15.910034 11.259611 11.261074 17.220754 27.169646 17.883428 47.702309l7.949166 313.04704c0.661211 3.97312 3.97312 10.267794 9.937189 18.876709 5.295543-12.57472 7.947703-19.21024 7.947702-19.871452V203.445394c-0.662674-27.179886 6.291749-45.38368 20.866195-54.669897 13.268114-7.947703 34.134309-8.942446 62.619063-2.97984 30.471314 7.298194 45.728914 27.488549 45.728914 60.632503l-7.950629 321.98656c0 1.985097 2.320091 7.61856 6.955886 16.890149 5.298469-8.61184 7.950629-13.579703 7.950629-14.903589l18.87232-264.347063c3.31776-35.781486 20.206446-52.671634 50.674834-50.685074 45.730377 1.988023 68.251063 19.871451 67.584 53.664914-0.007314 7.947703-2.63168 45.374903-7.953554 112.296229z" fill="#EA571B" p-id="131294"></path></svg>