<?xml version="1.0" standalone="no"?><!DOCTYPE svg PUBLIC "-//W3C//DTD SVG 1.1//EN" "http://www.w3.org/Graphics/SVG/1.1/DTD/svg11.dtd"><svg t="1763841974490" class="icon" viewBox="0 0 1024 1024" version="1.1" xmlns="http://www.w3.org/2000/svg" p-id="7245" xmlns:xlink="http://www.w3.org/1999/xlink" width="200" height="200"><path d="M433.92 549.12a135.04 135.04 0 1 0-131.84 0A200.32 200.32 0 0 0 192 669.44a16 16 0 0 0 9.6 20.48 16 16 0 0 0 20.48-10.24 159.36 159.36 0 0 1 145.92-112.64A157.44 157.44 0 0 1 512 679.68a16 16 0 0 0 15.36 10.88h5.12a16 16 0 0 0 9.6-20.48 200.32 200.32 0 0 0-108.16-120.96zM264.96 432a103.04 103.04 0 1 1 103.04 103.04 103.04 103.04 0 0 1-103.04-103.04z" fill="#1B213F" p-id="7246"></path><path d="M883.2 124.16H147.84A110.72 110.72 0 0 0 37.12 234.24v519.04a110.72 110.72 0 0 0 110.72 110.72H883.2a110.72 110.72 0 0 0 110.08-110.08V234.24a110.72 110.72 0 0 0-110.08-110.08z m46.08 629.76a46.72 46.72 0 0 1-46.08 46.08H147.84a46.72 46.72 0 0 1-46.72-46.08V234.24a46.72 46.72 0 0 1 46.72-46.08H883.2a46.72 46.72 0 0 1 46.08 46.08z" fill="#1B213F" p-id="7247"></path><path d="M786.56 365.44H632.32a16 16 0 0 0 0 32h154.88a16 16 0 0 0 0-32zM786.56 522.88h-90.24a16 16 0 0 0 0 32h90.88a16 16 0 0 0 0-32z" fill="#1B213F" p-id="7248"></path></svg>