<?xml version="1.0" standalone="no"?><!DOCTYPE svg PUBLIC "-//W3C//DTD SVG 1.1//EN" "http://www.w3.org/Graphics/SVG/1.1/DTD/svg11.dtd"><svg t="1763748622757" class="icon" viewBox="0 0 1024 1024" version="1.1" xmlns="http://www.w3.org/2000/svg" p-id="55206" xmlns:xlink="http://www.w3.org/1999/xlink" width="200" height="200"><path d="M618.763 539.104c-7.618 10.952-16.7 21.026-27.179 29.999-30.719 26.393-70.959 40.956-113.249 40.957h-0.001c-9.48 0-39.099-0.754-48.334-2.223 0.188 27.451 15.55 51.291 38.125 63.549 10.321 5.604 22.15 8.787 34.721 8.787h90.389c40.236 0 72.855-32.605 72.855-72.843 0-31.252-19.686-57.883-47.327-68.226zM644.545 389.646h-12.869c6.221 13.233 10.541 27.274 12.678 41.763a146.129 146.129 0 0 1 1.631 21.707c0 10.417-1.15 21.026-3.418 31.531a152.102 152.102 0 0 1-21.243 50.682h23.222c40.225 0 72.856-32.591 72.856-72.828-0.001-40.249-32.632-72.855-72.857-72.855zM951.138 243.066H482.986v0.333c-0.417-0.031-0.836-0.048-1.254-0.076l31.36 26.846 78.355 66.845c17.024 14.601 30.499 32.278 39.808 51.75h319.882c40.23 0 72.856-32.605 72.856-72.843 0.001-40.25-32.625-72.855-72.855-72.855z" p-id="55207"></path><path d="M582.84 692.512c-11.594-7.782-25.542-12.325-40.55-12.325H447c-3.652 0-7.239 0.276-10.748 0.796-27.9 4.127-50.652 24.066-58.833 50.436h-231.38c-17.693 0-25.364-3.379-27.842-4.832-1.224-0.719-4.091-2.4-7.908-9.912-3.441-6.771-8.24-19.686-11.562-42.75-2.855-19.825-4.242-44.295-4.242-74.809V469.849c0-21.384 0-86.458 15.804-117.559 3.816-7.511 6.684-9.193 7.908-9.912 2.477-1.453 10.148-4.833 27.842-4.833h89.035a94.52 94.52 0 0 1 14.456-14.256h-63.31c-44.686 0-82.199-31.194-91.974-72.943C14.767 275.696 0.006 364.359 0.006 469.848v129.266c0 125.246 20.799 226.783 146.033 226.783h379.629c0.184 0 0.364-0.012 0.547-0.014h16.075c40.224 0 72.856-32.605 72.856-72.842 0-25.231-12.828-47.456-32.306-60.529z" p-id="55208"></path><path d="M186.22 292.582h115.814l118.957 101.832 78.383 66.868c2.735 2.346 4.433 4.958 4.779 7.355 0.019 0.134 0.039 0.267 0.06 0.4 0.043 0.289 0.051 0.508 0.051 0.613 0 0.058-0.006 0.601-0.194 1.469-0.508 2.317-2.122 4.695-4.727 6.924-7.887 6.775-21.212 8.837-32.41 5.007l-0.348-0.117a18.235 18.235 0 0 1-2-0.789 46.065 46.065 0 0 0-0.846-0.391 23.986 23.986 0 0 1-5.857-3.722l-0.155-0.133-117.736-100.191a47.178 47.178 0 0 0-31.875-11.216 47.14 47.14 0 0 0-27.245 8.848l-0.082 0.059c-21.203 15.202-26.027 44.686-10.825 65.888a47.138 47.138 0 0 0 9.857 10.133 47.068 47.068 0 0 0 5.078 3.467l111.531 94.911a118.714 118.714 0 0 0 28.118 17.926 112.718 112.718 0 0 0 11.986 4.785c13.542 4.609 27.708 6.848 41.798 6.848 30.214-0.002 60.059-10.297 82.523-29.599 18.279-15.653 30.555-35.848 35.533-58.546 1.562-7.235 2.354-14.489 2.354-21.559 0-4.902-0.375-9.862-1.113-14.745-3.662-24.954-16.707-48.15-36.842-65.419l-78.417-66.897-132.157-113.136a47.238 47.238 0 0 0-30.721-11.353H186.22c-26.09 0-47.24 21.15-47.24 47.24 0 26.09 21.15 47.24 47.24 47.24z" p-id="55209"></path></svg>