<?xml version="1.0" standalone="no"?><!DOCTYPE svg PUBLIC "-//W3C//DTD SVG 1.1//EN" "http://www.w3.org/Graphics/SVG/1.1/DTD/svg11.dtd"><svg t="1763758632406" class="icon" viewBox="0 0 1024 1024" version="1.1" xmlns="http://www.w3.org/2000/svg" p-id="114751" xmlns:xlink="http://www.w3.org/1999/xlink" width="200" height="200"><path d="M512 512m-460.8 0a460.8 460.8 0 1 0 921.6 0 460.8 460.8 0 1 0-921.6 0Z" fill="#606060" p-id="114752"></path><path d="M307.072 462.677333c0 11.562667-2.474667 20.992-7.466667 28.245334-4.736 6.997333-12.714667 12.074667-23.893333 15.189333v1.237333c24.832 7.253333 37.248 23.893333 37.248 49.92 0 13.909333-2.474667 25.386667-7.466667 34.474667-4.949333 8.874667-13.525333 15.786667-25.728 20.778667-12.202667 4.778667-28.842667 7.125333-49.92 7.125333H159.146667a12.8 12.8 0 0 1-12.8-12.8V417.152a12.8 12.8 0 0 1 12.8-12.8h63.829333c21.504 0 38.4 2.133333 50.56 6.485333 12.202667 4.138667 20.821333 10.453333 25.770667 18.944 5.162667 8.490667 7.765333 19.456 7.765333 32.853334zM220.16 575.914667c9.898667 0 17.493333-0.597333 22.613333-1.877334 5.418667-1.237333 9.130667-3.413333 11.178667-6.485333a25.088 25.088 0 0 0 3.413333-14.293333c0-5.973333-1.109333-10.666667-3.413333-13.952-2.048-3.498667-5.76-5.973333-11.136-7.466667a91.392 91.392 0 0 0-22.656-2.133333h-18.944v46.208h18.944z m-5.290667-84.992c13.866667 0 23.594667-1.450667 29.184-4.352 5.546667-2.901333 8.362667-8.789333 8.362667-17.706667 0-6.186667-1.28-10.752-3.712-13.653333a17.578667 17.578667 0 0 0-11.52-5.888 121.685333 121.685333 0 0 0-22.314667-1.536h-13.653333v43.093333h13.653333zM475.904 606.848a12.8 12.8 0 0 1-12.8 12.8H351.274667a12.8 12.8 0 0 1-12.8-12.8V417.152a12.8 12.8 0 0 1 12.8-12.8h29.312a12.8 12.8 0 0 1 12.8 12.8v155.050667h69.717333a12.8 12.8 0 0 1 12.8 12.8v21.845333zM478.037333 512c0-28.544 3.84-50.901333 11.477334-66.986667 7.68-16.384 18.602667-27.733333 32.853333-34.133333 14.506667-6.4 32.896-9.642667 55.253333-9.642667 22.528 0 40.96 3.2 55.210667 9.6 14.506667 6.4 25.472 17.792 32.896 34.133334 7.68 16.128 11.52 38.485333 11.52 67.029333 0 28.757333-3.84 51.2-11.52 67.328-7.424 16.128-18.389333 27.392-32.853333 33.834667-14.293333 6.4-32.725333 9.6-55.253334 9.6-22.357333 0-40.746667-3.2-55.210666-9.6-14.293333-6.4-25.258667-17.706667-32.896-33.834667-7.68-16.128-11.52-38.570667-11.52-67.328z m99.584 65.152c11.562667 0 20.352-1.962667 26.368-5.888 5.973333-4.138667 10.154667-10.752 12.416-19.84 2.261333-9.130667 3.413333-22.272 3.413334-39.424s-1.152-30.421333-3.413334-39.68c-2.261333-9.344-6.4-16.085333-12.373333-20.181333-6.058667-4.138667-14.848-6.229333-26.410667-6.229334-11.392 0-20.053333 2.090667-26.026666 6.229334-6.058667 4.138667-10.154667 10.837333-12.458667 20.138666-2.261333 9.301333-3.413333 22.570667-3.413333 39.722667s1.152 30.293333 3.413333 39.424c2.304 9.088 6.4 15.701333 12.416 19.84 5.973333 3.925333 14.677333 5.888 26.069333 5.888zM698.026667 512c0-39.68 9.173333-68.053333 27.605333-84.992 18.602667-17.194667 45.696-25.770667 81.28-25.770667 10.538667 0 21.333333 0.725333 32.298667 2.133334 6.656 0.810667 12.501333 1.706667 17.536 2.858666a11.605333 11.605333 0 0 1 8.832 11.605334v20.565333c0 8.832-8.746667 15.061333-17.365334 13.184a171.264 171.264 0 0 0-36.650666-3.84c-13.013333 0-23.466667 2.133333-31.317334 6.229333a35.114667 35.114667 0 0 0-16.768 19.882667c-3.498667 9.301333-5.248 22.016-5.248 38.144 0 17.365333 1.408 30.592 4.309334 39.68a32.128 32.128 0 0 0 15.232 19.584c7.253333 3.712 17.664 5.546667 31.317333 5.546667 8.277333 0 14.293333-0.256 18.005333-0.853334v-38.528h-21.034666a12.8 12.8 0 0 1-12.8-12.8v-20.309333a12.8 12.8 0 0 1 12.8-12.8h58.794666a12.8 12.8 0 0 1 12.8 12.8v99.157333c0 5.546667-3.584 10.538667-9.045333 11.861334-6.826667 1.621333-14.762667 3.072-23.850667 4.309333-13.226667 2.090667-26.154667 3.114667-38.784 3.114667-24.192 0-44.16-3.114667-59.861333-9.301334a67.754667 67.754667 0 0 1-35.669333-33.493333c-8.277333-16.170667-12.416-38.826667-12.416-67.968z" fill="#FFFFFF" p-id="114753"></path></svg>