<?xml version="1.0" standalone="no"?><!DOCTYPE svg PUBLIC "-//W3C//DTD SVG 1.1//EN" "http://www.w3.org/Graphics/SVG/1.1/DTD/svg11.dtd"><svg t="1763761984347" class="icon" viewBox="0 0 1024 1024" version="1.1" xmlns="http://www.w3.org/2000/svg" p-id="162819" xmlns:xlink="http://www.w3.org/1999/xlink" width="200" height="200"><path d="M553.6 68.8H880c52.8 0 96 43.2 96 96v609.6c0 52.8-43.2 96-96 96H553.6V68.8z" fill="#6A9CF2" p-id="162820"></path><path d="M680 409.6l105.6 105.6 64-64 64 64v64H616v-107.2l64-62.4z m192-84.8c24 0 43.2 19.2 43.2 43.2s-19.2 43.2-43.2 43.2c-24 0-43.2-19.2-43.2-41.6 0-25.6 19.2-44.8 43.2-44.8-1.6 0-1.6 0 0 0z" fill="#FFFFFF" p-id="162821"></path><path d="M427.2 153.6l126.4-84.8v801.6l-126.4 84.8zM174.4 153.6l126.4-84.8v801.6l-126.4 84.8z" fill="#5279F1" p-id="162822"></path><path d="M300.8 68.8l126.4 84.8v801.6l-126.4-84.8zM48 68.8l126.4 84.8v801.6L48 870.4z" fill="#6EA2F2" p-id="162823"></path></svg>