<?xml version="1.0" standalone="no"?><!DOCTYPE svg PUBLIC "-//W3C//DTD SVG 1.1//EN" "http://www.w3.org/Graphics/SVG/1.1/DTD/svg11.dtd"><svg t="1763832920532" class="icon" viewBox="0 0 1024 1024" version="1.1" xmlns="http://www.w3.org/2000/svg" p-id="15689" xmlns:xlink="http://www.w3.org/1999/xlink" width="200" height="200"><path d="M925.952 744.96H170.24c-20.096 0-36.48-16.256-36.48-36.48V312.32c0-61.568 49.92-111.488 111.488-111.488h605.568c61.568 0 111.488 49.92 111.488 111.488v396.16c0 20.224-16.256 36.48-36.352 36.48z m0 0" fill="#F44336" p-id="15690"></path><path d="M343.552 713.856H190.08c-9.088 0-16.384-7.296-16.384-16.384v-358.4c0-51.456 41.728-93.056 93.184-93.056 51.456 0 93.056 41.728 93.056 93.056v358.4c0 9.088-7.296 16.384-16.384 16.384z m0 25.6" fill="#C62828" p-id="15691"></path><path d="M344.32 713.856H68.608V349.696h291.328v347.008c0 5.632-1.792 8.704-3.968 11.392-2.688 3.328-7.168 5.632-11.648 5.76z m0 0" fill="#F5F5F5" p-id="15692"></path><path d="M68.608 531.84v182.016H344.32c4.608-0.128 8.96-2.432 11.648-5.632 2.304-2.688 4.096-5.888 3.968-11.392V531.84H68.608z m0 0" fill="#D8D8D8" p-id="15693"></path><path d="M359.936 531.712L68.608 713.856V349.696l291.328 182.016z m0 0" fill="#E5E5E5" p-id="15694"></path><path d="M558.336 972.8c-17.152 0-31.104-13.952-31.104-31.104V744.96h62.08v196.736c0.128 17.152-13.696 31.104-30.976 31.104z m-83.072-457.472c10.112 0 18.176-8.192 18.176-18.176V90.752h-23.168c-10.112 0-18.176 8.192-18.176 18.176v388.224c0 10.112 8.192 18.176 18.176 18.176h4.992z m258.816-217.472c10.112 0 18.176-8.192 18.176-18.432V108.8c0-10.112-8.192-18.176-18.176-18.176h-245.76c-20.224 0-36.48 16.384-36.48 36.48v134.272c0 20.224 16.384 36.48 36.48 36.48h245.76z" fill="#FFCA28" p-id="15695"></path></svg>