<?xml version="1.0" standalone="no"?><!DOCTYPE svg PUBLIC "-//W3C//DTD SVG 1.1//EN" "http://www.w3.org/Graphics/SVG/1.1/DTD/svg11.dtd"><svg t="1763762236896" class="icon" viewBox="0 0 1029 1024" version="1.1" xmlns="http://www.w3.org/2000/svg" p-id="169709" xmlns:xlink="http://www.w3.org/1999/xlink" width="200.9765625" height="200"><path d="M883.2 0h-732.16C70.656 0 5.12 65.536 5.12 145.92v732.16C5.12 958.464 70.656 1024 151.04 1024h732.16c80.384 0 145.92-65.536 145.92-145.92v-732.16C1029.12 65.536 963.584 0 883.2 0z" fill="#C87270" p-id="169710"></path><path d="M305.152 865.28c-1.536-11.776-2.56-23.04-4.096-37.376-23.04 0-47.104-0.512-71.168 0.512-4.608 0-9.216 5.12-13.824 8.192-14.336 8.704-27.648 7.168-38.912-4.608-10.24-11.264-10.752-25.088-2.048-37.376 9.216-12.8 24.576-17.92 35.84-9.216 16.384 12.288 33.792 9.728 51.2 10.24 12.8 0.512 25.6 0 36.352 0 5.12-19.456 9.728-36.352 14.336-53.248-11.264-6.656 63.488 1.024 57.344 2.56 2.56 5.12 6.656 10.24 7.68 15.872 2.048 10.752 2.56 21.504 3.584 34.816 24.576 0 48.64 0.512 72.192-0.512 4.608 0 9.216-5.632 13.824-8.192 14.336-7.68 27.648-6.144 38.4 6.144 10.24 11.776 10.24 25.088 0.512 37.376-9.728 12.288-24.064 17.92-35.84 8.192-14.336-11.776-29.696-10.24-45.568-10.24h-44.544c-0.512 12.8-1.536 25.088-2.048 37.376-23.552-0.512-48.128-0.512-73.216-0.512z" fill="#FFFFFF" p-id="169711"></path><path d="M594.432 754.176H318.464v-44.032h413.184zM381.44 631.808l-80.384 46.592c-6.656 4.096-15.872 1.536-19.968-5.12l-2.048-3.584c-4.096-6.656-1.536-15.872 5.12-19.968l80.384-46.592c6.656-4.096 15.872-1.536 19.968 5.12l2.048 3.584c4.096 7.168 2.048 16.384-5.12 19.968zM380.928 567.296l-80.384 46.592c-6.656 4.096-15.872 1.536-19.968-5.12l-2.048-3.584c-4.096-6.656-1.536-15.872 5.12-19.968l80.384-46.592c6.656-4.096 15.872-1.536 19.968 5.12l2.048 3.584c4.096 7.168 1.536 15.872-5.12 19.968zM380.928 497.152l-80.384 46.592c-6.656 4.096-15.872 1.536-19.968-5.12l-2.048-3.584c-4.096-6.656-1.536-15.872 5.12-19.968l80.384-46.592c6.656-4.096 15.872-1.536 19.968 5.12l2.048 3.584c4.096 7.168 1.536 15.872-5.12 19.968zM380.928 428.032l-80.384 46.592c-6.656 4.096-15.872 1.536-19.968-5.12l-2.048-3.584c-4.096-6.656-1.536-15.872 5.12-19.968L364.544 399.36c6.656-4.096 15.872-1.536 19.968 5.12l2.048 3.584c3.584 7.168 1.024 15.872-5.632 19.968zM380.928 353.792l-80.384 46.592c-6.656 4.096-15.872 1.536-19.968-5.12l-2.048-3.584c-4.096-6.656-1.536-15.872 5.12-19.968l80.384-46.592c6.656-4.096 15.872-1.536 19.968 5.12l2.048 3.584c4.096 7.168 1.536 15.872-5.12 19.968zM380.928 284.672l-80.384 46.592c-6.656 4.096-15.872 1.536-19.968-5.12l-2.048-3.584c-4.096-6.656-1.536-15.872 5.12-19.968L364.544 256c6.656-4.096 15.872-1.536 19.968 5.12l2.048 3.584c3.584 6.656 1.024 15.872-5.632 19.968zM615.424 166.912H337.408v45.568h415.744z" fill="#FFFFFF" p-id="169712"></path><path d="M313.344 166.912h47.616v125.952h-47.616zM385.024 701.44l-80.384 46.08c-6.656 4.096-15.872 1.536-19.968-5.12l-2.048-3.584c-4.096-6.656-1.536-15.872 5.12-19.968l80.384-46.592c6.656-4.096 15.872-1.536 19.968 5.12l2.048 3.584c4.096 7.68 1.536 16.384-5.12 20.48zM828.416 442.88h-28.672c-1.536 0-3.072-1.536-3.072-3.072v-56.32c0-6.656-2.56-13.312-7.68-17.92L689.664 266.24c-4.608-4.608-11.264-7.68-17.92-7.68H484.864c-10.752 0-18.944 8.704-18.944 18.944v162.304c0 1.536-1.536 3.072-3.072 3.072h-28.672c-3.584 0-6.144 3.072-6.144 6.144v159.232c0 3.584 3.072 6.144 6.144 6.144H465.92c0 13.824 5.632 26.624 14.848 35.84 9.216 9.216 22.016 14.848 35.84 14.848h261.12c10.752 0 18.944-8.704 18.944-18.944v-25.6c0-3.584 3.072-6.144 6.144-6.144h25.6c3.584 0 6.144-3.072 6.144-6.144V449.024c0-3.072-3.072-6.144-6.144-6.144z m-121.344-122.88l27.648 27.648h-26.112c-1.024 0-1.536-0.512-1.536-1.536v-26.112z m-216.064-32.768c0-1.536 1.536-3.072 3.072-3.072h162.304c13.824 0 25.6 11.264 25.6 25.6v57.344c0 3.584 3.072 6.144 6.144 6.144h57.344c13.824 0 25.6 11.264 25.6 25.6V440.32c0 1.536-1.536 3.072-3.072 3.072H494.08c-1.536 0-3.072-1.536-3.072-3.072V287.232z m204.288 242.176c0 16.384-5.12 29.696-15.872 39.936s-24.576 14.848-40.96 14.848h-36.864V477.184h36.864c37.888 0 56.832 17.408 56.832 52.224zM578.56 510.976c0 10.752-4.096 19.968-12.288 26.112-8.192 6.656-17.92 9.728-30.208 9.728h-11.776v37.376H501.76V477.184h36.864c26.624 0 39.936 11.264 39.936 33.792z m192.512 125.952c0 1.536-1.536 3.072-3.072 3.072h-251.392c-13.824 0-25.6-11.264-25.6-25.6H768c1.536 0 3.072 1.536 3.072 3.072v19.456z m8.192-140.8h-38.4v27.648h35.328v18.432h-35.328v41.984h-23.04V477.184h60.928v18.944z" fill="#FFFFFF" p-id="169713"></path><path d="M554.496 512c0 11.776-6.656 17.408-19.968 17.408h-9.728v-34.304h10.24c12.8 0 19.456 5.632 19.456 16.896zM671.744 529.92c0 11.264-3.072 19.968-9.216 26.112-6.144 6.656-14.848 9.728-25.6 9.728H624.64V496.128h12.288c10.24 0 18.944 3.072 25.088 8.704 6.144 6.144 9.728 14.336 9.728 25.088z" fill="#FFFFFF" p-id="169714"></path></svg>