<?xml version="1.0" standalone="no"?><!DOCTYPE svg PUBLIC "-//W3C//DTD SVG 1.1//EN" "http://www.w3.org/Graphics/SVG/1.1/DTD/svg11.dtd"><svg t="1763745996462" class="icon" viewBox="0 0 1870 1024" version="1.1" xmlns="http://www.w3.org/2000/svg" p-id="48979" xmlns:xlink="http://www.w3.org/1999/xlink" width="365.234375" height="200"><path d="M393.219315 627.534934 374.159158 535.61802l0 362.695441L249.922849 898.313461 249.922849 627.534934 153.862422 627.534934c62.083626-107.662261 113.463178-212.907472 148.268681-328.028055 0.828702-3.31481 0-5.800917-1.657405-7.458322S297.08983 289.631508 293.77502 289.631508L153.862422 289.631508 153.862422 242.464527l74.583221 0L228.445643 110.769895l129.208524 0 0 131.694632 51.379552 0c6.62962 0 13.259239 2.486107 18.231454 8.287025 4.143512 6.62962 5.800917 13.259239 4.143512 20.717561-12.430537 43.92123-25.689776 87.773402-41.435123 130.865929l48.064742 0 45.578635 225.268951L393.219315 627.603992zM471.048287 892.650661l0-47.305098 171.47235 0L642.520637 415.525223 485.964931 415.525223 485.964931 368.289183l156.555705 0 0-257.588346 124.23631 0 0 257.588346 158.21311 0 0 47.23604-158.21311 0 0 429.82034 173.129755 0 0 47.305098L471.048287 892.650661z" p-id="48980"></path><path d="M997.412463 186.941462c0-30.661991 24.032371-55.523064 55.523064-55.523064l701.496628 0 0 47.23604-599.635285 0c-17.402752 0-31.490693 14.087942-31.490693 31.490693l0 604.607499c0 17.402752 14.087942 31.490693 31.490693 31.490693l599.635285 0 0 47.23604L1052.935527 893.479363c-31.490693 0-55.523064-25.689776-55.523064-55.523064L997.412463 186.941462zM1600.431616 776.632317 1465.422174 599.428109c-45.578635 57.111411-96.060426 115.120583-154.898301 177.204208L1178.829242 776.632317c86.944699-96.060426 158.21311-180.519018 221.194497-262.560561l-214.495819-282.44942 125.065012 0 149.926086 199.648233c46.338279-64.638791 88.602104-129.208524 130.865929-199.648233l120.092797 0c-66.227138 110.97707-123.407607 201.305638-185.560291 287.421635l194.60696 257.588346L1600.431616 776.632317z" p-id="48981"></path></svg>