<?xml version="1.0" standalone="no"?><!DOCTYPE svg PUBLIC "-//W3C//DTD SVG 1.1//EN" "http://www.w3.org/Graphics/SVG/1.1/DTD/svg11.dtd"><svg t="1763845242412" class="icon" viewBox="0 0 1024 1024" version="1.1" xmlns="http://www.w3.org/2000/svg" p-id="38537" xmlns:xlink="http://www.w3.org/1999/xlink" width="200" height="200"><path d="M592.298667 661.76c60.458667-47.573333 67.072-49.92 84.992-27.392 15.573333 19.242667 12.245333 22.741333-91.733334 113.365333-34.688 30.592-63.744 62.293333-63.744 71.381334 0 7.936-8.96 14.762667-19.029333 14.762666-10.026667 0-46.933333 19.285333-81.493333 44.288C353.024 926.890667 227.84 981.333333 184.192 981.333333c-71.466667 0-67.072-71.381333 5.632-91.733333 124.117333-34.090667 251.605333-106.581333 402.432-227.84z m-46.848-200.618667c14.506667-5.717333 39.125333-7.978667 54.826666-5.589333 15.573333 1.109333 51.370667 5.674667 80.426667 9.045333 128.512 14.805333 224.64 132.693333 214.613333 259.626667-5.546667 70.229333-24.576 106.538667-81.578666 158.634667-89.514667 81.536-214.698667 121.216-257.109334 82.688-27.989333-26.112-50.304-81.706667-41.344-103.210667 5.546667-15.914667 10.069333-15.914667 41.344 1.152 70.4 36.266667 171.008-2.261333 229.12-87.296 58.154667-86.186667 33.493333-180.266667-46.933333-180.266667-29.056 0-40.234667-6.741333-51.370667-31.701333-21.333333-44.16-63.744-46.378667-111.829333-4.48-223.530667 196.053333-431.488 302.592-478.421333 245.930667-30.165333-36.224-6.741333-54.357333 117.333333-90.666667 42.538667-12.544 112.938667-49.834667 191.146667-103.168 111.786667-74.752 124.074667-86.058667 119.68-112.170667-4.522667-21.504 0-30.592 20.096-38.528z m-191.146667-410.282666c60.330667-12.458667 257.024-10.24 307.370667 3.328 95.061333 25.002667 110.634667 41.941333 138.666666 160 16.725333 70.272 15.616 101.973333-4.522666 150.698666-22.314667 55.594667-64.853333 69.12-201.216 68.010667-109.610667-1.109333-111.786667 0-130.816 29.44-23.509333 38.442667-118.570667 114.432-160.981334 130.346667-128.512 46.378667-200.106667 50.944-211.285333 14.677333-11.136-35.2 13.397333-56.704 66.005333-56.704 65.834667 0 174.336-44.245333 205.610667-82.773333 12.245333-13.568 4.437333-17.066667-48.085333-21.546667-70.4-5.589333-95.018667-28.330667-108.373334-99.712-12.373333-61.184-10.069333-168.832 2.218667-193.834667 13.482667-23.722667 50.346667-29.44 62.634667-9.045333 4.522667 7.936 7.850667 49.834667 8.96 95.232 2.218667 124.672 8.96 130.389333 172.16 124.672 72.704-2.346667 152.021333-4.565333 178.858666-5.717333 71.509333 0 96.128-30.592 87.210667-109.909334-7.850667-71.338667-23.552-100.821333-62.677333-115.626666-34.56-14.762667-231.381333-19.242667-309.589334-6.826667-58.112 7.978667-59.221333 7.978667-59.221333-20.394667 0-33.92 12.245333-43.008 67.072-54.314666z m-2.346667 167.68c7.850667-9.045333 50.389333-13.525333 133.034667-12.501334 158.72 1.194667 150.826667-1.152 146.432 35.157334l-3.328 30.592-139.776 1.109333c-125.184 0-139.776-2.218667-143.104-20.394667-2.176-11.306667 1.109333-25.984 6.741333-33.92z" fill="#D81E06" p-id="38538"></path></svg>