<?xml version="1.0" standalone="no"?><!DOCTYPE svg PUBLIC "-//W3C//DTD SVG 1.1//EN" "http://www.w3.org/Graphics/SVG/1.1/DTD/svg11.dtd"><svg t="1763762332407" class="icon" viewBox="0 0 1024 1024" version="1.1" xmlns="http://www.w3.org/2000/svg" p-id="170722" xmlns:xlink="http://www.w3.org/1999/xlink" width="200" height="200"><path d="M137.216 894.016a38.656 38.656 0 0 1-29.248-63.68l177.024-267.008a38.592 38.592 0 0 1 52.288-5.76l156.224 116.096L773.76 355.456c13.184-16.64 83.52-94.976 124.8-6.208 0-0.256 0.128 117.568 0.128 237.696v307.072c-0.576-0.384-761.088 0-761.472 0m192.256-713.6a125.312 125.312 0 1 1 0.128 250.56 125.312 125.312 0 0 1-0.128-250.624M81.728 0C36.672 0 0 37.952 0 89.152v841.856C0 982.208 36.864 1024 81.728 1024h864c44.8 0 78.272-41.856 78.272-92.992V89.152C1024 37.952 983.744 0 938.88 0H81.728z" p-id="170723"></path></svg>