<?xml version="1.0" standalone="no"?><!DOCTYPE svg PUBLIC "-//W3C//DTD SVG 1.1//EN" "http://www.w3.org/Graphics/SVG/1.1/DTD/svg11.dtd"><svg t="1763763466602" class="icon" viewBox="0 0 1024 1024" version="1.1" xmlns="http://www.w3.org/2000/svg" p-id="201495" xmlns:xlink="http://www.w3.org/1999/xlink" width="200" height="200"><path d="M286.281143 344.649143a191.488 191.488 0 1 1 270.774857-270.848 191.488 191.488 0 0 1-270.774857 270.848zM840.045714 634.075429h0z" fill="#60666E" p-id="201496"></path><path d="M511.049143 894.683429l44.178286-245.613715a18.285714 18.285714 0 0 1 17.993142-14.994285h266.825143A224.914286 224.914286 0 0 0 618.788571 446.390857H545.28l-124.269714 214.308572-124.342857-214.308572H224.548571A224.768 224.768 0 0 0 0 670.208v224.475429h2.194286c4.973714 26.770286 24.502857 50.102857 52.297143 58.953142l112.932571 35.474286a76.068571 76.068571 0 0 0 95.085714-50.102857v-0.585143c4.681143-14.774857 4.534857-29.988571 0.365715-43.739428h248.173714z m-356.352-69.485715V691.712h22.235428v140.361143l-22.235428-7.021714z" fill="#60666E" p-id="201497"></path><path d="M556.032 972.068571l48.054857-268.434285a18.285714 18.285714 0 0 1 17.993143-15.067429h380.050286a18.285714 18.285714 0 0 1 17.993143 21.504l-53.174858 296.228572H334.774857l6.363429-34.304h214.893714z" fill="#60666E" p-id="201498"></path></svg>