<?xml version="1.0" standalone="no"?><!DOCTYPE svg PUBLIC "-//W3C//DTD SVG 1.1//EN" "http://www.w3.org/Graphics/SVG/1.1/DTD/svg11.dtd"><svg t="1763844970915" class="icon" viewBox="0 0 1024 1024" version="1.1" xmlns="http://www.w3.org/2000/svg" p-id="35664" xmlns:xlink="http://www.w3.org/1999/xlink" width="200" height="200"><path d="M981.333333 362.666667v384a21.333333 21.333333 0 0 1-21.333333 21.333333H597.333333v192a21.333333 21.333333 0 0 1-21.333333 21.333333H405.333333a21.333333 21.333333 0 0 1-21.333333-21.333333v-192H170.666667v5.333333a37.373333 37.373333 0 0 1-37.333334 37.333334h-53.333333a37.373333 37.373333 0 0 1-37.333333-37.333334V208a37.373333 37.373333 0 0 1 37.333333-37.333333h53.333333a37.373333 37.373333 0 0 1 37.333334 37.333333v5.333333h128v192a21.333333 21.333333 0 0 0 21.333333 21.333334h85.333333a21.333333 21.333333 0 0 0 0-42.666667h-64V213.333333h490.666667a149.333333 149.333333 0 0 1 149.333333 149.333334zM341.333333 170.666667h85.333334a85.333333 85.333333 0 0 0 0-170.666667H320a21.333333 21.333333 0 0 0-21.333333 21.333333v192h42.666666z" fill="#5C5C66" p-id="35665"></path></svg>