<?xml version="1.0" standalone="no"?><!DOCTYPE svg PUBLIC "-//W3C//DTD SVG 1.1//EN" "http://www.w3.org/Graphics/SVG/1.1/DTD/svg11.dtd"><svg t="1763761585261" class="icon" viewBox="0 0 1024 1024" version="1.1" xmlns="http://www.w3.org/2000/svg" p-id="142186" xmlns:xlink="http://www.w3.org/1999/xlink" width="200" height="200"><path d="M128.5 213.7c-1.5 0-2.8-0.8-3.5-2.1l-10.9-19.5c-1.1-1.9-0.4-4.4 1.6-5.4s4.4-0.4 5.4 1.6l10.9 19.5c1.1 1.9 0.4 4.4-1.5 5.4-0.6 0.3-1.3 0.5-2 0.5z" fill="#00B7EE" p-id="142187"></path><path d="M113.3 209.4c-2.2 0-4-1.7-4.1-3.9 0-1.5 0.8-2.8 2.1-3.6l19.6-10.9c1.9-1.1 4.4-0.4 5.4 1.6 1.1 1.9 0.4 4.4-1.6 5.4l-19.5 10.9c-0.6 0.3-1.2 0.5-1.9 0.5z" fill="#00B7EE" p-id="142188"></path><path d="M834.2 115c-1.8 0-3.4-1.2-3.9-3L824 88.6c-0.6-2.1 0.7-4.3 2.8-4.9s4.3 0.7 4.9 2.8l6.3 23.4c0.6 2.1-0.7 4.3-2.8 4.9-0.3 0.1-0.6 0.2-1 0.2z" fill="#ACD598" p-id="142189"></path><path d="M819.4 106.4c-2.2 0-4-1.8-4-4 0-1.8 1.2-3.3 3-3.8l23.4-6.3c2.2-0.4 4.3 0.9 4.7 3.1 0.4 2-0.7 4-2.7 4.6l-23.4 6.3c-0.3 0.1-0.6 0.1-1 0.1z" fill="#ACD598" p-id="142190"></path><path d="M986.9 462.6c-0.8 0-1.7-0.3-2.3-0.8L959.9 444c-1.7-1.3-2.1-3.9-0.7-5.6 1.3-1.7 3.6-2.1 5.4-0.9l24.7 17.8c1.8 1.3 2.2 3.8 0.9 5.6-0.8 1.1-2 1.7-3.3 1.7z" fill="#FFF100" p-id="142191"></path><path d="M965.7 466.1c-0.8 0-1.7-0.3-2.3-0.8-1.8-1.3-2.2-3.8-0.9-5.6l17.7-24.8c1.3-1.8 3.8-2.2 5.6-0.9 1.8 1.3 2.2 3.8 0.9 5.6L969 464.4c-0.8 1-2 1.7-3.3 1.7z" fill="#FFF100" p-id="142192"></path><path d="M56.2 533.8c-8.9 0-16-7.1-16-16s7.1-16 16-16 16 7.1 16 16-7.1 16-16 16z m0-26.6c-5.9 0-10.7 4.8-10.7 10.7 0 5.9 4.8 10.7 10.7 10.7s10.7-4.8 10.7-10.7c0-6-4.8-10.7-10.7-10.7z" fill="#7EDDDC" p-id="142193"></path><path d="M35.4 654.5m-8 0a8 8 0 1 0 16 0 8 8 0 1 0-16 0Z" fill="#F6B37F" p-id="142194"></path><path d="M951.5 319.5c-10.5 0-19-8.6-19-19s8.6-19 19-19 19 8.6 19 19-8.5 19-19 19z m0-30.4c-6.3 0-11.4 5.1-11.4 11.4s5.1 11.4 11.4 11.4 11.4-5.1 11.4-11.4-5.1-11.4-11.4-11.4z" fill="#57EBBF" p-id="142195"></path><path d="M896.9 203m-6 0a6 6 0 1 0 12 0 6 6 0 1 0-12 0Z" fill="#D3D462" p-id="142196"></path><path d="M110.7 424.8m-6 0a6 6 0 1 0 12 0 6 6 0 1 0-12 0Z" fill="#71E7DB" p-id="142197"></path><path d="M62.4 112.5c-12.2 0-22-9.9-22-22 0-5.8 2.3-11.3 6.4-15.5l0.1-0.1c8.6-8.6 22.5-8.6 31.1 0s8.6 22.5 0 31.1c-4.2 4.2-9.8 6.5-15.6 6.5z m-9.9-31.8c-5.5 5.5-5.4 14.4 0.1 19.9s14.4 5.4 19.9-0.1 5.4-14.4-0.1-19.9c-5.6-5.4-14.4-5.4-19.9 0.1z" fill="#FF8A8A" p-id="142198"></path><path d="M67.5 351.4c-8.8 0-15.9-7.1-15.9-15.9 0-4.2 1.7-8.2 4.6-11.2 3-3 7-4.7 11.3-4.7 8.8 0 15.9 7.1 15.9 15.9s-7.2 15.9-15.9 15.9zM61 329c-3.6 3.7-3.6 9.5 0.1 13.1s9.5 3.5 13.1-0.1c3.6-3.6 3.5-9.5-0.1-13.1-1.8-1.7-4-2.7-6.4-2.7-2.7 0.1-5.1 1-6.7 2.8z" fill="#B3D465" p-id="142199"></path><path d="M41.4 219.5m-8 0a8 8 0 1 0 16 0 8 8 0 1 0-16 0Z" fill="#CC9EE1" p-id="142200"></path><path d="M913.9 386m-5 0a5 5 0 1 0 10 0 5 5 0 1 0-10 0Z" fill="#22B4FF" p-id="142201"></path><path d="M980.9 667m-7.5 0a7.5 7.5 0 1 0 15 0 7.5 7.5 0 1 0-15 0Z" fill="#F2ED62" p-id="142202"></path><path d="M955.5 116.6c-10.5 0-19.1-8.6-19.1-19.1 0-5 2-9.8 5.5-13.4l0.1-0.1c7.4-7.5 19.5-7.5 27-0.1s7.5 19.5 0.1 27c-3.7 3.6-8.6 5.7-13.6 5.7zM946 87.9c-5.2 5.3-5.2 13.8 0 19 5.2 5.2 13.8 5.2 19 0s5.2-13.8 0-19c-5.3-5.2-13.8-5.2-19 0z" fill="#FF8700" p-id="142203"></path><path d="M179.7 105.4m-8 0a8 8 0 1 0 16 0 8 8 0 1 0-16 0Z" fill="#EBB4BE" p-id="142204"></path><path d="M960.3 572.8c-3.3 0-6.6-1.1-9.1-3.3h-0.2l-1-1c-5.6-5.6-5.5-14.7 0.1-20.2 5.6-5.6 14.7-5.6 20.3 0 5.6 5.6 5.6 14.7 0 20.3-2.6 2.6-6.3 4.2-10.1 4.2z m-5.8-8.5c1.6 1.5 3.6 2.3 5.8 2.3 4.6 0 8.3-3.7 8.3-8.3 0-4.6-3.7-8.3-8.3-8.3-2.2 0-4.3 0.9-5.9 2.4-2.9 2.9-3.2 7.6-0.7 11l0.8 0.9z" fill="#FF8A8A" p-id="142205"></path><path d="M989.6 206.9m-7 0a7 7 0 1 0 14 0 7 7 0 1 0-14 0Z" fill="#A657FF" p-id="142206"></path><path d="M213.3 223.5c2.7-13.3 4.2-20.8 4.2-20.8 9.5-47.3 49.8-80.2 98-80.2h422.4c48.4 0 88.7 33.2 98.1 80.6l110.9 561.7c5.3 27.1-12.3 53.4-39.4 58.7-3.2 0.6-6.4 0.9-9.7 0.9H153.2c-27.6 0-50-22.4-50-50 0-3.3 0.3-6.6 1-9.9 0 0 50.1-248.3 83.7-414.8" fill="#57EBBF" p-id="142207"></path><path d="M897.9 834.5H125.2c-33.1 0-60-26.9-60-60 0-4 0.4-8 1.2-11.9 0 0 50.1-248.3 83.7-414.8 1.1-5.4 6.4-8.9 11.8-7.8 5.4 1.1 8.9 6.4 7.8 11.8C136.1 518.2 86 766.6 86 766.6c-4.4 21.7 9.6 42.8 31.3 47.1 2.6 0.5 5.3 0.8 7.9 0.8h772.7c22.1 0 40-17.9 40-40 0-2.6-0.3-5.2-0.8-7.7 0 0-13-65.7-30-152.2-1.1-5.4 2.5-10.7 7.9-11.8s10.7 2.5 11.8 7.9c17.1 86.5 30 152.2 30 152.2 6.4 32.5-14.7 64.1-47.2 70.5-3.9 0.7-7.8 1.1-11.7 1.1z m-5.1-333.9c-4.8 0-8.9-3.4-9.8-8.1-27.8-140.9-56.4-276-56.7-277.4v-0.1c-8.4-42.7-44.7-72.6-88.3-72.6H287.5c-43.4 0-79.6 29.7-88.2 72.2 0 0-1.5 7.5-4.2 20.8-1.1 5.4-6.4 8.9-11.8 7.8-5.4-1.1-8.9-6.4-7.8-11.8 2.7-13.3 4.2-20.8 4.2-20.8 10.5-52 54.8-88.3 107.8-88.3h450.4c53.2 0 97.6 36.4 107.9 88.6 0.8 3.7 29.2 137.8 56.8 277.5 1.1 5.4-2.5 10.7-7.9 11.8-0.6 0.3-1.3 0.4-1.9 0.4z" fill="#222222" p-id="142208"></path><path d="M170.4 293.5m-16 0a16 16 0 1 0 32 0 16 16 0 1 0-32 0Z" fill="#222222" p-id="142209"></path><path d="M904.4 551.5m-16 0a16 16 0 1 0 32 0 16 16 0 1 0-32 0Z" fill="#222222" p-id="142210"></path><path d="M227.9 626.5h567c90.9 0 164.5 73.6 164.5 164.5s-73.6 164.5-164.5 164.5H228c-90.8 0-164.5-73.6-164.5-164.5-0.1-90.8 73.6-164.5 164.4-164.5z" fill="#FFFFFF" p-id="142211"></path><path d="M262.9 626.5h527c88.1 0 159.5 71.4 159.5 159.5S878 945.5 789.9 945.5H263c-88.1 0-159.5-71.4-159.5-159.5s71.3-159.5 159.4-159.5z" fill="#22B4FF" p-id="142212"></path><path d="M789.9 955.5h-557c-93.5 0-169.5-76-169.5-169.5s76-169.5 169.5-169.5h557c93.5 0 169.5 76 169.5 169.5s-76 169.5-169.5 169.5z m-557-319c-82.5 0-149.5 67.1-149.5 149.5s67 149.5 149.5 149.5h557c82.4 0 149.5-67.1 149.5-149.5s-67-149.5-149.4-149.5H232.9z" fill="#222222" p-id="142213"></path><path d="M595.5 489.5h-178c-51.4 0-93-41.6-93-93s41.6-93 93-93c32.6 0 62.8 17.1 79.7 45h1.1c20.4-53.7 80.5-80.6 134.2-60.2 53.7 20.4 80.6 80.5 60.2 134.2-15.4 40.3-54.1 67-97.2 67z" fill="#FFFFFF" p-id="142214"></path><path d="M617.5 489.5h-178c-51.4 0-93-41.6-93-93s41.6-93 93-93c32.6 0 62.8 17.1 79.7 45h1.2c20.4-53.7 80.5-80.6 134.2-60.2s80.6 80.5 60.2 134.2c-15.5 40.3-54.2 67-97.3 67z" fill="#FFDF00" p-id="142215"></path><path d="M414.6 502.5c-58.1 0.6-105.7-46.1-106.3-104.2S354.5 292.6 412.6 292h2.1c31 0.1 60.4 13.8 80.4 37.4 31.2-56.3 102.2-76.5 158.4-45.3 56.3 31.2 76.5 102.2 45.3 158.4-20.5 37-59.5 59.9-101.9 59.9H414.6v0.1z m0-190.5c-47.1 0.5-84.8 39.1-84.3 86.2 0.5 46.4 38 83.8 84.3 84.3h182.3c53.3 0 96.5-43.2 96.5-96.5s-43.2-96.5-96.5-96.5c-40 0-75.9 24.7-90.2 62.2-1.5 3.9-5.2 6.4-9.3 6.4h-1.2c-3.5 0-6.8-1.8-8.6-4.8-15.4-25.6-43.1-41.2-73-41.3z" fill="#222222" p-id="142216"></path><path d="M795.4 791.5m-75 0a75 75 0 1 0 150 0 75 75 0 1 0-150 0Z" fill="#FFFFFF" p-id="142217"></path><path d="M811.9 789.5m-64 0a64 64 0 1 0 128 0 64 64 0 1 0-128 0Z" fill="#EB6877" p-id="142218"></path><path d="M795.5 876.5c-46.9 0-85-38.1-85-85s38.1-85 85-85 85 38.1 85 85c-0.1 46.9-38.1 84.9-85 85z m0-150c-35.9 0-65 29.1-65 65s29.1 65 65 65 65-29.1 65-65c-0.1-35.9-29.2-65-65-65z" fill="#222222" p-id="142219"></path><path d="M195.5 747.5h411c24.3 0 44 19.7 44 44s-19.7 44-44 44h-411c-24.3 0-44-19.7-44-44s19.7-44 44-44z" fill="#FFFFFF" p-id="142220"></path><path d="M231.5 747.5h388c24.3 0 44 19.7 44 44s-19.7 44-44 44h-388c-24.3 0-44-19.7-44-44s19.7-44 44-44z" fill="#87FFFE" p-id="142221"></path><path d="M621.5 843.5h-418c-28.7 0-52-23.3-52-52s23.3-52 52-52h418c28.7 0 52 23.3 52 52s-23.3 52-52 52z m-418-84c-17.7 0-32 14.3-32 32s14.3 32 32 32h418c17.7 0 32-14.3 32-32s-14.3-32-32-32h-418z" fill="#222222" p-id="142222"></path></svg>