<?xml version="1.0" standalone="no"?><!DOCTYPE svg PUBLIC "-//W3C//DTD SVG 1.1//EN" "http://www.w3.org/Graphics/SVG/1.1/DTD/svg11.dtd"><svg t="1763904182050" class="icon" viewBox="0 0 1024 1024" version="1.1" xmlns="http://www.w3.org/2000/svg" p-id="18614" xmlns:xlink="http://www.w3.org/1999/xlink" width="200" height="200"><path d="M879.308 862.484c0-20.576-16.708-37.28-37.284-37.28H181.976c-20.576 0-37.284 16.704-37.284 37.28v74.568c0 20.576 16.708 37.28 37.284 37.28h660.048c20.576 0 37.284-16.704 37.284-37.28v-74.568z" fill="#A4B6DC" p-id="18615"></path><path d="M506.908 214.196l111.392-157.488a16.68 16.68 0 0 1 23.232-3.984 16.672 16.672 0 0 1 3.984 23.232l-116 164a16.68 16.68 0 0 1-22.608 4.404 16.68 16.68 0 0 1-22.608-4.404l-116-164a16.68 16.68 0 0 1 3.984-23.232 16.68 16.68 0 0 1 23.232 3.984l111.392 157.488z" fill="#92A8BA" p-id="18616"></path><path d="M711.816 235.256c0-20.996-17.044-38.04-38.036-38.04H340.04c-20.996 0-38.04 17.044-38.04 38.04v76.076c0 20.996 17.044 38.04 38.04 38.04h333.74c20.992 0 38.036-17.044 38.036-38.04V235.256z" fill="#2F97F8" p-id="18617"></path><path d="M340.04 349.372c-20.996 0-38.04-17.044-38.04-38.04V235.256c0-20.996 17.044-38.04 38.04-38.04h201.74c20.992 0 38.036 17.044 38.036 38.04v76.076c0 20.996-17.044 38.04-38.036 38.04H340.04z" fill="#00B6FF" p-id="18618"></path><path d="M974 359.776c0-36.12-29.324-65.444-65.444-65.444H115.444c-36.12 0-65.444 29.324-65.444 65.444v465.112c0 36.12 29.324 65.444 65.444 65.444h793.112c36.12 0 65.444-29.324 65.444-65.444V359.776z" fill="#3A496F" p-id="18619"></path><path d="M974 511.744c-123.06 72.78-301.54 118.588-500 118.588-160.708 0-308.312-30.036-424-80.112V359.776c0-36.12 29.324-65.444 65.444-65.444h793.112c36.12 0 65.444 29.324 65.444 65.444v151.968z" fill="#475C82" p-id="18620"></path><path d="M999 359.776v465.112c0 49.92-40.528 90.444-90.444 90.444H115.444c-49.916 0-90.444-40.524-90.444-90.444V359.776c0-49.916 40.528-90.444 90.444-90.444h793.112c49.916 0 90.444 40.528 90.444 90.444z m-25 0c0-36.12-29.324-65.444-65.444-65.444H115.444c-36.12 0-65.444 29.324-65.444 65.444v465.112c0 36.12 29.324 65.444 65.444 65.444h793.112c36.12 0 65.444-29.324 65.444-65.444V359.776z" fill="#869CC6" p-id="18621"></path><path d="M734 427.868c0-31.756-25.78-57.536-57.536-57.536H163.536c-31.756 0-57.536 25.78-57.536 57.536v339.8c0 31.756 25.78 57.536 57.536 57.536h512.928c31.756 0 57.536-25.78 57.536-57.536v-339.8z" fill="#344366" p-id="18622"></path><path d="M686.348 458.44c-4.176-30.084-19.432-49.752-50.78-53.436-33.488-3.94-66.636-10.724-100.36-12.612-109.696-6.148-218.768 1.216-327.624 12.612-32.532 3.404-49.496 21.608-55.028 53.056-16.312 92.752-18.764 191.008 0 283.528 5.948 29.332 23.832 45.652 53.836 49.112 107.164 12.364 214.456 19.584 322.608 13.32 35.4-2.048 70.224-9.148 105.376-13.32 29.312-3.476 47.204-19.708 51.972-48.736 15.292-93.104 12.94-190.244 0-283.524z" fill="#00E5F5" p-id="18623"></path><path d="M938 406.332c0-19.868-16.132-36-36-36h-72c-19.868 0-36 16.132-36 36v382.872c0 19.868 16.132 36 36 36h72c19.868 0 36-16.132 36-36v-382.872z" fill="#A9B7DF" p-id="18624"></path><path d="M794 658.332h144v72h-144z" fill="#BECCED" p-id="18625"></path><path d="M922 698.332c0-11.036-8.96-20-20-20h-68c-11.04 0-20 8.964-20 20 0 11.04 8.96 20 20 20h68c11.04 0 20-8.96 20-20z" fill="#617EB0" p-id="18626"></path><path d="M866 454.332m-40 0a40 40 0 1 0 80 0 40 40 0 1 0-80 0Z" fill="#3251E6" p-id="18627"></path><path d="M866 557.768m-40 0a40 40 0 1 0 80 0 40 40 0 1 0-80 0Z" fill="#CCF9FF" p-id="18628"></path><path d="M843.632 487.496a40.004 40.004 0 0 0 44.736-66.324l-22.368 33.16-22.368 33.164z" fill="#00CEFD" p-id="18629"></path><path d="M843.632 590.928a39.976 39.976 0 0 0 22.368 6.84 40 40 0 1 0 22.368-73.16l-22.368 33.16-22.368 33.16z" fill="#5FF5FC" p-id="18630"></path></svg>