<?xml version="1.0" standalone="no"?><!DOCTYPE svg PUBLIC "-//W3C//DTD SVG 1.1//EN" "http://www.w3.org/Graphics/SVG/1.1/DTD/svg11.dtd"><svg t="1763745772928" class="icon" viewBox="0 0 1024 1024" version="1.1" xmlns="http://www.w3.org/2000/svg" p-id="43583" xmlns:xlink="http://www.w3.org/1999/xlink" width="200" height="200"><path d="M512 825.376c0 31.84 13.632 64.32 34.816 95.264-26.88 4.8-54.528 7.36-82.816 7.36C223.968 928 26.496 745.728 2.464 512H0v-64C8.704 199.136 213.12 0 464 0c247.168 0 449.216 193.28 463.232 436.96a271.808 271.808 0 0 1-8.512-3.232 698.336 698.336 0 0 1-59.328-25.056 395.84 395.84 0 0 0-60.8-162.592l-6.656 4.32a728 728 0 0 1-121.824 62.656c7.904 34.176 13.184 69.76 15.872 106.656-10.56 4.608-22.016 9.344-34.176 14.016-8.256 2.848-16.096 5.376-23.488 7.68a630.368 630.368 0 0 0-14.528-109.312 518.88 518.88 0 0 1-101.76 18.432L512 825.376z m-229.184-108l-4.224 1.6c-27.2 10.56-55.2 23.584-84.256 39.36a397.504 397.504 0 0 0 170.08 92.384 475.104 475.104 0 0 1-81.6-133.344z m166.08-35.072a517.12 517.12 0 0 0-109.696 16.864 408.544 408.544 0 0 0 109.088 151.008l0.64-167.872zM67.648 512a397.216 397.216 0 0 0 78.528 193.6 895.36 895.36 0 0 1 114.72-54.624C249.6 608 242.88 561.696 240.736 512.032h-173.12z m381.92 0l-149.952 0.032c2.016 42.88 7.68 82.816 17.12 119.936a566.784 566.784 0 0 1 132.48-23.36L449.536 512z m-134.24-184.32l-1.376 5.76A637.28 637.28 0 0 0 299.36 448h150.4l0.384-96.576a569.504 569.504 0 0 1-134.848-23.744zM130.048 245.184l-2.784 4.224A397.12 397.12 0 0 0 65.056 448h175.456c1.728-48.832 7.904-95.424 18.496-139.712a918.176 918.176 0 0 1-128.96-63.104z m321.088-166.624c-50.432 52.416-88.256 111.232-113.6 176.768l-0.928 2.432c39.072 11.264 77.024 17.856 113.824 19.84l0.704-199.04z m60.928 40.192L512 276.576a463.808 463.808 0 0 0 80.96-14.56 519.296 519.296 0 0 0-80.896-143.264z m44.352-43.264l1.44 1.856A587.296 587.296 0 0 1 649.6 243.04c34.56-13.664 69.44-31.36 104.544-53.152a398.048 398.048 0 0 0-197.728-114.4z m-184.832 0.032l-3.072 0.704a398.848 398.848 0 0 0-193.376 112.16c35.84 20.16 70.784 36.832 104.96 50.176a586.144 586.144 0 0 1 91.52-163.04z" fill="#444444" p-id="43584"></path><path d="M822.208 465.44L789.12 448l-30.784 18.56-4.896 2.976a455.456 455.456 0 0 1-53.248 26.464l-9.92 3.968c-13.12 4.608-25.6 8.224-36.608 10.816l-8 1.76a151.808 151.808 0 0 1-11.776 2.016L576 519.264v272.48c0 73.504 63.296 141.696 184.192 209.088l30.208 16.416 19.04-10.304c128.192-69.376 195.36-139.488 195.36-215.2v-272.224l-54.592-4.8-3.52-0.16c-7.488 0-23.84-2.88-47.392-11.808l-17.696-6.912c-12.576-5.12-24.064-10.496-34.4-15.904l-7.52-4.064a233.056 233.056 0 0 1-12.48-7.36l-4.992-3.072z m-35.52 70.176l4.352-2.56 3.68 2.24c13.984 8.192 33.088 17.856 56.576 27.392l20.32 7.968a284.896 284.896 0 0 0 48.64 13.952l7.744 1.216v205.92l-0.16 4.096c-2.816 37.216-43.84 82.08-127.136 131.36l-10.304 5.952-0.864-0.48c-92.864-53.248-136.736-101.6-136.736-140.928v-206.272l3.744-0.64a416.64 416.64 0 0 0 61.664-17.088l9.024-3.584 3.904-1.6a518.784 518.784 0 0 0 55.552-26.944z" fill="#444444" p-id="43585"></path><path d="M857.856 646.784l54.944 50.848-133.088 129.152-95.744-86.176 52.864-52.768 40.832 36.736z" fill="#444444" p-id="43586"></path></svg>