<?xml version="1.0" standalone="no"?><!DOCTYPE svg PUBLIC "-//W3C//DTD SVG 1.1//EN" "http://www.w3.org/Graphics/SVG/1.1/DTD/svg11.dtd"><svg t="1763844563153" class="icon" viewBox="0 0 1037 1024" version="1.1" xmlns="http://www.w3.org/2000/svg" p-id="28320" xmlns:xlink="http://www.w3.org/1999/xlink" width="202.5390625" height="200"><path d="M307.573 235.562a187.13 187.13 0 1 0 374.259 0 187.13 187.13 0 1 0-374.258 0z" fill="#515151" p-id="28321"></path><path d="M775.638 887.836l103.397 0a41.514 41.514 0 0 0 40.64199999-49.983L841.23 461.077a41.514 41.514 0 0 0-40.642-33.045l-217.31 0-78.155 164.214-77.949-164.214L210.902 428.032a41.514 41.514 0 0 0-40.641 33.045L91.814 837.853a41.514 41.514 0 0 0 40.642 49.969l103.493 0L235.949 631.199l539.69 1e-8 0 256.62299998z m-548.255 48.1l556.032-1e-8-12.938 53.47000001-530.17 0z" fill="#707070" p-id="28322"></path></svg>