<?xml version="1.0" standalone="no"?><!DOCTYPE svg PUBLIC "-//W3C//DTD SVG 1.1//EN" "http://www.w3.org/Graphics/SVG/1.1/DTD/svg11.dtd"><svg t="1763763217142" class="icon" viewBox="0 0 1024 1024" version="1.1" xmlns="http://www.w3.org/2000/svg" p-id="183818" xmlns:xlink="http://www.w3.org/1999/xlink" width="200" height="200"><path d="M650.3936 174.7968s102.2464 3.3792 143.9232 164.608c41.728 161.28-101.2736 235.3152-101.2736 235.3152l-62.464 5.5808V369.152s-47.7184-177.7664-164.5056-211.1488l184.32 16.7936z" fill="#E4F7FF" p-id="183819"></path><path d="M786.5856 462.2848s-36.8128 92.9792-115.712 112.7424c0 0 82.7392 46.08 7.68 110.4384 0 0 55.2448 94.72 149.76-13.312 0 0 55.6032-47.36 0-158.2592 0 0 11.1104-336.5888-177.92-339.0976 0 0 183.5008 52.1216 136.192 287.488z" fill="#134FB4" p-id="183820"></path><path d="M0 788.736a1621.1968 1621.1968 0 0 1 569.856-82.0736c192.4096 6.8096 348.3136 46.6432 454.144 82.0736a1265.2032 1265.2032 0 0 0-492.9024-107.2128A1269.0432 1269.0432 0 0 0 0 788.736" fill="#59D721" p-id="183821"></path><path d="M327.8336 556.032l-47.2576 146.3808s16.6912 50.944-58.368 48.128c-75.0592-2.7136-63.9488-21.248-36.1472-48.128v-65.6896s-25.4976-20.48-21.0944-177.1008c0 0 29.44 210.3296 162.8672 96.3584" fill="#134FB4" p-id="183822"></path><path d="M224.3584 580.8128c81.3056 14.592 35.84 6.656 127.1296-41.6768 23.7568-12.5952 64.512-29.1328 80.896-48.9472 43.8784-53.248 47.7184-109.568 47.7184-109.568s59.392-188.0064-58.368-222.3616c0 0-124.8256 5.4272-216.832 172.3392 0 0-34.9696 42.24-40.448 102.2976-5.5296 61.2864 18.8416 140.4928 59.904 147.9168z" fill="#E4F7FF" p-id="183823"></path><path d="M348.7744 342.272s42.6496 0 51.9168 36.1472c0 0 71.3216-66.7136 0-102.8096 0 0-49.152-8.3456-51.9168 66.6624M266.0352 463.872c-1.6384 10.0352 7.3728 25.1392 11.6224 30.0544 3.9424 4.608 10.752 9.216 20.48 14.08 0 0 41.9328-0.3584 28.0064-34.6624 0 0-23.04-29.5936-40.192-29.5936-9.3184 0-18.2784 10.0864-19.9168 20.1216zM226.6112 426.1376s6.5536 57.1392-25.6 57.1392c0 0-15.5136-41.1648 20.6336-57.856l4.9664 0.7168zM216.5248 343.7568l41.6768-50.0736s-16.6912-44.4928-41.6768-33.3312c0 0-41.728 16.64 0 83.4048" fill="#134FB4" p-id="183824"></path><path d="M432.384 163.6864s74.8544 15.872 41.472 190.976c0 0-22.2208 138.496-125.0816 186.0096 0 0 139.008-19.2 147.3536 44.7488v97.28s-102.912 41.728 0 66.7648c0 0 138.9568 22.4256 136.192-113.8688V372.224s1.6896-255.0272-220.2624-214.272l20.3264 5.6832z" fill="#134FB4" p-id="183825"></path><path d="M265.6256 529.408v15.104h-37.5296v-15.1552z" fill="#134FB4" p-id="183826"></path></svg>