<?xml version="1.0" standalone="no"?><!DOCTYPE svg PUBLIC "-//W3C//DTD SVG 1.1//EN" "http://www.w3.org/Graphics/SVG/1.1/DTD/svg11.dtd"><svg t="1763754848728" class="icon" viewBox="0 0 1024 1024" version="1.1" xmlns="http://www.w3.org/2000/svg" p-id="96892" xmlns:xlink="http://www.w3.org/1999/xlink" width="200" height="200"><path d="M0 0v1024h1024V0z m288.597333 128a232.448 232.448 0 0 1 166.058667 57.856L396.117333 256.512A155.818667 155.818667 0 0 0 285.696 213.333333c-68.266667 0-121.344 59.733333-121.344 131.413334v1.194666c0 77.312 53.077333 133.973333 128 133.973334a147.968 147.968 0 0 0 87.381333-25.429334V393.728H286.208v-80.213333H469.333333v183.296a274.261333 274.261333 0 0 1-180.394666 67.072c-131.242667 0-221.696-92.330667-221.696-217.258667v-1.194667A216.746667 216.746667 0 0 1 288.597333 128z m445.098667 0c130.218667 0 223.744 97.109333 223.744 217.088v1.194667a218.282667 218.282667 0 0 1-224.938667 218.453333c-130.389333-0.853333-223.914667-97.962667-223.914666-218.112v-1.194667A218.282667 218.282667 0 0 1 733.696 128z m-1.194667 85.333333A126.293333 126.293333 0 0 0 605.866667 344.234667v1.194666a128.341333 128.341333 0 0 0 128 132.778667 126.293333 126.293333 0 0 0 126.464-131.584v-1.194667A128.170667 128.170667 0 0 0 732.501333 213.333333zM96.085333 832h384V896h-384z" p-id="96893"></path></svg>