<?xml version="1.0" standalone="no"?><!DOCTYPE svg PUBLIC "-//W3C//DTD SVG 1.1//EN" "http://www.w3.org/Graphics/SVG/1.1/DTD/svg11.dtd"><svg t="1764094390588" class="icon" viewBox="0 0 1024 1024" version="1.1" xmlns="http://www.w3.org/2000/svg" p-id="49478" xmlns:xlink="http://www.w3.org/1999/xlink" width="200" height="200"><path d="M0 0m225.333008 0l573.333984 0q225.333008 0 225.333008 225.333008l0 573.333984q0 225.333008-225.333008 225.333008l-573.333984 0q-225.333008 0-225.333008-225.333008l0-573.333984q0-225.333008 225.333008-225.333008Z" fill="#F4D329" p-id="49479"></path><path d="M154.01256 137.260106l68.760073 68.270001s7.391083 23.41343-6.901011 32.284729c0 0-39.925849 34.004981-28.344152 74.920975 0 0 4.680686 31.794657 50.027328 45.096606 0 0 24.393573 1.480217 30.314441-2.710397 0 0 44.856571-25.87379 50.027328-60.628881 0 0 5.420794-17.002491-6.901011-41.156029L210.450828 147.121551s34.995126-13.061913 46.576823-48.797148c0 0 9.361371-38.935703-4.930723-57.668448 0 0-4.44065-5.910866-11.33166 0 0 0-28.834224 26.613899-44.356497 29.324296 0 0-8.381228 3.700542-14.052059 2.46036 0 0-12.571842 0-25.633755 12.571842 0 0-22.923358 27.604044-2.710397 52.247653z" fill="#00C9FD" p-id="49480"></path><path d="M95.353968 331.768599s-25.133682 66.729775-30.804513 153.972554c0 0-5.060741 133.329531 11.091625 196.168736 0 0 23.993515 99.314548 50.027328 134.309674 0 0 46.826859 72.70065 94.633863 98.824477 0 0 79.111589 47.316931 135.049783 56.18823 0 0 46.576823 11.581697 89.213068 13.31195h150.582058s126.178483-20.703033 146.631479-34.995126c0 0 111.146281-45.596679 153.292455-123.958158 0 0 56.438267-92.663574 62.839205-184.096967 0 0 12.321805-122.477941 2.960434-174.975631 0 0-13.551985-119.527509-39.185741-161.913718 0 0-37.705523-98.684456-138.750324-153.092426 0 0-84.042311-47.756996-185.577184-52.687718 0 0-182.366714-17.252527-275.030288 21.443141 0 0-12.321805 6.220911-13.061913 18.732744 0 0-0.830122 12.071768 9.811437 21.193105 0 0 8.181198 5.670831 18.77275 4.190614 0 0 80.831841-22.183249 116.317038-19.712888 0 0 176.205811-5.170757 213.421263 13.802022 0 0 87.732851 23.41343 127.408664 58.898628 0 0 60.128808 46.826859 86.752707 116.817111 0 0 27.844079 57.058358 32.034693 158.653241 0 0 3.700542 120.327626-5.420794 152.85239 0 0-13.802022 82.312057-35.735235 122.477941 0 0-31.294584 77.631372-119.527509 122.978015 0 0-30.554476 24.503589-144.171118 41.706109 0 0-97.594296 13.852029-187.547473 0 0 0-102.525018-4.000586-187.297436-67.329863 0 0-69.720213-41.116023-103.995234-165.114186 0 0-26.863935-106.855653-17.252527-189.217718 0 0 1.070157-94.193798 19.962924-140.280549l9.121336-27.354007s1.720252-18.732744-18.232671-25.87379c0 0-20.943068-3.830561-28.344152 14.102066z" fill="#FD6000" p-id="49481"></path><path d="M496.872784 407.179645l-69.750217 69.570191s-25.173688 16.902476-24.633609 74.61093c0 0-0.150022 24.993661 27.974098 56.628295l66.409728 65.799639s2.340343 60.768902-61.489007 86.472666c0 0-60.048796 27.684055-112.716511-29.664345 0 0-16.542423-14.022054-20.853055-47.636978V395.19789s14.20208-67.839937 77.721385-78.621517c0 0 50.067334-8.151194 83.522235 20.13295 0 0 40.405919 35.955267 33.814953 70.470322z" fill="#FD6000" p-id="49482"></path><path d="M443.66499 507.814387l163.353929-162.483801s42.776266-36.435337 100.254686-12.221791c0 0 34.385037 12.461825 53.237798 49.377233 0 0 20.292973 38.355618 1.84027 80.781834 0 0-8.631264 18.212668-17.742599 27.564037l-49.587264 48.927167 53.31781 54.147932s28.144123 31.4046 20.472999 74.550921c0 0-0.960141 41.466074-47.937022 72.390604 0 0-33.074845 23.733477-87.252781 9.35137 0 0-2.880422-0.720105-23.013371-13.421967L450.726024 580.014963s-27.324003-26.673907-7.071035-72.190575z" fill="#FD6000" p-id="49483"></path></svg>