<?xml version="1.0" standalone="no"?><!DOCTYPE svg PUBLIC "-//W3C//DTD SVG 1.1//EN" "http://www.w3.org/Graphics/SVG/1.1/DTD/svg11.dtd"><svg t="1764106482888" class="icon" viewBox="0 0 1024 1024" version="1.1" xmlns="http://www.w3.org/2000/svg" p-id="146117" xmlns:xlink="http://www.w3.org/1999/xlink" width="200" height="200"><path d="M837.85955555 4.096H186.14044445c-92.84266667 0-169.30133333 78.27911111-169.30133334 174.76266667v655.36c0 96.48355555 76.45866667 185.68533333 172.94222222 185.68533333h642.61688889c94.66311111 0 172.94222222-89.20177778 172.94222223-185.68533333v-655.36c0-96.48355555-74.63822222-174.76266667-167.4808889-174.76266667zM233.472 288.08533333h291.27111111c-16.384-30.94755555-34.58844445-60.07466667-50.97244444-91.02222222l41.87022222-12.74311111 58.25422222 101.94488889h240.29866667v145.63555556h-41.87022223v-107.40622223H275.34222222v105.58577778h-41.87022222v-141.99466667z m613.48977778 345.88444445H548.40888889v112.86755555c0 16.384-1.82044445 30.94755555-3.64088889 43.69066667-1.82044445 10.92266667-7.28177778 18.20444445-14.56355555 25.48622222-5.46133333 3.64088889-12.74311111 7.28177778-21.84533334 9.10222223-14.56355555 3.64088889-30.94755555 3.64088889-45.51111111 3.64088888H366.36444445l-7.28177778-38.22933333h91.02222222c10.92266667 0 20.02488889-1.82044445 30.94755556-3.64088889 5.46133333-1.82044445 9.10222222-3.64088889 14.56355555-7.28177778 5.46133333-3.64088889 7.28177778-9.10222222 9.10222222-16.384 1.82044445-10.92266667 3.64088889-20.02488889 3.64088889-30.94755555v-101.94488889h-309.47555556v-40.04977778h305.83466667V548.40888889l149.27644445-94.66311111H313.57155555v-38.22933333h411.42044445v38.22933333L548.40888889 568.43377778v25.48622222h298.55288889v40.04977778z" p-id="146118"></path></svg>