<?xml version="1.0" standalone="no"?><!DOCTYPE svg PUBLIC "-//W3C//DTD SVG 1.1//EN" "http://www.w3.org/Graphics/SVG/1.1/DTD/svg11.dtd"><svg t="1764100583107" class="icon" viewBox="0 0 1131 1024" version="1.1" xmlns="http://www.w3.org/2000/svg" p-id="107155" xmlns:xlink="http://www.w3.org/1999/xlink" width="220.8984375" height="200"><path d="M792.791579 862.315789H42.576842C19.132632 862.315789 0 837.658947 0 813.675789V281.276632C0 257.185684 19.213474 239.831579 42.576842 239.831579h750.214737c23.444211 0 42.576842 17.461895 42.576842 41.445053v532.506947c0 24.090947-19.132632 48.532211-42.576842 48.53221zM43.196632 269.473684A16.437895 16.437895 0 0 0 26.947368 286.019368v527.386948c0 9.162105 7.356632 16.572632 16.276211 16.572631h748.921263a16.437895 16.437895 0 0 0 16.276211-16.572631V286.046316A16.437895 16.437895 0 0 0 792.144842 269.473684H43.223579z" fill="#000000" p-id="107156"></path><path d="M531.941053 1023.299368H307.2a37.726316 37.726316 0 0 1-29.372632-13.71621 36.298105 36.298105 0 0 1-7.464421-31.043369l26.570106-119.915789c2.910316-13.500632 15.36-23.255579 29.372631-23.255579h187.904c14.012632 0 26.246737 9.754947 29.372632 23.14779v0.107789l25.114947 119.808c2.398316 10.967579-0.296421 22.231579-7.464421 30.962526a37.241263 37.241263 0 0 1-29.264842 13.904842zM325.227789 862.315789c-0.835368 0-1.670737 0.727579-1.994105 1.536l-26.570105 119.996632c-0.808421 3.853474 0.835368 6.602105 1.994105 8.030316 1.131789 1.428211 3.503158 3.557053 7.464421 3.557052h224.741053c4.042105 0 6.440421-2.236632 7.57221-3.557052a9.323789 9.323789 0 0 0 1.967158-8.030316v-0.107789l-25.114947-119.808c-0.296421-0.808421-0.943158-1.401263-1.886316-1.401264h-188.173474V862.315789zM13.931789 755.631158h808.421053v-32.336842h-808.421053v32.336842z" fill="#000000" p-id="107157"></path><path d="M337.273263 776.704m13.473684 0l134.736842 0q13.473684 0 13.473685 13.473684l0 0q0 13.473684-13.473685 13.473684l-134.736842 0q-13.473684 0-13.473684-13.473684l0 0q0-13.473684 13.473684-13.473684Z" fill="#000000" p-id="107158"></path><path d="M619.789474 916.210526v26.947369a80.842105 80.842105 0 0 0 80.842105 80.842105h350.315789a80.842105 80.842105 0 0 0 80.842106-80.842105V80.842105a80.842105 80.842105 0 0 0-80.842106-80.842105H700.631579a80.842105 80.842105 0 0 0-80.842105 80.842105v107.789474h33.441684V95.851789l-0.026947-0.296421a59.392 59.392 0 0 1 62.329263-64.889263H1026.425263a70.009263 70.009263 0 0 1 73.189053 74.617263l-0.134737 2.021053V916.210526l0.673684 10.213053a60.308211 60.308211 0 0 1-65.778526 64.026947H715.533474l-4.500211 0.431158a53.032421 53.032421 0 0 1-57.802105-58.098526v-12.422737L619.789474 916.210526z" fill="#000000" p-id="107159"></path><path d="M636.577684 204.934737c8.919579 0 16.788211-7.329684 16.788211-16.249263 0-8.919579-7.868632-16.087579-16.788211-16.087579S619.789474 179.738947 619.789474 188.685474c0 8.919579 7.868632 16.249263 16.78821 16.249263zM636.577684 932.378947c8.919579 0 16.788211-7.329684 16.788211-16.27621 0-8.892632-7.868632-16.087579-16.788211-16.087579s-16.788211 7.168-16.78821 16.087579c0 8.946526 7.868632 16.249263 16.78821 16.249263zM1012.520421 269.662316H741.322105a25.141895 25.141895 0 0 1-18.432-8.245895c-4.904421-5.281684-7.087158-18.000842-7.087158-25.438316v-70.063158c0-7.491368 2.182737-12.099368 7.087158-17.354105a25.168842 25.168842 0 0 1 18.432-8.245895h271.198316c6.925474 0 13.554526 2.964211 18.458947 8.245895 4.877474 5.254737 7.626105 12.395789 7.626106 19.860211v72.569263c0.134737 7.545263-2.533053 14.821053-7.437474 20.210526a25.141895 25.141895 0 0 1-18.647579 8.461474zM741.914947 167.989895v71.68h271.710316v-71.141053l-271.710316-0.538947z m134.278737 732.645052a53.517474 53.517474 0 0 1-37.78021-91.270736 53.382737 53.382737 0 0 1 91.216842 37.78021 53.436632 53.436632 0 0 1-53.436632 53.490526z m-0.619789-79.575579a26.947368 26.947368 0 0 0-24.899369 16.276211 25.950316 25.950316 0 0 0 5.847579 28.725895c7.706947 7.545263 19.294316 9.808842 29.372632 5.712842a26.381474 26.381474 0 0 0 16.626526-24.360421 26.677895 26.677895 0 0 0-26.947368-26.354527zM777.054316 350.315789h238.133895a26.947368 26.947368 0 0 1 26.947368 26.947369v80.842105a26.947368 26.947368 0 0 1-26.947368 26.947369h-238.133895H808.421053v-26.947369h205.608421v-80.842105H808.421053v-26.947369h-31.366737z" fill="#000000" p-id="107160"></path><path d="M402.189474 485.780211m16.168421 0l0 0q16.168421 0 16.168421 16.168421l0 102.4q0 16.168421-16.168421 16.168421l0 0q-16.168421 0-16.168421-16.168421l0-102.4q0-16.168421 16.168421-16.168421Z" fill="#000000" p-id="107161"></path><path d="M188.631579 538.947368m16.168421 0l0 0q16.168421 0 16.168421 16.168421l0 48.505264q0 16.168421-16.168421 16.168421l0 0q-16.168421 0-16.168421-16.168421l0-48.505264q0-16.168421 16.168421-16.168421Z" fill="#000000" p-id="107162"></path><path d="M296.421053 404.210526m16.168421 0l0 0q16.168421 0 16.168421 16.168421l0 183.242106q0 16.168421-16.168421 16.168421l0 0q-16.168421 0-16.168421-16.168421l0-183.242106q0-16.168421 16.168421-16.168421Z" fill="#000000" p-id="107163"></path><path d="M512 431.157895m16.168421 0l0 0q16.168421 0 16.168421 16.168421l0 156.294737q0 16.168421-16.168421 16.168421l0 0q-16.168421 0-16.168421-16.168421l0-156.294737q0-16.168421 16.168421-16.168421Z" fill="#000000" p-id="107164"></path><path d="M619.789474 458.105263m16.168421 0l0 0q16.168421 0 16.168421 16.168421l0 129.347369q0 16.168421-16.168421 16.168421l0 0q-16.168421 0-16.168421-16.168421l0-129.347369q0-16.168421 16.168421-16.168421Z" fill="#000000" p-id="107165"></path></svg>