<?xml version="1.0" standalone="no"?><!DOCTYPE svg PUBLIC "-//W3C//DTD SVG 1.1//EN" "http://www.w3.org/Graphics/SVG/1.1/DTD/svg11.dtd"><svg t="1764095635403" class="icon" viewBox="0 0 1024 1024" version="1.1" xmlns="http://www.w3.org/2000/svg" p-id="60308" xmlns:xlink="http://www.w3.org/1999/xlink" width="200" height="200"><path d="M922.86 524.38l-84.15 50.57v-51.94c0-49.3-40.34-89.64-89.64-89.64H89.64C40.34 433.37 0 473.71 0 523.01v388.17c0 49.3 40.34 89.64 89.64 89.64h659.43c49.3 0 89.64-40.34 89.64-89.64v-51.94l84.15 50.57c44.49 26.74 101.14-5.31 101.14-57.22V581.6c0-51.91-56.65-83.96-101.14-57.22zM560.95 754l-149.56 86.35c-28.41 16.4-63.92-4.1-63.92-36.91v-172.7c0-32.81 35.51-53.31 63.92-36.91l149.56 86.35c28.41 16.41 28.41 57.42 0 73.82z" fill="#5F5F5F" p-id="60309"></path><path d="M593.19 214.94m-191.76 0a191.76 191.76 0 1 0 383.52 0 191.76 191.76 0 1 0-383.52 0Z" fill="#5F5F5F" p-id="60310"></path><path d="M151.83962 367.15065a118.58 118.58 0 1 0 167.694517-167.700371 118.58 118.58 0 1 0-167.694517 167.700371Z" fill="#5F5F5F" p-id="60311"></path></svg>