<?xml version="1.0" standalone="no"?><!DOCTYPE svg PUBLIC "-//W3C//DTD SVG 1.1//EN" "http://www.w3.org/Graphics/SVG/1.1/DTD/svg11.dtd"><svg t="1764736004990" class="icon" viewBox="0 0 1024 1024" version="1.1" xmlns="http://www.w3.org/2000/svg" p-id="7144" xmlns:xlink="http://www.w3.org/1999/xlink" width="200" height="200"><path d="M956 70.1H68C34.4 70.1 7 97 7 130v602.2c0 33 27.4 59.9 61 59.9h304.3v43.6c0 39.9-33.1 72.4-73.8 72.4h-67.1c-12.9 0-23.3 10.2-23.3 22.9 0 12.6 10.4 22.9 23.3 22.9h561.1c12.9 0 23.3-10.2 23.3-22.9 0-12.6-10.4-22.9-23.3-22.9h-67.1c-40.7 0-73.8-32.5-73.8-72.4v-43.6H956c33.6 0 61-26.9 61-59.9V130c0-33-27.3-59.9-61-59.9z m-562.5 838c15.9-20 25.4-45.2 25.4-72.4v-43.6h186.3v43.6c0 27.3 9.5 52.4 25.4 72.4H393.5z m576.9-175.9c0 7.8-6.5 14.2-14.4 14.2H68c-7.9 0-14.4-6.3-14.4-14.2V612h916.9v120.2z m0-165.9H53.6V130c0-7.8 6.5-14.2 14.4-14.2h888c7.9 0 14.4 6.3 14.4 14.1v436.4z m0 0" fill="#4E8CEE" p-id="7145"></path><path d="M486.9 679.2c0 8.8 4.8 17 12.6 21.4 7.8 4.4 17.4 4.4 25.1 0 7.8-4.4 12.6-12.6 12.6-21.4 0-13.6-11.3-24.7-25.1-24.7-14 0-25.2 11.1-25.2 24.7z m65-451.5c-9.1-8.9-23.8-8.9-32.9 0L354.4 389.3c-9.1 8.9-9.1 23.4 0 32.3 4.4 4.3 10.3 6.7 16.5 6.7 6.2 0 12.1-2.4 16.5-6.7L551.9 260c9.1-8.9 9.1-23.4 0-32.3z m97.6 93.6c-9.1-8.9-23.8-8.9-32.9 0L551 385.7c-9.1 8.9-9.1 23.4 0 32.3 4.4 4.3 10.3 6.7 16.5 6.7 6 0 11.9-2.2 16.5-6.7l65.6-64.4c8.9-8.9 8.9-23.3-0.1-32.3z m0 0" fill="#4E8CEE" p-id="7146"></path></svg>