<?xml version="1.0" standalone="no"?><!DOCTYPE svg PUBLIC "-//W3C//DTD SVG 1.1//EN" "http://www.w3.org/Graphics/SVG/1.1/DTD/svg11.dtd"><svg t="1764103334552" class="icon" viewBox="0 0 1024 1024" version="1.1" xmlns="http://www.w3.org/2000/svg" p-id="130359" xmlns:xlink="http://www.w3.org/1999/xlink" width="200" height="200"><path d="M640 970.666667H384c-231.765333 0-330.666667-98.901333-330.666667-330.666667V384c0-231.765333 98.901333-330.666667 330.666667-330.666667h256c231.765333 0 330.666667 98.901333 330.666667 330.666667v256c0 231.765333-98.901333 330.666667-330.666667 330.666667z m-256-853.333334C187.136 117.333333 117.333333 187.136 117.333333 384v256c0 196.864 69.802667 266.666667 266.666667 266.666667h256c196.864 0 266.666667-69.802667 266.666667-266.666667V384c0-196.864-69.76-266.666667-266.666667-266.666667z" p-id="130360"></path><path d="M320 714.666667a32.426667 32.426667 0 0 1-32-32V341.333333a32.426667 32.426667 0 0 1 32-32h85.333333a117.333333 117.333333 0 0 1 0 234.666667H352V682.666667a32.042667 32.042667 0 0 1-32 32z m32.042667-341.333334v106.666667H405.333333a53.333333 53.333333 0 0 0 0-106.666667zM597.333333 714.666667a32 32 0 0 1 0-64h53.333334a21.333333 21.333333 0 0 0 0-42.666667 85.333333 85.333333 0 0 1 0-170.666667h53.333333a32.213333 32.213333 0 0 1 32 32 32.213333 32.213333 0 0 1-32 32h-53.333333a21.333333 21.333333 0 0 0 0 42.666667 85.333333 85.333333 0 0 1 0 170.666667z" p-id="130361"></path></svg>