<?xml version="1.0" standalone="no"?><!DOCTYPE svg PUBLIC "-//W3C//DTD SVG 1.1//EN" "http://www.w3.org/Graphics/SVG/1.1/DTD/svg11.dtd"><svg t="1764997414003" class="icon" viewBox="0 0 1024 1024" version="1.1" xmlns="http://www.w3.org/2000/svg" p-id="26893" xmlns:xlink="http://www.w3.org/1999/xlink" width="200" height="200"><path d="M790.4 728.192a18.24 18.24 0 0 0-10.752 1.152c-55.424 24.768-109.376 42.432-161.728 52.928-113.152 22.528-223.424 10.752-330.752-35.264-29.76-12.8-71.232-34.496-124.224-65.088a8.576 8.576 0 0 0-4.8-1.728 9.408 9.408 0 0 0-4.736 0.768 8.448 8.448 0 0 0-3.328 2.752c-0.832 1.152-1.024 2.688-0.384 4.736 0.576 1.92 1.92 4.096 4.16 6.464 9.344 10.752 20.992 22.208 34.752 34.304 13.76 12.16 32 25.856 54.848 41.152 22.72 15.36 46.592 28.992 71.36 40.832 24.832 11.904 53.632 21.888 86.528 30.016 32.832 8.064 65.664 12.16 98.432 12.16 32.64 0 64.32-3.264 94.976-9.6 30.784-6.4 56.768-14.016 77.888-22.784 21.12-8.704 40.512-18.496 58.368-29.056 17.792-10.56 30.912-19.52 39.488-26.624 8.576-7.232 14.72-12.8 18.176-17.088 4.16-4.992 6.208-9.28 6.208-13.12 0.128-3.904-1.536-6.208-4.48-6.912z m74.944-43.968c-3.84-4.736-14.272-7.872-31.36-9.408a192.256 192.256 0 0 0-44.8 0.32 149.76 149.76 0 0 0-42.56 11.776c-14.656 6.272-21.056 11.52-19.456 15.68l0.64 1.152 0.832 0.64 1.28 0.128h4.096l2.88-0.128 3.52-0.384c1.088-0.064 2.624-0.256 4.608-0.32a49.536 49.536 0 0 0 5.376-0.64l9.28-0.768 12.864-1.152a263.68 263.68 0 0 1 27.52-0.832l12.288 0.96c4.608 0.384 8.32 1.152 11.2 2.368a14.208 14.208 0 0 1 6.4 4.48c4.608 5.824 3.712 18.688-2.752 38.656s-12.608 35.84-18.368 47.68c-2.56 4.992-2.56 8.064 0 9.408 2.56 1.28 6.016 0.064 10.752-3.52 14.016-10.752 25.728-26.88 35.2-48.64 5.44-12.8 9.408-26.24 11.776-40.192 2.176-14.016 1.792-23.04-1.152-27.264z" fill="#FC9D1C" p-id="26894"></path><path d="M513.984 367.04a440.128 440.128 0 0 0-45.632 6.912c-17.92 3.392-34.432 7.744-49.664 12.8a264.32 264.32 0 0 0-46.72 21.12c-16 9.024-29.504 19.328-40.704 30.848a133.76 133.76 0 0 0-27.52 43.264 148.48 148.48 0 0 0-10.688 57.152c0 22.592 3.904 42.624 11.904 60.352 7.872 17.728 18.432 31.616 31.68 41.92 13.184 10.368 28.224 18.432 44.8 24.32 16.64 5.888 34.24 8.576 52.48 7.808 18.304-0.704 36.16-3.584 53.504-8.576 17.28-4.864 33.536-12.8 48.64-23.552 15.104-10.688 27.52-23.424 37.184-38.016 3.584 5.504 6.72 9.6 9.6 12.224l7.168 7.424a1179.904 1179.904 0 0 0 52.288 49.792l86.72-83.2-4.992-4.032a102.848 102.848 0 0 1-12.608-11.904c-4.8-5.12-9.6-10.88-14.272-17.088a95.744 95.744 0 0 1-12.224-21.504 61.44 61.44 0 0 1-5.12-23.744V292.672c0-8.448-1.6-17.472-4.736-27.328a120.384 120.384 0 0 0-17.216-31.872c-8.32-11.52-18.56-21.76-30.848-30.72-12.416-9.024-28.8-16.64-49.536-22.848a240.96 240.96 0 0 0-69.056-9.216 282.24 282.24 0 0 0-72.704 9.024 211.2 211.2 0 0 0-57.856 24.32 181.76 181.76 0 0 0-41.28 35.264c-11.52 13.44-20.032 27.392-25.6 41.984a123.008 123.008 0 0 0-8.32 44.16l112.192 9.92c4.544-13.632 10.688-25.472 18.304-35.648a100.48 100.48 0 0 1 21.376-22.016c6.656-4.608 13.824-8.256 21.376-11.008 7.616-2.752 12.8-4.16 15.36-4.48a67.84 67.84 0 0 1 6.4-0.32c22.144 0 37.504 6.528 46.08 19.648 5.44 7.872 8.128 19.84 8.128 36.032v47.104c-12.672 0.448-25.28 1.28-37.888 2.368z m37.952 126.4c0 13.824-1.856 26.432-5.376 37.504-7.68 24.192-22.208 39.424-43.52 45.568a61.376 61.376 0 0 1-53.12-8.128 55.68 55.68 0 0 1-26.688-49.344c0-16.64 4.16-30.72 12.48-42.56 8.32-11.712 19.328-20.544 33.216-26.368 13.824-5.824 27.392-9.984 40.64-12.416 13.248-2.496 27.392-3.968 42.368-4.48v60.224z" fill="#4A4B4E" p-id="26895"></path></svg>