<?xml version="1.0" standalone="no"?><!DOCTYPE svg PUBLIC "-//W3C//DTD SVG 1.1//EN" "http://www.w3.org/Graphics/SVG/1.1/DTD/svg11.dtd"><svg t="1764092561438" class="icon" viewBox="0 0 1391 1024" version="1.1" xmlns="http://www.w3.org/2000/svg" p-id="39934" xmlns:xlink="http://www.w3.org/1999/xlink" width="271.6796875" height="200"><path d="M1120.49397562 200.75516443c-10.00106667-5.00167111-14.31893333 4.53176889-20.16142223 9.37642667-1.99111111 1.56330667-3.69095111 3.59537778-5.3907911 5.47043556-14.61361778 15.94026667-31.68711111 26.41237333-54.01713779 25.16195555-32.62464-1.87505778-60.48312889 8.59591111-85.09895111 34.07075555-5.23491555-31.41404445-22.62243555-50.16803555-49.09283554-62.2023111-13.87064889-6.25095111-27.85848889-12.50304-37.56828446-26.10062222-6.7584-9.68931555-8.59591111-20.47317333-11.99445333-31.10001778-2.14926222-6.40796445-4.29852445-12.97180445-11.52568888-14.06634667-7.87342222-1.25041778-10.94087111 5.47043555-14.02766223 11.09674666-12.30734222 22.97400889-17.09397333 48.29297778-16.60586667 73.92369779 1.05585778 57.67054222 24.92871111 103.61856 72.32284444 136.28302222 5.39192889 3.75011555 6.77888 7.50136889 5.07904001 12.97066665-3.22332445 11.25262222-7.09176889 22.19349333-10.47096888 33.44611557-2.1504 7.18961778-5.37258667 8.75178667-12.93312002 5.62631111-26.00277333-11.09674667-48.46933333-27.50691555-68.33720888-47.35431111-33.69870222-33.29024-64.17521778-70.01770667-102.17244445-98.77390223a449.32664889 449.32664889 0 0 0-27.09617778-18.91100444c-38.77888-38.44664889 5.07904-70.01656889 15.23825776-73.76782223 10.60750222-3.90712889 3.69208889-17.34769778-30.63239107-17.19182222s-65.71918222 11.8784-105.7291378 27.50691556c-5.85955555 2.34382222-12.01493333 4.06300445-18.30456888 5.47043556-36.33720889-7.03374222-74.04088889-8.59591111-113.44554665-4.06414223-74.17742222 8.44003555-133.43061333 44.22997333-176.99498669 105.33774223-52.31729778 73.45493333-64.64512 156.91320889-49.54339556 243.96458665 15.82421333 91.74129778 61.71306667 167.69706667 132.1995378 227.08565335 73.10336 61.57653333 157.28412445 91.74129778 253.32280886 85.95911111 58.33386667-3.43950222 123.27139555-11.40963555 196.53063112-74.70648889 18.48092445 9.37756445 37.88003555 13.12881778 70.03704889 15.94140444 24.79104 2.34382222 48.64455111-1.25041778 67.10613334-5.15754666 28.93255111-6.25095111 26.91982222-33.60199111 16.46819554-38.60252445-84.80540445-40.32284445-66.18794667-23.91267555-83.10556443-37.1962311 43.09560889-52.04423111 108.03313778-106.12053333 133.43061334-281.31783113 2.01159111-13.90933333 0.31175111-22.66112 0-33.91374221-0.15701333-6.87672889 1.36647111-9.53457778 9.08401779-10.31509334 21.23548445-2.50083555 41.86567111-8.44003555 60.79601776-19.06687999 54.93418667-30.63239111 77.1072-80.95744 82.34325333-141.28469333 0.78165333-9.22055111-0.15587555-18.75399111-9.70979555-23.5986489M641.68864228 743.6970311c-82.16803555-65.95356445-122.04145778-87.67715555-138.50965334-86.73962666-15.39413333 0.93752889-12.62023111 18.91100445-9.24103111 30.6323911 3.53621333 11.56551111 8.16583111 19.53564445 14.63182225 29.69486223 4.45553778 6.72085333 7.54232889 16.72305778-4.47260446 24.22442667-26.47153778 16.72305778-72.47872-5.62631111-74.62684445-6.71971556-53.56771555-32.19569778-98.36430222-74.70648889-129.91488001-132.84465778-30.47537778-55.95136-48.15530667-115.96572445-51.08622223-180.04309332-0.78165333-15.47264 3.69208889-20.94307555 18.75512891-23.75680002a181.68376889 181.68376889 0 0 1 60.18958224-1.56216888c83.88835555 12.50417778 155.31121778 50.79381333 215.16856886 111.43395555 34.16860445 34.53838222 60.01436445 75.79875555 86.66112 116.1216 28.30791111 42.82140445 58.78442667 83.61301333 97.56330667 117.0579911 13.69429333 11.72138667 24.61468445 20.63018667 35.08565332 27.19402668-31.55057778 3.59537778-84.19896889 4.37589333-120.20394665-24.69319111m39.40352001-258.65557333c0-6.87672889 5.39306667-12.34716445 12.17080887-12.34716445q2.30513778 0.03982222 4.14151112 0.78165334a12.24931555 12.24931555 0 0 1 7.85408 11.56551111 12.19015111 12.19015111 0 0 1-12.15146665 12.34716444 12.05361778 12.05361778 0 0 1-12.01493334-12.34716444m122.35434666 64.07736888c-7.83473778 3.28248889-15.68768 6.09621333-23.24821333 6.40796445-11.68270222 0.62577778-24.45880889-4.21888-31.37422224-10.15808-10.78385778-9.22168889-18.48206222-14.37923555-21.70538665-30.47651556-1.38695111-6.87672889-0.62577778-17.50357333 0.60643556-23.59864889 2.77390222-13.12881778-0.31288889-21.56771555-9.37756445-29.22609777-7.38417778-6.25208889-16.78222222-7.97127111-27.09617777-7.9712711-3.84910222 0-7.38417778-1.71804445-10.00220445-3.12547557a10.25592889 10.25592889 0 0 1-4.4544-14.37809778c1.07406222-2.18794667 6.31011555-7.50250667 7.5411911-8.44003555 14.00604445-8.12714667 30.16248889-5.46929778 45.08785778 0.62577778 13.85130667 5.78218667 24.30293333 16.41016889 39.40465779 31.41404443 15.39413333 18.12935111 18.16803555 23.13102222 26.91982221 36.72746669 6.93589333 10.62684445 13.24600889 21.56771555 17.54453332 34.06961775 2.63623111 7.81539555-0.76231111 14.22222222-9.84632887 18.12935112" fill="#4D6BFE" p-id="39935"></path></svg>