<?xml version="1.0" standalone="no"?><!DOCTYPE svg PUBLIC "-//W3C//DTD SVG 1.1//EN" "http://www.w3.org/Graphics/SVG/1.1/DTD/svg11.dtd"><svg t="1764100255790" class="icon" viewBox="0 0 1024 1024" version="1.1" xmlns="http://www.w3.org/2000/svg" p-id="95344" xmlns:xlink="http://www.w3.org/1999/xlink" width="200" height="200"><path d="M850.85 233.45H620l50.85-110.7c7.2-16.2 0-35.1-15.75-42.3-4.05-1.8-8.55-2.7-12.6-2.7-12.6 0-24.75 7.2-29.7 18.45l-63 137.25H446.75l-63-137.25c-4.95-11.25-17.1-18.45-29.7-18.45-4.5 0-9 0.9-13.05 2.7-7.65 3.6-13.95 9.9-16.65 18-3.15 8.1-2.7 16.65 0.9 24.3l50.85 110.7H173.15c-38.25 0-69.3 31.5-69.3 69.75V867.5c0 38.25 31.05 69.3 69.3 69.75h677.7c38.25 0 69.3-31.5 69.3-69.75V303.2c0-38.25-31.05-69.3-69.3-69.75z m5.85 639.9H167.75V297.8h688.5l0.45 575.55z" p-id="95345"></path><path d="M446.3 777.5c-6.75 0-13.5-1.35-19.8-4.5-15.75-7.65-26.1-23.4-26.1-41.4V463.4c0-17.55 9.9-33.3 26.1-41.4 15.75-7.65 34.65-5.4 48.15 5.4l168.3 134.1c10.8 8.55 17.1 21.6 17.1 35.55 0 13.95-6.3 27-17.1 35.55l-168.3 134.1c-8.55 7.2-18.45 10.8-28.35 10.8z m4.5-304.65v249.3l156.6-124.65-156.6-124.65z" p-id="95346"></path></svg>