<?xml version="1.0" standalone="no"?><!DOCTYPE svg PUBLIC "-//W3C//DTD SVG 1.1//EN" "http://www.w3.org/Graphics/SVG/1.1/DTD/svg11.dtd"><svg t="1764099596084" class="icon" viewBox="0 0 1024 1024" version="1.1" xmlns="http://www.w3.org/2000/svg" p-id="81914" xmlns:xlink="http://www.w3.org/1999/xlink" width="200" height="200"><path d="M551.04 821.12h-41.6c-12.16 0-22.4-8.96-22.4-19.84V755.2c0-10.88 10.24-19.84 22.4-19.84h41.6c4.48 0 7.68 3.2 7.68 7.68v71.04c0 3.84-3.2 7.04-7.68 7.04z m-41.6-71.04c-3.84 0-7.68 2.56-7.68 5.12v46.08c0 1.92 3.2 5.12 7.68 5.12H544v-56.32h-34.56z" fill="#00ABE0" p-id="81915"></path><path d="M558.08 826.88c-7.68 0-14.08-5.76-14.08-13.44 0-4.48 3.2-7.68 7.68-7.68 3.84 0 6.4 2.56 7.68 5.76 1.28 0 2.56-0.64 3.84-1.28 1.28-2.56 3.84-4.48 7.04-4.48 4.48 0 7.68 3.2 7.68 7.68-1.28 9.6-13.44 13.44-19.84 13.44zM551.04 750.08c-4.48 0-7.68-3.2-7.68-7.68 0-7.68 6.4-13.44 14.08-13.44 6.4 0 18.56 3.84 18.56 13.44 0 4.48-3.2 7.68-7.68 7.68-3.2 0-5.76-1.92-7.04-4.48-0.64-0.64-2.56-1.28-3.84-1.28 0.64 3.2-2.56 5.76-6.4 5.76z" fill="#00ABE0" p-id="81916"></path><path d="M700.16 451.2c-12.16 0-24.32-1.28-35.84-4.48-3.84-1.28-6.4-5.12-5.76-8.96 1.28-3.84 5.12-6.4 8.96-5.76 10.24 2.56 21.12 3.84 32 3.84 75.52 0 136.96-61.44 136.96-136.96 0-75.52-61.44-136.96-136.96-136.96-74.88 0-136.32 61.44-136.32 136.96 0 10.24 1.28 20.48 3.2 30.08 0.64 3.84-1.92 8.32-5.76 8.96-3.84 0.64-8.32-1.92-8.96-5.76-2.56-10.88-3.84-22.4-3.84-33.28 0-83.84 68.48-152.32 152.32-152.32 83.84 0 152.32 68.48 152.32 152.32 0 83.84-68.48 152.32-152.32 152.32z" fill="#211D1C" p-id="81917"></path><path d="M700.16 520.32c-1.28 0-3.2-0.64-4.48-1.28l-45.44-33.28-48 5.12c-4.48 0.64-7.68-2.56-8.32-6.4-0.64-3.84 2.56-7.68 6.4-8.32l51.2-5.76c1.92 0 3.84 0 5.12 1.28l43.52 32 43.52-32c1.28-1.28 3.2-1.92 5.12-1.28l53.12 5.76 21.76-49.28c0.64-1.92 1.92-3.2 3.84-3.84l49.28-21.76-5.76-53.12c0-1.92 0-3.84 1.28-5.12l32-43.52-32-43.52c-1.28-1.28-1.92-3.2-1.28-5.12l5.76-53.12-49.28-21.76c-1.92-0.64-3.2-1.92-3.84-3.84l-21.76-49.28-53.12 5.12c-1.92 0-3.84 0-5.12-1.28l-43.52-32-43.52 32c-1.28 1.28-3.2 1.92-5.12 1.28l-53.12-5.76-21.76 49.28c-0.64 1.92-1.92 3.2-3.84 3.84l-49.28 21.76 5.76 53.12c0 1.92 0 3.84-1.28 5.12l-32 43.52 32 43.52c1.28 1.28 1.92 3.2 1.28 5.12l-5.76 51.2c-0.64 3.84-4.48 7.04-8.32 6.4-3.84-0.64-7.04-4.48-6.4-8.32l5.12-48-33.28-45.44c-1.92-2.56-1.92-6.4 0-8.96l33.28-45.44-6.4-56.32c-0.64-3.2 1.28-6.4 4.48-7.68l51.84-22.4 22.4-51.84c1.28-3.2 4.48-5.12 7.68-4.48l56.32 6.4 45.44-33.28c2.56-1.92 6.4-1.92 8.96 0l45.44 33.28 56.32-6.4c3.2-0.64 6.4 1.28 7.68 4.48l22.4 51.84 51.84 22.4c3.2 1.28 5.12 4.48 4.48 7.68l-6.4 56.32 33.28 45.44c1.92 2.56 1.92 6.4 0 8.96l-33.28 45.44 6.4 56.32c0.64 3.2-1.28 6.4-4.48 7.68l-51.84 22.4-22.4 51.84c-1.28 3.2-4.48 5.12-7.68 4.48l-56.32-6.4-45.44 33.28c-1.28 1.28-3.2 1.92-4.48 1.92z" fill="#211D1C" p-id="81918"></path><path d="M700.16 298.88m-17.92 0a17.92 17.92 0 1 0 35.84 0 17.92 17.92 0 1 0-35.84 0Z" fill="#00ABE0" p-id="81919"></path><path d="M718.08 373.76h-1.92l-67.2-17.92c-2.56-0.64-4.48-2.56-5.12-5.12l-17.92-67.2c-0.64-2.56 0-5.12 1.92-7.04l49.28-49.28c1.92-1.92 4.48-2.56 7.04-1.92l67.2 17.92c2.56 0.64 4.48 2.56 5.12 5.12l17.92 67.2c0.64 2.56 0 5.12-1.92 7.04l-49.28 49.28c-1.28 1.28-3.2 1.92-5.12 1.92z m-60.8-31.36l58.88 16 42.88-42.88-16-58.88-58.88-16-42.88 42.88 16 58.88z" fill="#211D1C" p-id="81920"></path><path d="M186.24 940.16c-10.88 0-21.76-1.28-32.64-4.48-2.56-0.64-4.48-2.56-5.12-5.12-0.64-2.56 0-5.12 1.92-7.04l74.88-74.88-16-58.88-58.88-16-74.88 74.88c-1.92 1.92-4.48 2.56-7.04 1.92-2.56-0.64-4.48-2.56-5.12-5.12-12.16-44.16 0.64-91.52 32.64-124.16 25.6-25.6 61.44-39.04 97.28-37.12 15.36 0.64 30.08-4.48 40.32-14.72l302.08-302.08c10.24-10.24 16-24.96 14.72-40.32-1.92-36.48 11.52-71.68 37.12-97.28 32.64-32.64 80-45.44 124.8-33.28 2.56 0.64 4.48 2.56 5.12 5.12 0.64 2.56 0 5.12-1.92 7.04l-74.88 74.88 16 58.88 58.88 16 74.88-74.88c1.92-1.92 4.48-2.56 7.04-1.92 2.56 0.64 4.48 2.56 5.12 5.12 11.52 43.52-1.28 90.88-33.28 122.88-25.6 25.6-60.8 39.68-97.28 37.76-15.36-0.64-29.44 4.48-39.68 14.72l-303.36 303.36c-10.24 10.24-16 24.96-14.72 40.32 1.92 36.48-11.52 71.68-37.12 97.28-24.32 24.32-56.96 37.12-90.88 37.12z m-15.36-16c34.56 5.12 70.4-7.04 95.36-32 22.4-22.4 34.56-53.76 32.64-85.76-1.28-19.2 5.76-38.4 19.2-51.84l303.36-303.36c13.44-13.44 32-20.48 51.2-19.2 32 1.28 63.36-10.24 85.76-33.28 24.96-24.96 36.48-60.16 32-94.72L723.2 371.84c-1.92 1.92-4.48 2.56-7.04 1.92l-67.2-17.92c-2.56-0.64-4.48-2.56-5.12-5.12l-17.92-67.2c-0.64-2.56 0-5.12 1.92-7.04l68.48-68.48c-35.2-5.12-71.68 6.4-96.64 32-22.4 22.4-34.56 53.76-32.64 85.76 1.28 19.84-5.76 38.4-19.2 51.84l-302.08 302.08c-13.44 13.44-32 20.48-51.84 19.2-32-1.92-63.36 10.24-85.76 32.64-24.96 24.96-37.12 60.8-32 96l67.84-67.84c1.92-1.92 4.48-2.56 7.04-1.92l67.2 17.92c2.56 0.64 4.48 2.56 5.12 5.12l17.92 67.2c0.64 2.56 0 5.12-1.92 7.04l-68.48 69.12z" fill="#211D1C" p-id="81921"></path><path d="M606.08 444.8c-1.92 0-3.84-0.64-5.12-1.92-3.2-3.2-3.2-7.68 0-10.88l1.28-1.28c3.2-3.2 7.68-3.2 10.88 0s3.2 7.68 0 10.88l-1.28 1.28c-1.92 1.28-3.84 1.92-5.76 1.92zM318.72 732.16c-1.92 0-3.84-0.64-5.12-1.92-3.2-3.2-3.2-7.68 0-10.88l1.92-1.92c3.2-3.2 7.68-3.2 10.88 0s3.2 7.68 0 10.88l-1.92 1.92c-1.92 1.28-3.84 1.92-5.76 1.92z m15.36-14.72c-1.92 0-3.84-0.64-5.12-1.92-3.2-3.2-3.2-7.68 0-10.88l1.92-1.92c3.2-3.2 7.68-3.2 10.88 0s3.2 7.68 0 10.88l-1.92 1.92c-1.92 0.64-3.84 1.92-5.76 1.92z m14.72-15.36c-1.92 0-3.84-0.64-5.12-1.92-3.2-3.2-3.2-7.68 0-10.88l1.92-1.92c3.2-3.2 7.68-3.2 10.88 0s3.2 7.68 0 10.88l-1.92 1.92c-1.92 1.28-3.84 1.92-5.76 1.92z m15.36-15.36c-1.92 0-3.84-0.64-5.12-1.92-3.2-3.2-3.2-7.68 0-10.88l1.92-1.92c3.2-3.2 7.68-3.2 10.88 0s3.2 7.68 0 10.88l-1.92 1.92c-1.92 1.28-3.84 1.92-5.76 1.92z m15.36-14.72c-1.92 0-3.84-0.64-5.12-1.92-3.2-3.2-3.2-7.68 0-10.88l1.92-1.92c3.2-3.2 7.68-3.2 10.88 0s3.2 7.68 0 10.88l-1.92 1.92c-1.92 1.28-3.84 1.92-5.76 1.92z m14.72-15.36c-1.92 0-3.84-0.64-5.12-1.92-3.2-3.2-3.2-7.68 0-10.88l1.92-1.92c3.2-3.2 7.68-3.2 10.88 0s3.2 7.68 0 10.88l-1.92 1.92c-1.92 1.28-3.84 1.92-5.76 1.92z m15.36-14.72c-1.92 0-3.84-0.64-5.12-1.92-3.2-3.2-3.2-7.68 0-10.88l1.92-1.92c3.2-3.2 7.68-3.2 10.88 0s3.2 7.68 0 10.88l-1.92 1.92c-1.92 0.64-3.84 1.92-5.76 1.92z m14.72-15.36c-1.92 0-3.84-0.64-5.12-1.92-3.2-3.2-3.2-7.68 0-10.88l1.92-1.92c3.2-3.2 7.68-3.2 10.88 0s3.2 7.68 0 10.88l-1.92 1.92c-1.92 1.28-3.84 1.92-5.76 1.92z m15.36-15.36c-1.92 0-3.84-0.64-5.12-1.92-3.2-3.2-3.2-7.68 0-10.88l1.92-1.92c3.2-3.2 7.68-3.2 10.88 0s3.2 7.68 0 10.88l-1.92 1.92c-1.92 1.28-3.84 1.92-5.76 1.92z m15.36-14.72c-1.92 0-3.84-0.64-5.12-1.92-3.2-3.2-3.2-7.68 0-10.88l1.92-1.92c3.2-3.2 7.68-3.2 10.88 0s3.2 7.68 0 10.88l-1.92 1.92c-1.92 1.28-3.84 1.92-5.76 1.92z m14.72-15.36c-1.92 0-3.84-0.64-5.12-1.92-3.2-3.2-3.2-7.68 0-10.88l1.92-1.92c3.2-3.2 7.68-3.2 10.88 0s3.2 7.68 0 10.88l-1.92 1.92c-1.92 1.28-3.84 1.92-5.76 1.92z m15.36-15.36c-1.92 0-3.84-0.64-5.12-1.92-3.2-3.2-3.2-7.68 0-10.88l1.92-1.92c3.2-3.2 7.68-3.2 10.88 0s3.2 7.68 0 10.88l-1.92 1.92c-1.92 1.28-3.84 1.92-5.76 1.92z m15.36-14.72c-1.92 0-3.84-0.64-5.12-1.92-3.2-3.2-3.2-7.68 0-10.88l1.92-1.92c3.2-3.2 7.68-3.2 10.88 0s3.2 7.68 0 10.88l-2.56 1.28c-1.28 1.92-3.2 2.56-5.12 2.56z m14.72-15.36c-1.92 0-3.84-0.64-5.12-1.92-3.2-3.2-3.2-7.68 0-10.88l1.92-1.92c3.2-3.2 7.68-3.2 10.88 0s3.2 7.68 0 10.88l-1.92 1.92c-1.92 1.28-3.84 1.92-5.76 1.92z m15.36-14.72c-1.92 0-3.84-0.64-5.12-1.92-3.2-3.2-3.2-7.68 0-10.88l1.92-1.92c3.2-3.2 7.68-3.2 10.88 0s3.2 7.68 0 10.88l-2.56 1.28c-1.28 1.28-3.2 2.56-5.12 2.56z m14.72-15.36c-1.92 0-3.84-0.64-5.12-1.92-3.2-3.2-3.2-7.68 0-10.88l1.92-1.92c3.2-3.2 7.68-3.2 10.88 0s3.2 7.68 0 10.88l-1.92 1.92c-1.92 1.28-3.84 1.92-5.76 1.92z m15.36-15.36c-1.92 0-3.84-0.64-5.12-1.92-3.2-3.2-3.2-7.68 0-10.88l1.92-1.92c3.2-3.2 7.68-3.2 10.88 0s3.2 7.68 0 10.88l-1.92 1.92c-1.92 1.28-3.84 1.92-5.76 1.92z m15.36-14.72c-1.92 0-3.84-0.64-5.12-1.92-3.2-3.2-3.2-7.68 0-10.88l1.92-1.92c3.2-3.2 7.68-3.2 10.88 0s3.2 7.68 0 10.88l-1.92 1.92c-1.92 1.28-3.84 1.92-5.76 1.92z m14.72-15.36c-1.92 0-3.84-0.64-5.12-1.92-3.2-3.2-3.2-7.68 0-10.88l1.92-1.92c3.2-3.2 7.68-3.2 10.88 0s3.2 7.68 0 10.88l-1.92 1.92c-1.92 1.28-3.84 1.92-5.76 1.92zM304.64 746.24c-1.92 0-3.84-0.64-5.12-1.92-3.2-3.2-3.2-7.68 0-10.88l1.28-1.28c3.2-3.2 7.68-3.2 10.88 0s3.2 7.68 0 10.88l-1.28 1.28c-1.92 1.28-3.84 1.92-5.76 1.92z" fill="#211D1C" p-id="81922"></path><path d="M280.32 436.48h-2.56c-32.64-5.12-40.96-9.6-43.52-10.88-17.92-10.24-25.6-28.8-17.92-42.88 7.68-13.44 28.16-16 46.08-5.76 2.56 1.28 10.24 5.76 31.36 32 4.48 5.76 5.12 13.44 1.28 19.2-3.2 4.48-8.96 8.32-14.72 8.32z m-40.32-51.2c-5.12 0-8.96 1.92-10.88 4.48-3.2 5.12 1.28 15.36 12.16 21.76 2.56 1.28 10.88 5.12 38.4 9.6 0.64 0 1.92 0 1.92-1.28 0.64-0.64 0.64-1.92 0-2.56-17.28-21.12-24.96-26.88-26.88-28.16-5.12-2.56-10.24-3.84-14.72-3.84z" fill="#00ABE0" p-id="81923"></path><path d="M161.92 436.48c-5.76 0-11.52-3.2-14.72-8.32-3.2-6.4-3.2-14.08 1.28-19.2 21.12-25.6 28.8-30.72 31.36-32 8.32-4.48 17.28-7.04 25.6-6.4 8.96 0.64 16.64 5.12 20.48 12.16 7.68 13.44 0 32-17.92 42.88-2.56 1.28-10.24 5.76-43.52 10.88-1.28-0.64-1.92 0-2.56 0z m39.68-51.2c-4.48 0-9.6 1.28-14.72 4.48-2.56 1.28-10.24 7.04-26.88 28.16-0.64 0.64-0.64 1.28 0 2.56 0.64 0.64 1.28 1.28 1.92 1.28 26.88-4.48 35.84-7.68 38.4-9.6 10.88-6.4 15.36-16.64 12.16-21.76-1.92-3.2-6.4-4.48-8.96-4.48-0.64-0.64-1.28-0.64-1.92-0.64z" fill="#00ABE0" p-id="81924"></path><path d="M220.8 528c-87.68 0-154.24-124.8-154.24-206.08v-5.76c0-4.48 3.84-7.68 7.68-7.04 4.48 0 7.68 3.84 7.04 7.68v5.12c0 75.52 62.08 190.72 138.88 190.72s138.88-115.2 138.88-190.72v-5.12c0-4.48 3.2-7.68 7.04-7.68 4.48 0 7.68 3.2 7.68 7.04v5.76c1.28 81.28-64.64 206.08-152.96 206.08z" fill="#211D1C" p-id="81925"></path><path d="M410.24 324.48H31.36c-4.48 0-7.68-3.2-7.68-7.68v-16.64c0-11.52 0-46.08 37.12-46.08h320c37.12 0 37.12 34.56 37.12 46.08v16.64c-0.64 4.48-3.84 7.68-7.68 7.68z m-371.2-15.36h363.52v-9.6c0-25.6-8.32-30.72-21.76-30.72h-320c-13.44 0-21.76 5.12-21.76 30.72v9.6zM284.8 108.8c-1.28 0-1.92 0-3.2-0.64-5.76-2.56-17.28-5.12-25.6-7.04-2.56-0.64-5.76-1.28-7.68-1.92-3.84-0.64-6.4-5.12-5.76-8.96 0.64-3.84 5.12-6.4 8.96-5.76 1.92 0.64 4.48 1.28 7.68 1.92 9.6 1.92 21.12 4.48 28.8 7.68 3.84 1.92 5.76 6.4 3.84 10.24-1.28 2.56-3.84 4.48-7.04 4.48z" fill="#211D1C" p-id="81926"></path><path d="M380.16 269.44c-4.48 0-7.68-3.2-7.68-7.68 0-59.52-33.92-138.88-88.32-162.56-3.84-1.92-5.76-6.4-3.84-10.24 1.92-3.84 6.4-5.76 10.24-3.84 60.8 26.88 97.28 110.72 97.28 176.64 0 3.84-3.84 7.68-7.68 7.68zM60.8 269.44c-4.48 0-7.68-3.2-7.68-7.68 0-64.64 37.76-150.4 99.2-176.64 3.84-1.92 8.32 0 10.24 3.84 1.92 3.84 0 8.32-3.84 10.24-55.68 23.68-89.6 103.04-89.6 163.2-0.64 3.2-4.48 7.04-8.32 7.04z" fill="#211D1C" p-id="81927"></path><path d="M157.44 108.16c-3.2 0-5.76-1.92-7.04-4.48-1.92-3.84 0-8.32 3.84-10.24 7.68-3.2 19.2-5.76 29.44-7.68 2.56-0.64 5.12-1.28 7.04-1.28 3.84-0.64 8.32 1.92 8.96 5.76 0.64 3.84-1.92 8.32-5.76 8.96-1.92 0.64-4.48 0.64-7.04 1.28-8.32 1.92-20.48 3.84-26.24 6.4-1.28 0.64-2.56 1.28-3.2 1.28z" fill="#211D1C" p-id="81928"></path><path d="M250.24 212.48c-4.48 0-7.68-3.2-7.68-7.68V76.8c0-5.76-4.48-10.24-10.24-10.24h-22.4c-5.76 0-10.24 4.48-10.24 10.24v128c0 4.48-3.2 7.68-7.68 7.68s-7.68-3.2-7.68-7.68V76.8c0-14.08 11.52-25.6 25.6-25.6h22.4c14.08 0 25.6 11.52 25.6 25.6v128c0 4.48-3.84 7.68-7.68 7.68z" fill="#211D1C" p-id="81929"></path><path d="M250.24 212.48c-0.64 0-1.28 0-2.56-0.64-3.84-1.28-6.4-5.76-5.12-9.6L280.32 89.6c1.28-3.84 5.76-6.4 9.6-5.12 3.84 1.28 6.4 5.76 5.12 9.6l-37.12 112.64c-1.92 3.84-4.48 5.76-7.68 5.76zM192 212.48c-3.2 0-6.4-1.92-7.04-5.12l-37.12-113.28c-1.28-3.84 0.64-8.32 5.12-9.6 3.84-1.28 8.32 0.64 9.6 5.12l37.12 113.28c1.28 3.84-0.64 8.32-5.12 9.6H192zM383.36 295.68H58.24c-4.48 0-7.68-3.2-7.68-7.68s3.2-7.68 7.68-7.68h325.12c4.48 0 7.68 3.2 7.68 7.68s-3.84 7.68-7.68 7.68zM920.96 975.36H446.08c-14.72 0-26.88-12.16-26.88-26.88v-67.84c0-4.48 3.2-7.68 7.68-7.68h513.28c4.48 0 7.68 3.2 7.68 7.68v67.84c0 14.72-12.16 26.88-26.88 26.88z m-486.4-87.04v60.16c0 6.4 5.12 11.52 11.52 11.52h474.88c6.4 0 11.52-5.12 11.52-11.52v-60.16H434.56z" fill="#211D1C" p-id="81930"></path><path d="M883.2 947.2c-12.8 0-23.04-10.24-23.04-23.04s10.24-22.4 23.04-22.4 22.4 10.24 22.4 22.4c0.64 12.8-9.6 23.04-22.4 23.04z m0-30.72c-4.48 0-7.68 3.2-7.68 7.68s3.2 7.68 7.68 7.68 7.68-3.2 7.68-7.68c0-3.84-3.2-7.68-7.68-7.68z" fill="#00ABE0" p-id="81931"></path><path d="M464.64 975.36c-4.48 0-7.68-3.2-7.68-7.68v-37.76c0-4.48 3.2-7.68 7.68-7.68s7.68 3.2 7.68 7.68v37.76c0 4.48-3.2 7.68-7.68 7.68zM583.04 975.36c-4.48 0-7.68-3.2-7.68-7.68v-37.76c0-4.48 3.2-7.68 7.68-7.68s7.68 3.2 7.68 7.68v37.76c0 4.48-3.2 7.68-7.68 7.68zM702.08 975.36c-4.48 0-7.68-3.2-7.68-7.68v-37.76c0-4.48 3.2-7.68 7.68-7.68s7.68 3.2 7.68 7.68v37.76c-0.64 4.48-3.84 7.68-7.68 7.68zM820.48 975.36c-4.48 0-7.68-3.2-7.68-7.68v-37.76c0-4.48 3.2-7.68 7.68-7.68s7.68 3.2 7.68 7.68v37.76c0 4.48-3.84 7.68-7.68 7.68zM760.96 975.36c-4.48 0-7.68-3.2-7.68-7.68v-26.24c0-4.48 3.2-7.68 7.68-7.68s7.68 3.2 7.68 7.68v26.24c0 4.48-3.2 7.68-7.68 7.68zM642.56 975.36c-4.48 0-7.68-3.2-7.68-7.68v-26.24c0-4.48 3.2-7.68 7.68-7.68s7.68 3.2 7.68 7.68v26.24c0 4.48-3.2 7.68-7.68 7.68zM524.16 975.36c-4.48 0-7.68-3.2-7.68-7.68v-26.24c0-4.48 3.2-7.68 7.68-7.68s7.68 3.2 7.68 7.68v26.24c0 4.48-3.84 7.68-7.68 7.68zM494.72 975.36c-4.48 0-7.68-3.2-7.68-7.68v-19.2c0-4.48 3.2-7.68 7.68-7.68s7.68 3.2 7.68 7.68v19.2c-0.64 4.48-3.84 7.68-7.68 7.68zM553.6 975.36c-4.48 0-7.68-3.2-7.68-7.68v-19.2c0-4.48 3.2-7.68 7.68-7.68s7.68 3.2 7.68 7.68v19.2c0 4.48-3.2 7.68-7.68 7.68zM613.12 975.36c-4.48 0-7.68-3.2-7.68-7.68v-19.2c0-4.48 3.2-7.68 7.68-7.68s7.68 3.2 7.68 7.68v19.2c0 4.48-3.84 7.68-7.68 7.68zM672 975.36c-4.48 0-7.68-3.2-7.68-7.68v-19.2c0-4.48 3.2-7.68 7.68-7.68s7.68 3.2 7.68 7.68v19.2c0 4.48-3.2 7.68-7.68 7.68zM731.52 975.36c-4.48 0-7.68-3.2-7.68-7.68v-19.2c0-4.48 3.2-7.68 7.68-7.68s7.68 3.2 7.68 7.68v19.2c0 4.48-3.84 7.68-7.68 7.68zM790.4 975.36c-4.48 0-7.68-3.2-7.68-7.68v-19.2c0-4.48 3.2-7.68 7.68-7.68s7.68 3.2 7.68 7.68v19.2c0 4.48-3.2 7.68-7.68 7.68zM832.64 821.12c-3.2 0-6.4-1.92-7.04-5.12-1.28-3.84 0.64-8.32 5.12-9.6l86.4-28.16-86.4-28.16c-3.84-1.28-6.4-5.76-5.12-9.6 1.28-3.84 5.76-6.4 9.6-5.12l108.16 35.84c3.2 1.28 5.12 3.84 5.12 7.04 0 3.2-1.92 6.4-5.12 7.04l-108.16 35.84h-2.56z" fill="#211D1C" p-id="81932"></path><path d="M892.16 800c-1.92 0-3.84-0.64-5.12-1.92-4.48-4.48-7.68-12.16-7.68-19.84 0-7.68 2.56-15.36 7.68-19.84 3.2-3.2 7.68-2.56 10.88 0 3.2 3.2 2.56 7.68 0 10.88-1.92 1.92-3.2 5.12-3.2 8.96 0 3.84 1.28 7.04 3.2 8.96 3.2 3.2 3.2 7.68 0 10.88-1.28 1.28-3.2 1.92-5.76 1.92zM832.64 797.44H569.6c-4.48 0-7.68-3.2-7.68-7.68s3.2-7.68 7.68-7.68h263.04c4.48 0 7.68 3.2 7.68 7.68-0.64 4.48-3.84 7.68-7.68 7.68zM832.64 773.76H569.6c-4.48 0-7.68-3.2-7.68-7.68s3.2-7.68 7.68-7.68h263.04c4.48 0 7.68 3.2 7.68 7.68-0.64 4.48-3.84 7.68-7.68 7.68z" fill="#211D1C" p-id="81933"></path><path d="M832.64 821.12H569.6c-4.48 0-7.68-3.2-7.68-7.68V742.4c0-4.48 3.2-7.68 7.68-7.68h263.04c4.48 0 7.68 3.2 7.68 7.68v71.04c-0.64 4.48-3.84 7.68-7.68 7.68z m-256-15.36h247.68v-56.32H576.64v56.32zM878.72 682.88h-61.44c-4.48 0-7.68-3.2-7.68-7.68v-61.44c0-38.4 30.72-69.12 69.12-69.12 38.4 0 69.12 30.72 69.12 69.12 0 38.4-31.36 69.12-69.12 69.12z m-53.76-14.72h53.76c29.44 0 53.76-24.32 53.76-53.76 0-29.44-24.32-53.76-53.76-53.76-29.44 0-53.76 24.32-53.76 53.76v53.76z" fill="#211D1C" p-id="81934"></path><path d="M880 636.8c-12.8 0-23.04-10.24-23.04-23.04s10.24-23.04 23.04-23.04 23.04 10.24 23.04 23.04-10.24 23.04-23.04 23.04z m0-30.72c-4.48 0-7.68 3.2-7.68 7.68s3.2 7.68 7.68 7.68 7.68-3.2 7.68-7.68-3.2-7.68-7.68-7.68z" fill="#00ABE0" p-id="81935"></path><path d="M817.28 682.88H631.04c-4.48 0-7.68-3.2-7.68-7.68v-21.12c0-4.48 3.2-7.68 7.68-7.68s7.68 3.2 7.68 7.68v13.44h178.56c4.48 0 7.68 3.2 7.68 7.68s-3.84 7.68-7.68 7.68z" fill="#211D1C" p-id="81936"></path></svg>