<?xml version="1.0" standalone="no"?><!DOCTYPE svg PUBLIC "-//W3C//DTD SVG 1.1//EN" "http://www.w3.org/Graphics/SVG/1.1/DTD/svg11.dtd"><svg t="1764099765503" class="icon" viewBox="0 0 1395 1024" version="1.1" xmlns="http://www.w3.org/2000/svg" p-id="83984" xmlns:xlink="http://www.w3.org/1999/xlink" width="272.4609375" height="200"><path d="M1290.705455 0H104.727273a69.818182 69.818182 0 0 0-69.818182 69.818182L0 510.021818 34.909091 954.181818a69.818182 69.818182 0 0 0 69.818182 69.818182h1185.978182a69.818182 69.818182 0 0 0 69.818181-69.818182l34.909091-448-34.909091-436.363636a69.818182 69.818182 0 0 0-69.818181-69.818182z m-25.716364 934.749091h-1134.545455l-34.909091-424.727273 34.909091-420.887273h1134.545455l34.909091 420.887273z" p-id="83985"></path><path d="M549.352727 792.552727a43.752727 43.752727 0 0 1-21.061818-5.469091 42.938182 42.938182 0 0 1-21.876364-37.469091V274.385455a43.054545 43.054545 0 0 1 65.163637-36.887273l387.141818 237.614545a42.938182 42.938182 0 0 1 0 73.658182L571.578182 786.385455a43.287273 43.287273 0 0 1-22.225455 6.167272z m43.054546-442.181818v322.792727l260.770909-161.512727z" p-id="83986"></path></svg>