<?xml version="1.0" standalone="no"?><!DOCTYPE svg PUBLIC "-//W3C//DTD SVG 1.1//EN" "http://www.w3.org/Graphics/SVG/1.1/DTD/svg11.dtd"><svg t="1764102140763" class="icon" viewBox="0 0 1024 1024" version="1.1" xmlns="http://www.w3.org/2000/svg" p-id="125059" xmlns:xlink="http://www.w3.org/1999/xlink" width="200" height="200"><path d="M570.9 621.6S869 642.8 869 315.5c0-296.9-515.3-370.8-547.3-2.4-7 80.4-10.5 156.7-11.9 226.9l-119 4.2v76.2h118.4c0.1 28.2 0.5 55.1 1 80.7-68.4 2.2-119.4 4-119.4 4v55.5H312c3.6 97.6 9.4 167.9 9.4 199.5h92.4s-2.3-88-2.8-199.5h243.9v-67.8c-33.8-0.7-141.1 2-243.9 5.1 0.1-25.4 0.2-51.3 0.6-77.1l159.3 0.8z m98.2-429.7c141 57.8 130.6 308.4-68.2 336.2 0 0-83.2 6.3-187.8 9.7 2.1-72.2 5.8-137.7 12.2-180.6 23.1-154.9 102.9-223.1 243.8-165.3z" fill="#1796EF" p-id="125060"></path></svg>