<?xml version="1.0" standalone="no"?><!DOCTYPE svg PUBLIC "-//W3C//DTD SVG 1.1//EN" "http://www.w3.org/Graphics/SVG/1.1/DTD/svg11.dtd"><svg t="1764735372214" class="icon" viewBox="0 0 1024 1024" version="1.1" xmlns="http://www.w3.org/2000/svg" p-id="5994" xmlns:xlink="http://www.w3.org/1999/xlink" width="200" height="200"><path d="M512.69632 857.04704H383.3856c-6.02112 0-6.79936 1.57696-3.85024 7.08608 2.29376 4.1984 3.8912 8.84736 6.41024 12.9024 3.54304 5.7344 7.53664 11.264 15.62624 10.73152 3.64544-0.24576 7.33184-0.02048 10.99776-0.02048 69.75488 0 139.53024-0.06144 209.3056 0.08192 5.89824 0 10.40384-1.92512 13.4144-6.71744 3.33824-5.34528 6.3488-10.9568 9.23648-16.5888 0.94208-1.8432 1.1264-4.07552 1.67936-6.12352-1.88416-0.47104-3.74784-1.31072-5.632-1.31072-42.61888-0.08192-85.23776-0.06144-127.87712-0.06144m424.83712-323.3792c0-93.22496-0.14336-186.49088 0.2048-279.71584 0-11.53024-8.192-19.8656-19.90656-19.80416-42.14784 0.2048-84.2752 0.1024-126.44352 0.1024-1.4336 0-2.99008-0.3072-4.25984 0.16384-1.14688 0.4096-2.74432 1.72032-2.74432 2.62144 0 3.7888 0.32768 7.59808 0.94208 11.32544 0.67584 4.36224 2.39616 8.6016 2.56 12.98432 0.16384 4.46464 1.76128 5.59104 5.98016 5.5296 26.8288-0.12288 53.6576 0 80.4864-0.04096 6.43072 0 11.83744 2.92864 16.7936 6.28736 10.71104 7.31136 13.63968 18.55488 13.66016 30.67904 0.08192 128.8192 0.06144 257.6384 0.06144 386.47808v125.00992c0 6.9632 0.26624 7.20896 7.3728 7.22944h18.20672c7.08608 0 7.08608 0 7.08608-7.22944V533.62688m-850.67776-0.24576v282.64448c0 6.2464 0.22528 6.4512 6.5536 6.47168h18.65728c7.29088 0 7.4752-0.16384 7.4752-7.65952l0.08192-353.05472c0-53.00224-0.14336-106.02496 0-159.04768 0.02048-8.27392 1.4336-16.52736 7.12704-23.26528 7.2704-8.62208 16.30208-13.2096 27.81184-12.71808 5.89824 0.24576 11.79648 0.04096 17.7152 0.04096 19.64032 0 39.28064 0.06144 58.92096-0.1024 1.67936 0 4.54656-1.18784 4.77184-2.2528 1.69984-7.70048 3.19488-15.4624 4.096-23.28576 0.73728-6.67648 0.18432-6.92224-6.7584-6.92224H106.3936c-8.2944 0-15.1552 2.82624-18.18624 11.14112-1.14688 3.15392-1.26976 6.7584-1.26976 10.17856-0.08192 92.59008-0.06144 185.22112-0.06144 277.83168M511.91808 969.9328c133.81632 0 267.63264 0.04096 401.44896-0.06144 12.5952 0 25.10848-1.024 35.77856-9.25696 10.58816-8.17152 18.28864-17.98144 19.27168-31.88736 0.512-6.92224 0.4096-6.94272-6.4512-6.94272-54.76352 0-109.54752 0.1024-164.31104-0.12288-5.3248-0.02048-10.77248-1.82272-15.95392-3.44064-4.23936-1.35168-9.54368-11.4688-8.3968-15.19616 2.80576-9.0112 8.74496-15.42144 19.70176-15.36 49.3568 0.22528 98.7136 0.1024 148.02944 0.1024h23.9616c3.25632 0 5.0176-1.35168 4.99712-4.8128 0-7.168 0.12288-14.336 0-21.54496a5.87776 5.87776 0 0 0-6.61504-5.7344c-4.23936 0.55296-8.4992 1.2288-12.75904 1.2288-60.98944 0.1024-121.99936 0.08192-182.9888 0.1024-25.88672 0-51.75296 0-77.6192 0.1024-1.72032 0-4.23936 0.32768-4.97664 1.45408a136.31488 136.31488 0 0 0-7.74144 13.59872c-4.34176 8.45824-7.9872 17.34656-12.86144 25.45664-9.87136 16.4864-25.78432 23.8592-44.09344 24.00256-67.54304 0.512-135.08608 0.22528-202.62912 0.1024a177.62304 177.62304 0 0 1-24.18688-1.6384 43.37664 43.37664 0 0 1-23.73632-11.0592 61.0304 61.0304 0 0 1-15.21664-21.87264c-3.44064-8.192-7.74144-16.05632-11.8784-23.94112-2.17088-4.096-4.9152-6.38976-10.50624-6.38976-86.40512 0.26624-172.78976 0.14336-259.1744 0.08192-3.4816 0-7.08608 0.04096-10.48576-0.57344-5.3248-1.024-8.04864 0.8192-8.11008 6.38976a1208.7296 1208.7296 0 0 0 0 18.67776c0 5.7344 0.59392 6.32832 6.30784 6.3488 14.21312 0.04096 28.42624 0 42.63936 0 43.1104 0 86.2208 0.06144 129.35168-0.04096 5.3248 0 9.8304 1.96608 12.96384 5.5296 3.33824 3.82976 6.61504 8.13056 4.64896 14.27456-3.35872 10.5472-10.46528 14.11072-20.64384 14.17216-49.3568 0.26624-98.69312 0.12288-148.04992 0.14336-7.168 0-14.336 0.06144-21.54496-0.08192-3.2768-0.04096-4.25984 1.2288-4.42368 4.52608-0.3072 6.4512 1.6384 12.22656 4.58752 17.6128 4.7104 8.704 11.59168 15.5648 20.35712 20.2752 9.4208 5.05856 19.90656 5.7344 30.35136 5.7344 133.65248 0.06144 267.30496 0.04096 400.95744 0.04096" fill="#AAC5DA" p-id="5995"></path><path d="M562.50368 217.088c52.14208 0 78.4384 22.1184 78.4384 66.33472 0 44.52352-26.29632 66.94912-79.01184 66.94912H508.3136v82.98496h-35.47136V217.088h89.66144z m-132.05504 0v216.2688h-35.45088V217.088h35.4304z m129.3312 30.26944H508.3136v72.704h51.46624c15.74912 0 27.29984-3.01056 34.54976-8.45824 7.29088-5.77536 10.91584-15.1552 10.91584-28.18048 0-13.02528-3.97312-22.1184-11.24352-27.56608-7.2704-5.75488-18.78016-8.47872-34.22208-8.47872z" fill="#1C314E" p-id="5996"></path><path d="M512.69632 857.04704H383.3856c-6.02112 0-6.79936 1.57696-3.85024 7.08608 2.29376 4.1984 3.8912 8.84736 6.41024 12.9024 3.54304 5.7344 7.53664 11.264 15.62624 10.73152 3.64544-0.24576 7.33184-0.02048 10.99776-0.02048 69.75488 0 139.53024-0.06144 209.3056 0.08192 5.89824 0 10.40384-1.92512 13.4144-6.71744 3.33824-5.34528 6.3488-10.9568 9.23648-16.5888 0.94208-1.8432 1.1264-4.07552 1.67936-6.12352-1.88416-0.47104-3.74784-1.31072-5.632-1.31072-42.61888-0.08192-85.23776-0.06144-127.87712-0.06144m424.83712-323.3792c0-93.22496-0.14336-186.49088 0.2048-279.71584 0-11.53024-8.192-19.8656-19.90656-19.80416-42.14784 0.2048-84.2752 0.1024-126.44352 0.1024-1.4336 0-2.99008-0.3072-4.25984 0.16384-1.14688 0.4096-2.74432 1.72032-2.74432 2.62144 0 3.7888 0.32768 7.59808 0.94208 11.32544 0.67584 4.36224 2.39616 8.6016 2.56 12.98432 0.16384 4.46464 1.76128 5.59104 5.98016 5.5296 26.8288-0.12288 53.6576 0 80.4864-0.04096 6.43072 0 11.83744 2.92864 16.7936 6.28736 10.71104 7.31136 13.63968 18.55488 13.66016 30.67904 0.08192 128.8192 0.06144 257.6384 0.06144 386.47808v125.00992c0 6.9632 0.26624 7.20896 7.3728 7.22944h18.20672c7.08608 0 7.08608 0 7.08608-7.22944V533.62688m-850.67776-0.24576v282.64448c0 6.2464 0.22528 6.4512 6.5536 6.47168h18.65728c7.29088 0 7.4752-0.16384 7.4752-7.65952l0.08192-353.05472c0-53.00224-0.14336-106.02496 0-159.04768 0.02048-8.27392 1.4336-16.52736 7.12704-23.26528 7.2704-8.62208 16.30208-13.2096 27.81184-12.71808 5.89824 0.24576 11.79648 0.04096 17.7152 0.04096 19.64032 0 39.28064 0.06144 58.92096-0.1024 1.67936 0 4.54656-1.18784 4.77184-2.2528 1.69984-7.70048 3.19488-15.4624 4.096-23.28576 0.73728-6.67648 0.18432-6.92224-6.7584-6.92224H106.3936c-8.2944 0-15.1552 2.82624-18.18624 11.14112-1.14688 3.15392-1.26976 6.7584-1.26976 10.17856-0.08192 92.59008-0.06144 185.22112-0.06144 277.83168M511.91808 969.9328c133.81632 0 267.63264 0.04096 401.44896-0.06144 12.5952 0 25.10848-1.024 35.77856-9.25696 10.58816-8.17152 18.28864-17.98144 19.27168-31.88736 0.512-6.92224 0.4096-6.94272-6.4512-6.94272-54.76352 0-109.54752 0.1024-164.31104-0.12288-5.3248-0.02048-10.77248-1.82272-15.95392-3.44064-4.23936-1.35168-9.54368-11.4688-8.3968-15.19616 2.80576-9.0112 8.74496-15.42144 19.70176-15.36 49.3568 0.22528 98.7136 0.1024 148.02944 0.1024h23.9616c3.25632 0 5.0176-1.35168 4.99712-4.8128 0-7.168 0.12288-14.336 0-21.54496a5.87776 5.87776 0 0 0-6.61504-5.7344c-4.23936 0.55296-8.4992 1.2288-12.75904 1.2288-60.98944 0.1024-121.99936 0.08192-182.9888 0.1024-25.88672 0-51.75296 0-77.6192 0.1024-1.72032 0-4.23936 0.32768-4.97664 1.45408a136.31488 136.31488 0 0 0-7.74144 13.59872c-4.34176 8.45824-7.9872 17.34656-12.86144 25.45664-9.87136 16.4864-25.78432 23.8592-44.09344 24.00256-67.54304 0.512-135.08608 0.22528-202.62912 0.1024a177.62304 177.62304 0 0 1-24.18688-1.6384 43.37664 43.37664 0 0 1-23.73632-11.0592 61.0304 61.0304 0 0 1-15.21664-21.87264c-3.44064-8.192-7.74144-16.05632-11.8784-23.94112-2.17088-4.096-4.9152-6.38976-10.50624-6.38976-86.40512 0.26624-172.78976 0.14336-259.1744 0.08192-3.4816 0-7.08608 0.04096-10.48576-0.57344-5.3248-1.024-8.04864 0.8192-8.11008 6.38976a1208.7296 1208.7296 0 0 0 0 18.67776c0 5.7344 0.59392 6.32832 6.30784 6.3488 14.21312 0.04096 28.42624 0 42.63936 0 43.1104 0 86.2208 0.06144 129.35168-0.04096 5.3248 0 9.8304 1.96608 12.96384 5.5296 3.33824 3.82976 6.61504 8.13056 4.64896 14.27456-3.35872 10.5472-10.46528 14.11072-20.64384 14.17216-49.3568 0.26624-98.69312 0.12288-148.04992 0.14336-7.168 0-14.336 0.06144-21.54496-0.08192-3.2768-0.04096-4.25984 1.2288-4.42368 4.52608-0.3072 6.4512 1.6384 12.22656 4.58752 17.6128 4.7104 8.704 11.59168 15.5648 20.35712 20.2752 9.4208 5.05856 19.90656 5.7344 30.35136 5.7344 133.65248 0.06144 267.30496 0.04096 400.95744 0.04096m246.74304-671.15008l-1.31072-0.16384c0-3.82976 0.3072-7.70048-0.06144-11.48928-1.18784-11.81696-2.60096-23.61344-3.93216-35.4304-0.04096-0.47104-0.2048-0.9216-0.34816-1.39264-2.29376-7.2704-4.52608-14.5408-6.84032-21.8112-1.2288-3.82976-2.4576-7.68-3.87072-11.44832-3.072-8.23296-5.77536-16.67072-9.58464-24.576a195.87072 195.87072 0 0 0-13.23008-22.7328c-6.5536-9.89184-12.86144-20.13184-20.62336-29.06112-18.1248-20.7872-38.6048-39.07584-62.93504-52.57216-5.69344-3.13344-11.30496-6.3488-17.14176-9.15456a400.9984 400.9984 0 0 0-21.66784-9.48224c-5.0176-2.048-10.09664-4.17792-15.36-5.48864-7.2704-1.88416-15.03232-2.17088-22.07744-4.608-12.94336-4.42368-26.35776-3.39968-39.5264-4.66944-9.40032-0.88064-19.02592 0.55296-28.54912 1.20832a187.392 187.392 0 0 0-40.1408 6.22592c-5.5296 1.4336-10.9568 3.35872-16.36352 5.28384-8.00768 2.80576-16.26112 5.2224-23.92064 8.84736-8.3968 3.95264-16.46592 8.84736-24.3712 13.80352-10.40384 6.5536-21.38112 12.5952-30.55616 20.62336a339.31264 339.31264 0 0 0-34.18112 34.93888c-7.8848 9.19552-14.1312 19.82464-20.76672 30.02368-3.3792 5.3248-6.41024 10.8544-9.1136 16.56832-3.46112 7.0656-7.08608 14.11072-9.58464 21.504-3.33824 9.68704-5.26336 19.84512-8.45824 29.55264-4.44416 13.5168-5.4272 27.5456-6.84032 41.472-0.94208 9.17504-0.28672 18.51392-0.24576 27.77088 0 2.56 0.1024 5.12 0.47104 7.61856 0.96256 6.26688 2.06848 12.47232 3.1744 18.67776 1.37216 7.76192 2.1504 15.68768 4.4032 23.18336 2.92864 9.78944 6.59456 19.41504 10.71104 28.79488 5.12 11.6736 10.17856 23.552 16.75264 34.44736 8.88832 14.7456 19.29216 28.52864 28.8768 42.86464 10.8544 16.30208 21.44256 32.80896 32.29696 49.07008 13.08672 19.57888 26.35776 38.99392 39.46496 58.51136 7.14752 10.62912 14.09024 21.36064 21.23776 31.9488 6.7584 10.07616 13.68064 20.02944 20.54144 30.02368 5.7344 8.35584 11.53024 16.67072 17.16224 25.088 7.33184 10.9568 14.5408 22.016 21.8112 32.99328l13.12768 19.90656c3.91168 5.85728 7.7824 11.75552 11.75552 17.55136 1.47456 2.17088 5.46816 1.8432 6.9632-0.3072 2.37568-3.54304 4.9152-7.04512 7.24992-10.62912 9.4208-14.336 18.67776-28.81536 28.13952-43.13088 10.1376-15.33952 20.39808-30.59712 30.72-45.79328 9.66656-14.21312 19.57888-28.2624 29.22496-42.496 11.63264-17.2032 23.06048-34.48832 34.67264-51.69152 6.32832-9.37984 12.86144-18.6368 19.21024-28.01664 6.26688-9.3184 12.32896-18.7392 18.55488-28.07808 4.096-6.144 8.2944-12.1856 12.32896-18.35008 5.89824-8.97024 11.75552-18.0224 17.53088-27.09504 5.7344-8.97024 12.02176-17.69472 16.7936-27.15648 5.38624-10.62912 9.50272-21.89312 13.88544-32.9728 2.1504-5.48864 4.17792-11.12064 5.4272-16.896 1.8432-8.74496 3.13344-17.65376 4.44416-26.54208 1.67936-11.73504 3.11296-23.51104 4.64896-35.26656M511.97952 822.51776c117.6576 0 235.35616-0.04096 353.05472 0.02048 6.38976 0 7.35232-0.83968 7.35232-7.22944-0.08192-115.77344-0.04096-231.5264-0.04096-347.29984v-160.95232c0-6.18496-1.20832-7.4752-7.14752-7.49568-22.50752-0.04096-45.01504-0.06144-67.52256-0.04096-6.10304 0-7.33184 1.4336-7.68 7.63904-0.59392 10.46528-1.06496 20.97152-2.1504 31.39584-0.79872 7.33184-2.53952 14.56128-3.8912 21.83168-0.06144 0.47104-0.38912 0.90112-0.53248 1.35168l-6.5536 19.94752c-1.26976 3.97312-2.47808 7.96672-3.95264 11.8784-2.82624 7.55712-5.46816 15.17568-8.82688 22.46656-2.94912 6.4512-6.656 12.5952-10.30144 18.67776-5.61152 9.29792-11.3664 18.51392-17.2032 27.66848-4.4032 6.90176-9.0112 13.68064-13.55776 20.48l-17.48992 26.09152c-4.46464 6.69696-8.84736 13.4144-13.29152 20.09088-5.50912 8.27392-10.99776 16.5888-16.5888 24.84224-5.9392 8.8064-11.93984 17.55136-17.89952 26.33728-6.92224 10.26048-13.80352 20.5824-20.74624 30.86336-4.42368 6.51264-9.0112 12.94336-13.37344 19.456-6.88128 10.36288-13.63968 20.80768-20.56192 31.1296-7.12704 10.56768-14.47936 20.992-21.6064 31.58016-7.00416 10.42432-13.78304 21.03296-20.7872 31.45728-7.02464 10.46528-14.7456 20.48-21.17632 31.27296-7.31136 12.24704-16.97792 18.45248-31.5392 16.9984a23.6544 23.6544 0 0 1-14.86848-6.94272c-3.6864-3.64544-6.67648-8.02816-9.66656-12.288-5.81632-8.27392-11.4688-16.67072-17.1008-25.04704-4.7104-7.00416-9.29792-14.06976-13.98784-21.0944-5.5296-8.25344-11.1616-16.44544-16.71168-24.6784-5.61152-8.37632-11.1616-16.7936-16.7936-25.1904-5.85728-8.64256-11.81696-17.2032-17.6128-25.9072-6.90176-10.38336-13.63968-20.8896-20.54144-31.25248-5.9392-8.92928-12.04224-17.69472-18.0224-26.624-4.25984-6.30784-8.33536-12.77952-12.63616-19.10784-5.9392-8.76544-12.02176-17.408-17.98144-26.19392-6.92224-10.19904-13.7216-20.48-20.62336-30.67904-6.9632-10.28096-14.336-20.2752-20.97152-30.76096A886.49728 886.49728 0 0 1 266.24 426.45504c-5.26336-9.4208-9.70752-19.3536-14.27456-29.16352a73.728 73.728 0 0 1-4.07552-11.85792c-1.6384-6.02112-2.88768-12.16512-4.38272-18.2272-2.29376-9.4208-5.40672-18.69824-6.81984-28.2624-1.57696-10.48576-1.72032-21.1968-2.2528-31.8464-0.34816-6.18496-1.47456-7.53664-7.74144-7.53664H160.1536c-7.0656 0-8.06912 1.024-8.06912 7.9872v507.2896c0 0.96256 0.04096 1.92512 0 2.88768-0.14336 3.46112 1.61792 4.87424 4.93568 4.77184 1.76128-0.06144 3.52256 0 5.26336 0H512m0.1024 180.16256c-136.704 0-273.408 0-410.09152-0.06144-6.79936 0-13.37344 0.2048-20.31616-2.94912-6.3488-2.8672-13.27104-4.75136-19.456-8.31488-10.11712-5.79584-18.90304-13.16864-25.23136-23.04-3.8912-6.08256-8.11008-12.288-10.24-19.08736-2.02752-6.3488-5.44768-12.30848-5.3248-19.6608a1636.1472 1636.1472 0 0 0 0-74.24c-0.24576-10.93632 4.87424-18.65728 12.34944-24.84224 4.56704-3.76832 11.0592-5.16096 16.50688-7.9872 1.6384-0.83968 2.88768-2.74432 3.82976-4.44416 0.53248-0.98304 0.1024-2.49856 0.1024-3.76832v-558.08c0-10.38336 1.16736-20.6848 6.28736-29.65504 4.05504-7.08608 9.8304-12.98432 17.03936-17.55136 9.80992-6.2464 20.25472-7.53664 31.47776-7.4752 45.34272 0.22528 90.7264 0.1024 136.04864 0.1024 6.10304 0 8.94976-2.60096 10.42432-8.45824 0.96256-3.6864 2.4576-7.3728 4.3008-10.71104 5.81632-10.50624 11.55072-21.07392 17.96096-31.21152 6.3488-10.0352 12.6976-20.19328 20.39808-29.14304 9.76896-11.12064 20.21376-21.66784 31.25248-31.5392 8.68352-7.86432 18.10432-15.0528 27.79136-21.62688 9.29792-6.2464 19.31264-11.50976 29.20448-16.87552a188.45696 188.45696 0 0 1 21.34016-10.26048c8.8064-3.42016 17.92-6.10304 26.99264-8.8064 7.92576-2.39616 15.9744-4.38272 23.9616-6.5536 0.43008-0.12288 0.8192-0.55296 1.2288-0.59392 9.8304-1.4336 19.64032-3.62496 29.4912-4.096 15.1552-0.67584 30.33088-0.3072 45.50656-0.08192 4.1984 0.06144 8.3968 1.1264 12.57472 1.82272 3.42016 0.55296 6.81984 1.18784 10.21952 1.8432 4.9152 0.98304 9.78944 2.048 14.68416 3.15392 6.67648 1.47456 13.43488 2.8672 20.0704 4.62848 5.2224 1.39264 10.40384 3.072 15.42144 5.03808 8.35584 3.2768 16.67072 6.67648 24.84224 10.42432 5.4272 2.4576 10.79296 5.20192 15.83104 8.3968 11.28448 7.18848 22.81472 14.15168 33.42336 22.24128 16.7936 12.82048 32.3584 27.17696 45.13792 44.19584 7.00416 9.27744 14.15168 18.51392 20.45952 28.28288 5.26336 8.13056 9.54368 16.91648 13.96736 25.55904 3.44064 6.67648 6.3488 13.66016 9.6256 20.43904 1.51552 3.03104 4.05504 4.05504 7.70048 4.03456 39.77216-0.16384 79.52384-0.1024 119.296-0.1024 7.33184 0 14.68416 0.1024 22.016 0 18.944-0.34816 32.84992 8.43776 42.84416 23.83872 5.7344 8.84736 7.14752 18.98496 7.14752 29.34784v103.97696c0 152.33024 0 304.66048-0.06144 457.0112 0 3.9936 0.83968 5.89824 5.38624 7.168 10.32192 2.84672 18.57536 8.33536 24.10496 18.61632 3.11296 5.79584 3.072 11.03872 3.09248 16.71168a4437.4016 4437.4016 0 0 1-0.06144 72.33536c-0.04096 3.584-1.67936 7.168-2.80576 10.69056-1.37216 4.4032-3.03104 8.704-4.54656 13.06624-2.84672 8.192-8.15104 14.848-13.6192 21.2992-6.4512 7.61856-14.5408 13.312-23.26528 17.89952-4.44416 2.3552-9.5232 3.4816-14.21312 5.38624-18.944 7.61856-38.68672 3.3792-57.9584 3.4816-124.7232 0.43008-249.4464 0.2048-374.1696 0.2048" fill="#1C314E" p-id="5997"></path><path d="M308.51072 884.57216c5.34528 1.3312 10.99776 2.00704 15.99488 4.15744 7.55712 3.25632 9.25696 10.19904 7.80288 17.48992-1.14688 5.87776-5.4272 9.8304-11.38688 11.4688-9.8304 2.72384-19.53792 2.72384-28.9792-1.69984-5.85728-2.70336-9.78944-11.91936-7.43424-17.8176 3.584-9.0112 8.64256-12.36992 18.45248-12.41088h5.24288l0.3072-1.18784m408.53504 38.48192c-5.87776-1.6384-11.48928-2.80576-16.7936-4.8128-6.00064-2.2528-9.15456-14.86848-5.71392-20.48 4.096-6.61504 9.70752-10.0352 17.59232-9.64608 3.60448 0.16384 7.22944 0.12288 10.8544 0.04096 10.56768-0.2048 16.32256 6.16448 18.96448 15.19616 1.10592 3.72736-4.17792 13.55776-8.31488 15.01184-5.34528 1.86368-10.91584 3.11296-16.60928 4.68992" fill="#1C314E" p-id="5998"></path></svg>