<?xml version="1.0" standalone="no"?><!DOCTYPE svg PUBLIC "-//W3C//DTD SVG 1.1//EN" "http://www.w3.org/Graphics/SVG/1.1/DTD/svg11.dtd"><svg t="1764094695403" class="icon" viewBox="0 0 1024 1024" version="1.1" xmlns="http://www.w3.org/2000/svg" p-id="51959" xmlns:xlink="http://www.w3.org/1999/xlink" width="200" height="200"><path d="M831.185455 868.768323H192.804202c-35.166384 0-63.809939-32.800323-63.809939-73.064727 0-40.260525 28.600889-73.060848 63.809939-73.060849h638.381253c35.214222 0 63.855192 32.800323 63.855191 73.060849 0 40.264404-28.642263 73.064727-63.897858 73.064727M432.456404 384.505535c0.002586-52.882101 42.876121-95.750465 95.762101-95.750464 52.882101 0 95.754343 42.868364 95.758222 95.750464 35.254303 0 63.837091 28.581495 63.837091 63.837091 0 35.250424-28.582788 63.833212-63.837091 63.833212H432.411152c-34.116525-1.565737-60.975838-29.683071-60.975839-63.833212 0-34.15402 26.859313-62.271354 60.975839-63.837091m519.606303 392.029091l-108.677172-557.407677c-5.894465-34.588444-38.292687-61.044364-78.065778-62.51701H258.850909c-40.482909 1.472646-73.462949 28.776727-78.510545 64.169374l-108.319031 555.755313c-4.111515 11.172202-6.88097 22.878384-6.880969 35.259475 0 62.916525 57.151354 113.945859 127.665131 113.945859H831.186747c70.472404 0 127.670303-51.030626 127.670304-113.945859-0.001293-12.422465-2.770747-24.08598-6.839596-35.259475" p-id="51960"></path></svg>