<?xml version="1.0" standalone="no"?><!DOCTYPE svg PUBLIC "-//W3C//DTD SVG 1.1//EN" "http://www.w3.org/Graphics/SVG/1.1/DTD/svg11.dtd"><svg t="1764100011954" class="icon" viewBox="0 0 1024 1024" version="1.1" xmlns="http://www.w3.org/2000/svg" p-id="87053" xmlns:xlink="http://www.w3.org/1999/xlink" width="200" height="200"><path d="M153.192556 28.473193m20.11326-20.11326l0 0q20.11326-20.11326 40.226519 0l219.033396 219.033397q20.11326 20.11326 0 40.226519l0 0q-20.11326 20.11326-40.226519 0l-219.033396-219.033397q-20.11326-20.11326 0-40.226519Z" p-id="87054"></path><path d="M611.532801 287.705884m-20.11326-20.11326l0 0q-20.11326-20.11326 0-40.226519l219.033397-219.033396q20.11326-20.11326 40.226519 0l0 0q20.11326 20.11326 0 40.226519l-219.033397 219.033396q-20.11326 20.11326-40.226519 0Z" p-id="87055"></path><path d="M943.075556 199.111111H80.924444C36.266667 199.111111 0 238.008889 0 286.08v650.951111C0 985.102222 36.266667 1024 80.924444 1024h862.151112c44.657778 0 80.924444-38.897778 80.924444-86.968889V286.08c0-48.071111-36.266667-86.968889-80.924444-86.968889zM645.546667 628.764444l-95.928889 59.52-95.857778 59.448889c-18.986667 11.733333-42.666667-2.915556-42.666667-26.453333V483.555556c0-23.537778 23.68-38.257778 42.666667-26.453334l95.857778 59.448889L645.546667 576a31.715556 31.715556 0 0 1 0 52.764444z" p-id="87056"></path></svg>