<?xml version="1.0" standalone="no"?><!DOCTYPE svg PUBLIC "-//W3C//DTD SVG 1.1//EN" "http://www.w3.org/Graphics/SVG/1.1/DTD/svg11.dtd"><svg t="1764538472320" class="icon" viewBox="0 0 1024 1024" version="1.1" xmlns="http://www.w3.org/2000/svg" p-id="5113" xmlns:xlink="http://www.w3.org/1999/xlink" width="200" height="200"><path d="M667.512294 390.397232a156.147118 156.147118 0 0 0-27.51773-15.99868A186.864584 186.864584 0 0 1 562.560953 320.00304c-8.959261-10.879102-21.118258-24.957941-34.557149-43.51641a9.599208 9.599208 0 0 0-12.158997-3.839683c-7.679366 0-10.239155 5.759525-10.879103 9.599208a71.674087 71.674087 0 0 0 0 17.278574v301.415133a17.278575 17.278575 0 0 1-6.399472 13.438892 17.918522 17.918522 0 0 1-14.718786 0h-14.078838a154.227276 154.227276 0 0 0-40.956621-5.759525 151.667487 151.667487 0 0 0-44.796304 8.959261 92.792345 92.792345 0 0 0-51.835724 38.396832 44.156357 44.156357 0 0 0-5.759525 33.917202 57.595248 57.595248 0 0 0 20.478311 34.557149 106.871183 106.871183 0 0 0 41.596568 23.038099 122.229916 122.229916 0 0 0 48.635988 0 97.271975 97.271975 0 0 0 56.315354-24.317994 76.153717 76.153717 0 0 0 24.317993-63.99472V364.159397a30.077519 30.077519 0 0 1 17.918522-24.957941 32.637307 32.637307 0 0 1 28.797624 3.839683s3.839683 0 12.158997 10.879103a171.505851 171.505851 0 0 0 33.277255 30.077518 138.228596 138.228596 0 0 0 40.956621 15.358733 63.99472 63.99472 0 0 1 34.557149 17.918522 53.755565 53.755565 0 0 1 13.438891 22.398152 51.195776 51.195776 0 0 0-8.319314-26.237835 109.430972 109.430972 0 0 0-23.038099-23.0381z" fill="#4A4A4A" p-id="5114"></path><path d="M871.655452 151.696925A494.039242 494.039242 0 0 0 512.005123 0.029438a494.039242 494.039242 0 0 0-361.57017 151.667487A494.039242 494.039242 0 0 0 0.04736 511.987201a493.399295 493.399295 0 0 0 149.107699 360.290276A494.039242 494.039242 0 0 0 512.005123 1023.944965a492.1194 492.1194 0 0 0 360.290277-149.107699A493.399295 493.399295 0 0 0 1023.962887 511.987201a494.039242 494.039242 0 0 0-152.307435-360.290276zM723.187701 482.54963a39.676727 39.676727 0 0 1-8.959261 8.959261l-5.759525 3.839683a15.99868 15.99868 0 0 1-12.158997 0 14.078838 14.078838 0 0 1-11.519049-6.399472l-5.119578-6.399472-5.119578-8.959261a99.831764 99.831764 0 0 1-4.47963-20.478311 33.277255 33.277255 0 0 0-7.679366-17.278574 31.357413 31.357413 0 0 0-16.638628-8.319314 150.387593 150.387593 0 0 1-51.835723-19.838363 197.743686 197.743686 0 0 1-41.596569-33.917202v287.976242A108.151078 108.151078 0 0 1 512.005123 750.047561a127.989441 127.989441 0 0 1-74.873822 33.277255 155.507171 155.507171 0 0 1-24.317994 0 145.268015 145.268015 0 0 1-37.756885-5.119578 133.109019 133.109019 0 0 1-55.03546-28.797624 97.911922 97.911922 0 0 1-31.357413-53.115618 78.713506 78.713506 0 0 1 13.438891-56.315354 127.989441 127.989441 0 0 1 70.394193-52.475671 178.54527 178.54527 0 0 1 95.352133-3.199736V304.00436a83.833084 83.833084 0 0 1 3.839684-26.237836 45.436252 45.436252 0 0 1 33.917201-33.277254 42.876463 42.876463 0 0 1 49.915882 11.519049c12.798944 17.918522 24.317994 31.357413 32.637308 41.596569a169.586009 169.586009 0 0 0 63.99472 43.516409 163.826484 163.826484 0 0 1 36.476991 19.838364 127.989441 127.989441 0 0 1 30.717466 30.077518 79.353453 79.353453 0 0 1 14.718785 44.156358 76.153717 76.153717 0 0 1-10.879102 47.356093z" fill="#4A4A4A" p-id="5115"></path></svg>