<?xml version="1.0" standalone="no"?><!DOCTYPE svg PUBLIC "-//W3C//DTD SVG 1.1//EN" "http://www.w3.org/Graphics/SVG/1.1/DTD/svg11.dtd"><svg t="1764101244993" class="icon" viewBox="0 0 1024 1024" version="1.1" xmlns="http://www.w3.org/2000/svg" p-id="111103" xmlns:xlink="http://www.w3.org/1999/xlink" width="200" height="200"><path d="M512 0C229.235 0 0.003 229.232 0.003 511.997c0 282.77 229.23 511.998 511.997 511.998 282.77 0 511.997-229.229 511.997-511.998C1023.997 229.232 794.77 0 512 0z m0 952.139c-243.083 0-440.136-197.059-440.136-440.143C71.864 268.913 268.917 71.86 512 71.86S952.14 268.914 952.14 511.996c0 243.084-197.057 440.143-440.14 440.143z m0 0" fill="" p-id="111104"></path><path d="M265.664 749.59h492.67c19.347 0 35.194-15.845 35.194-35.19V309.596c0-19.349-15.848-35.191-35.193-35.191H265.664c-19.35 0-35.192 15.842-35.192 35.191V714.4c0 19.345 15.843 35.19 35.192 35.19z m0-35.192v-103.68L406.89 473.853 552.484 619.29c5.995 7.288 16.684 6.359 24.263 0.619l64.265-58.182 115.913 118.978c0.453 0.448 0.928 0.861 1.411 1.25v32.443H265.664z m492.67-404.802V631.76L654.948 525.951c-6.272-6.187-16.103-6.82-23.061-1.511l-66.293 57.749-145.677-144.111a17.622 17.622 0 0 0-12.476-6.374c-4.845-0.172-9.623 1.408-13.178 4.742L265.664 561.59V309.596h492.67z m0 0" fill="" p-id="111105"></path><path d="M635.169 450.486c19.398 0 35.104-15.732 35.104-35.106 0-19.366-15.706-35.096-35.104-35.096-19.4 0-35.109 15.728-35.109 35.096 0 19.373 15.71 35.106 35.109 35.106z m0 0" fill="" p-id="111106"></path></svg>