<?xml version="1.0" standalone="no"?><!DOCTYPE svg PUBLIC "-//W3C//DTD SVG 1.1//EN" "http://www.w3.org/Graphics/SVG/1.1/DTD/svg11.dtd"><svg t="1764091821691" class="icon" viewBox="0 0 1024 1024" version="1.1" xmlns="http://www.w3.org/2000/svg" p-id="33528" xmlns:xlink="http://www.w3.org/1999/xlink" width="200" height="200"><path d="M589.354667 129.408c0 8.576-4.266667 12.885333-12.885334 12.885333a1976.96 1976.96 0 0 1-348.16 25.770667c5.845333-12.373333 14.464-23.082667 25.813334-32.213333 111.658667-6.442667 223.402667-8.618667 335.232-6.442667z" fill="#2DB7F8" opacity=".971" p-id="33529"></path><path d="M589.354667 129.408c39.338667-5.034667 73.728 3.541333 103.125333 25.770667-56.661333 10.112-106.112 35.882667-148.266667 77.354666-5.12-2.944-7.253333-7.253333-6.442666-12.885333v-38.698667c16.853333-8.234667 30.464-21.845333 38.698666-38.656 8.576 0 12.885333-4.266667 12.885334-12.885333z" fill="#093AC5" opacity=".998" p-id="33530"></path><path d="M576.426667 142.293333a84.352 84.352 0 0 1-38.656 38.656H215.424c0-8.576 4.266667-12.885333 12.885333-12.885333 116.906667 1.706667 232.96-6.912 348.16-25.770667z" fill="#21A7F3" p-id="33531"></path><path d="M215.424 180.949333h322.346667v12.928a7552.426667 7552.426667 0 0 0-348.16 12.885334 38.741333 38.741333 0 0 1 25.813333-25.813334z" fill="#19A0EF" p-id="33532"></path><path d="M692.48 155.178667c10.837333 4.394667 15.146667 13.013333 12.928 25.770666-58.965333 23.936-115.2 54.186667-167.637333 90.282667-10.24-5.888-14.549333-14.506667-12.885334-25.770667v-25.813333h12.885334c-0.853333 5.632 1.322667 9.941333 6.485333 12.885333 42.154667-41.472 91.562667-67.242667 148.266667-77.354666z" fill="#1242C8" opacity=".999" p-id="33533"></path><path d="M537.770667 193.877333v25.770667h-12.885334a3078.826667 3078.826667 0 0 1-348.16 12.885333l12.928-25.770666c115.925333-6.997333 232.021333-11.264 348.16-12.885334z" fill="#1196EA" opacity=".999" p-id="33534"></path><path d="M524.885333 219.648v25.813333c-10.794667 4.394667-15.104 12.970667-12.885333 25.770667a203.946667 203.946667 0 0 1-96.725333-12.885333 1450.24 1450.24 0 0 1-264.32 25.770666l25.770666-51.584a3078.826667 3078.826667 0 0 0 348.16-12.885333z" fill="#0D91E3" opacity=".999" p-id="33535"></path><path d="M718.293333 232.533333c13.098667 43.136 38.869333 77.525333 77.354667 103.168a471.978667 471.978667 0 0 1-154.709333 12.885334h-51.584c18.517333-65.792 61.482667-104.448 128.938666-116.053334z" fill="#1F73DF" opacity=".968" p-id="33536"></path><path d="M512 271.232c2.218667 12.8-2.090667 21.376-12.885333 25.770667-18.901333-8.533333-40.362667-12.8-64.469334-12.885334-98.901333 9.301333-197.76 17.92-296.576 25.813334l12.885334-25.813334a1449.344 1449.344 0 0 0 264.32-25.770666A203.946667 203.946667 0 0 0 512 271.232z" fill="#1192DA" opacity=".958" p-id="33537"></path><path d="M705.408 180.949333c8.618667 0 12.885333 4.309333 12.885333 12.928-85.461333 19.157333-141.354667 70.741333-167.594666 154.709334a244.224 244.224 0 0 0-64.469334 38.698666V348.586667c11.648-9.130667 15.914667-22.016 12.885334-38.656V296.96c10.794667-4.394667 15.104-12.970667 12.885333-25.770667-2.218667-12.8 2.090667-21.376 12.885333-25.770666-1.706667 11.264 2.645333 19.882667 12.885334 25.770666a878.72 878.72 0 0 1 167.68-90.282666z" fill="#1648C9" p-id="33538"></path><path d="M718.293333 193.877333v38.656c-67.413333 11.605333-110.421333 50.261333-128.938666 116.053334h-38.698667c26.282667-83.968 82.133333-135.552 167.637333-154.709334z" fill="#2057D0" opacity=".923" p-id="33539"></path><path d="M499.114667 297.002667v12.928c-120.448 2.133333-240.810667 6.4-361.045334 12.885333v-12.885333a20780.8 20780.8 0 0 0 296.533334-25.813334c24.149333 0.085333 45.653333 4.394667 64.512 12.885334z" fill="#1996CD" p-id="33540"></path><path d="M499.114667 309.930667c3.029333 16.64-1.28 29.525333-12.928 38.656-19.925333-16.64-45.738667-25.258667-77.354667-25.770667a3697.365333 3697.365333 0 0 1-283.648 25.770667l12.885333-25.770667c120.234667-6.442667 240.597333-10.752 361.045334-12.885333z" fill="#219AC0" opacity=".999" p-id="33541"></path><path d="M486.229333 348.586667c-120.490667 1.28-240.853333 5.546667-361.045333 12.885333V348.586667a3697.365333 3697.365333 0 0 0 283.648-25.770667c31.616 0.512 57.429333 9.088 77.354667 25.770667z" fill="#299EB3" p-id="33542"></path><path d="M486.186667 348.586667V400.213333c-8.576 0-12.885333-4.266667-12.885334-12.885333a1505.408 1505.408 0 0 0-361.045333 12.885333 73.813333 73.813333 0 0 0 12.885333-38.698666c120.234667-7.296 240.64-11.605333 361.045334-12.885334z" fill="#32A2A5" opacity=".998" p-id="33543"></path><path d="M473.301333 387.285333c-120.192 10.709333-240.554667 19.328-361.045333 25.770667V400.213333c122.026667-18.858667 242.346667-23.168 361.045333-12.885333z" fill="#3BA896" opacity=".999" p-id="33544"></path><path d="M795.648 335.701333c55.125333-9.685333 98.133333 7.509333 128.981333 51.584h-154.752c-27.178667-12.501333-57.258667-16.810667-90.24-12.885333h-51.626666l12.928-25.813333c54.186667 4.096 105.770667-0.213333 154.709333-12.885334z" fill="#B66BEC" opacity=".86" p-id="33545"></path><path d="M769.877333 387.285333h154.752c12.032 13.781333 16.341333 30.933333 12.885334 51.584-51.626667 2.133333-103.424 0-154.752-6.485333-23.338667-13.397333-27.648-28.416-12.885334-45.098667z" fill="#A650E3" opacity=".999" p-id="33546"></path><path d="M473.301333 387.285333c0 8.576 4.266667 12.885333 12.885334 12.885334 0 8.618667-4.266667 12.885333-12.885334 12.885333-124.8 6.485333-249.429333 15.061333-373.930666 25.813333l12.885333-25.813333c120.490667-6.442667 240.853333-15.061333 361.045333-25.770667z" fill="#44AC87" p-id="33547"></path><path d="M473.301333 413.056c0.853333 18.816-3.413333 36.010667-12.885333 51.626667a3801.429333 3801.429333 0 0 0-361.045333 12.842666v-38.656c124.501333-10.752 249.173333-19.328 373.930666-25.813333z" fill="#53B272" opacity=".999" p-id="33548"></path><path d="M628.053333 374.4h51.541334c64.170667 89.173333 150.101333 119.253333 257.92 90.24V516.266667c-124.416 2.048-236.16-32.341333-335.274667-103.168 5.546667-15.573333 14.165333-28.501333 25.813333-38.656z" fill="#BE52C6" opacity=".977" p-id="33549"></path><path d="M679.637333 374.4c32.981333-3.925333 63.061333 0.426667 90.24 12.885333-14.762667 16.64-10.453333 31.701333 12.885334 45.141334 51.413333 6.4 102.997333 8.533333 154.752 6.4v25.813333c-107.776 29.013333-193.749333-1.066667-257.877334-90.24z" fill="#B150D4" opacity=".999" p-id="33550"></path><path d="M460.416 464.64v25.770667c-124.458667 8.362667-249.130667 12.672-373.930667 12.928-2.218667-12.8 2.090667-21.376 12.885334-25.813334a3803.008 3803.008 0 0 1 361.045333-12.885333z" fill="#6FB75D" opacity=".998" p-id="33551"></path><path d="M602.24 425.941333v-12.885333c99.114667 70.826667 210.858667 105.216 335.274667 103.168 3.029333 16.64-1.28 29.525333-12.885334 38.698667-126.976 2.133333-234.453333-40.832-322.389333-128.981334z" fill="#C751BB" opacity=".997" p-id="33552"></path><path d="M460.373333 490.453333c0 8.576-4.266667 12.885333-12.842666 12.885334a9358.506667 9358.506667 0 0 1-361.045334 25.770666v-25.770666c124.8-0.256 249.472-4.565333 373.930667-12.928z" fill="#81B951" opacity=".999" p-id="33553"></path><path d="M589.354667 490.453333a529.664 529.664 0 0 1 141.866666 96.682667c59.904 8.533333 120.106667 15.018667 180.48 19.328 3.072 16.64-1.194667 29.568-12.885333 38.698667-120.661333-12.928-228.096-55.893333-322.346667-128.938667-2.218667-12.8 2.090667-21.376 12.885334-25.770667z" fill="#E3569B" opacity=".972" p-id="33554"></path><path d="M602.24 425.941333c87.936 88.149333 195.413333 131.114667 322.389333 128.938667v25.813333c-136.32 14.848-243.754667-32.426667-322.389333-141.824v-12.928z" fill="#D153AF" opacity=".998" p-id="33555"></path><path d="M576.469333 516.224c94.293333 73.045333 201.685333 116.010667 322.346667 128.938667v12.885333c-126.933333 2.176-234.368-40.789333-322.346667-128.938667V516.266667z" fill="#EA5792" p-id="33556"></path><path d="M447.530667 503.338667c3.029333 16.64-1.28 29.525333-12.928 38.656-115.882667 6.997333-231.936 11.264-348.16 12.928V529.066667c120.533333-6.272 240.896-14.848 361.088-25.770667z" fill="#99BC42" opacity=".999" p-id="33557"></path><path d="M434.645333 541.994667v25.813333h-348.16v-12.885333c116.138667-1.621333 232.192-5.973333 348.16-12.928z" fill="#A9BE37" opacity=".986" p-id="33558"></path><path d="M576.426667 529.109333c88.021333 88.149333 195.413333 131.114667 322.389333 128.938667v25.813333c-36.821333 6.997333-75.52 4.864-116.053333-6.442666a1480.704 1480.704 0 0 0-167.594667-64.469334 114.090667 114.090667 0 0 0-51.626667-45.141333c-3.029333-16.64 1.28-29.568 12.928-38.698667z" fill="#F1598A" opacity=".967" p-id="33559"></path><path d="M86.485333 567.808h348.16v12.885333c-115.882667 8.576-231.936 12.885333-348.16 12.885334v-25.770667z" fill="#B6BF2E" opacity=".999" p-id="33560"></path><path d="M602.24 438.869333c78.634667 109.397333 186.112 156.672 322.389333 141.824 2.218667 12.8-2.133333 21.376-12.928 25.770667a2573.994667 2573.994667 0 0 1-180.48-19.328 529.621333 529.621333 0 0 0-141.866666-96.682667c-3.413333-20.650667 0.853333-37.845333 12.885333-51.626666z" fill="#D954A5" opacity=".999" p-id="33561"></path><path d="M434.645333 580.693333a73.813333 73.813333 0 0 0-12.885333 38.698667c-109.696 4.608-217.173333 13.226667-322.389333 25.770667-12.032-13.781333-16.341333-30.976-12.885334-51.584 116.224 0 232.277333-4.266667 348.16-12.885334z" fill="#CAC222" opacity=".978" p-id="33562"></path><path d="M563.584 580.693333c89.514667 82.944 196.949333 125.952 322.346667 128.938667 2.218667 12.8-2.090667 21.376-12.885334 25.770667a735.189333 735.189333 0 0 1-322.346666-116.053334c-3.072-16.64 1.237333-29.525333 12.885333-38.656z" fill="#F46781" opacity=".974" p-id="33563"></path><path d="M421.717333 619.392l-12.885333 25.770667c-98.986667 2.304-197.802667 6.613333-296.533333 12.885333-8.661333 0-12.928-4.266667-12.928-12.885333a4235.093333 4235.093333 0 0 1 322.346666-25.770667z" fill="#E1C413" opacity=".999" p-id="33564"></path><path d="M537.770667 632.277333c99.029333 74.581333 210.773333 113.237333 335.274666 116.053334l-12.885333 25.770666a725.376 725.376 0 0 1-322.389333-116.053333v-25.770667z" fill="#F57278" opacity=".995" p-id="33565"></path><path d="M408.832 645.162667l-25.770667 38.698666a578.133333 578.133333 0 0 1-128.981333 12.885334 418.474667 418.474667 0 0 1-103.125333-6.442667c-18.602667-4.864-31.488-15.616-38.698667-32.256 98.773333-6.272 197.589333-10.581333 296.533333-12.885333z" fill="#F4C50E" opacity=".999" p-id="33566"></path><path d="M537.770667 658.048a725.376 725.376 0 0 0 322.389333 116.053333c0 8.618667-4.309333 12.885333-12.928 12.885334a616.106667 616.106667 0 0 1-309.461333-103.125334v-25.813333z" fill="#F77975" opacity=".999" p-id="33567"></path><path d="M537.770667 632.277333c0-8.618667 4.266667-12.885333 12.928-12.885333a735.146667 735.146667 0 0 0 322.346666 116.053333v12.885334c-124.501333-2.816-236.245333-41.514667-335.274666-116.053334z" fill="#F56D7C" opacity=".998" p-id="33568"></path><path d="M421.717333 683.861333h38.698667c-14.08 79.701333-48.469333 148.48-103.168 206.293334-26.282667-18.176-39.168-43.946667-38.656-77.354667 72.832-12.629333 107.221333-55.637333 103.125333-128.938667z" fill="#FE643E" opacity=".936" p-id="33569"></path><path d="M563.541333 567.808c21.077333 9.088 38.272 24.149333 51.626667 45.141333a1478.4 1478.4 0 0 1 167.594667 64.426667c40.533333 11.349333 79.232 13.482667 116.053333 6.485333l-12.885333 25.770667c-125.44-2.986667-232.874667-45.994667-322.389334-128.938667v-12.885333z" fill="#F36085" opacity=".999" p-id="33570"></path><path d="M524.885333 722.517333v-12.885333a6644.48 6644.48 0 0 1 206.336 83.797333c33.450667 10.581333 68.096 17.066667 103.125334 19.370667v12.885333a734.122667 734.122667 0 0 1-309.461334-103.168z" fill="#F8866D" opacity=".991" p-id="33571"></path><path d="M512 761.173333v-12.842666a1514.666667 1514.666667 0 0 0 296.533333 103.125333c0 8.618667-4.266667 12.928-12.885333 12.928A665.898667 665.898667 0 0 1 512 761.173333z" fill="#FA9265" opacity=".985" p-id="33572"></path><path d="M512 761.173333a665.898667 665.898667 0 0 0 283.648 103.210667 38.741333 38.741333 0 0 1-25.770667 25.770667 1283.882667 1283.882667 0 0 1-270.805333-103.168l12.928-25.770667z" fill="#FB9861" opacity=".971" p-id="33573"></path><path d="M537.770667 683.861333a616.106667 616.106667 0 0 0 309.504 103.125334c2.218667 12.8-2.133333 21.376-12.928 25.813333a439.125333 439.125333 0 0 1-103.125334-19.370667 6644.48 6644.48 0 0 0-206.336-83.797333c-2.218667-12.8 2.133333-21.376 12.928-25.770667z" fill="#F77F71" opacity=".991" p-id="33574"></path><path d="M383.018667 683.861333h38.698666c4.096 73.301333-30.293333 116.309333-103.168 128.938667a365.44 365.44 0 0 0-64.426666-116.053333 578.730667 578.730667 0 0 0 128.896-12.885334z" fill="#FF8247" opacity=".849" p-id="33575"></path><path d="M460.373333 683.861333h25.813334c14.378667 18.645333 16.512 40.106667 6.442666 64.426667a1434.496 1434.496 0 0 1-96.682666 154.752c-16.64 3.072-29.568-1.237333-38.698667-12.885333 54.698667-57.813333 89.088-126.592 103.168-206.293334z" fill="#EF513C" opacity=".996" p-id="33576"></path><path d="M537.770667 645.162667v38.698666c-10.794667 4.394667-15.104 12.970667-12.885334 25.770667v12.885333c-10.794667 4.437333-15.104 13.013333-12.885333 25.813334v12.885333l-12.928 25.770667a73.898667 73.898667 0 0 1-12.885333 38.698666 185.045333 185.045333 0 0 1-51.584 77.354667H395.946667a1434.538667 1434.538667 0 0 0 96.682666-154.709333c10.069333-24.32 7.936-45.824-6.4-64.469334 17.066667-13.056 34.261333-25.941333 51.541334-38.698666z" fill="#D5403E" opacity=".996" p-id="33577"></path><path d="M524.885333 722.517333a733.952 733.952 0 0 0 309.461334 103.168 38.741333 38.741333 0 0 1-25.813334 25.770667A1514.410667 1514.410667 0 0 1 512 748.373333c-2.218667-12.8 2.090667-21.376 12.885333-25.813333z" fill="#F98C68" opacity=".998" p-id="33578"></path><path d="M499.114667 786.986667a1283.882667 1283.882667 0 0 0 270.762666 103.168c-35.925333 12.586667-74.624 16.896-116.053333 12.885333a1500.074667 1500.074667 0 0 0-167.594667-77.354667 73.813333 73.813333 0 0 0 12.885334-38.698666z" fill="#FCA05C" p-id="33579"></path><path d="M486.186667 825.685333a1500.458667 1500.458667 0 0 1 167.68 77.354667h-219.221334a185.045333 185.045333 0 0 0 51.541334-77.354667z" fill="#FDAC52" p-id="33580"></path></svg>