<?xml version="1.0" standalone="no"?><!DOCTYPE svg PUBLIC "-//W3C//DTD SVG 1.1//EN" "http://www.w3.org/Graphics/SVG/1.1/DTD/svg11.dtd"><svg t="1764100086077" class="icon" viewBox="0 0 1024 1024" version="1.1" xmlns="http://www.w3.org/2000/svg" p-id="87201" xmlns:xlink="http://www.w3.org/1999/xlink" width="200" height="200"><path d="M972.8 209.8c-16.7-17-39-26.3-62.7-26.3H650.6l55.1-117.6 0.1-0.1c9.7-21.9 0.2-48.6-21.6-60.7l-0.3-0.2C679.4 2.6 672.1 0 666.2 0c-18.2 0-34.5 10.6-41.6 26.9l-72.4 156.5H441.5L369.2 26.9C362.1 10.6 345.8 0 327.6 0c-6.2 0-10.8 1.7-15.3 3.3-1.1 0.4-2.2 0.8-3.4 1.2l-1.1 0.4C298.2 9.7 288.9 19 284 28.7l-0.3 0.6c-5.2 13.1-4.3 25.6 2.5 35.3L341 181.5H113.9c-23.7 0-46 9.4-62.7 26.3-16.8 17.1-26 39.9-26 64.3v661.2c0 23.5 9.2 45.8 26 62.8 16.6 16.9 38.7 26.8 62.3 27.8h796.6c23.7 0 46-9.4 62.7-26.3 16.8-17.1 26-39.9 26-64.3V274.1c0-24.4-9.2-47.3-26-64.3z m-64.7 64.3v659.2H115.9V274.1h792.2z" p-id="87202"></path><path d="M544.3 734.7c-165.7 93.3-182.6 57.5-182.6-129s16.9-244.3 182.6-151c189.2 107 190.5 176.1 0 280z" p-id="87203"></path></svg>