<?xml version="1.0" standalone="no"?><!DOCTYPE svg PUBLIC "-//W3C//DTD SVG 1.1//EN" "http://www.w3.org/Graphics/SVG/1.1/DTD/svg11.dtd"><svg t="1764761257389" class="icon" viewBox="0 0 1024 1024" version="1.1" xmlns="http://www.w3.org/2000/svg" p-id="2671" xmlns:xlink="http://www.w3.org/1999/xlink" width="200" height="200"><path d="M659.626667 743.253333V836.266667c0 48.64 29.866667 91.306667 74.24 109.226666l66.56 26.453334c5.12 1.706667 7.68 6.826667 7.68 11.093333v1.706667c0 5.973333-5.12 9.386667-9.386667 9.386666H226.133333c-5.973333 0-9.386667-5.12-9.386666-9.386666v-1.706667c0-5.12 2.56-9.386667 7.68-11.093333l66.56-26.453334c44.373333-17.92 74.24-60.586667 74.24-109.226666V743.253333h294.4z" fill="#3F3F3F" p-id="2672"></path><path d="M93.013333 89.6h840.533334c26.453333 0 46.933333 21.333333 46.933333 46.933333v571.733334c0 26.453333-21.333333 46.933333-46.933333 46.933333H90.453333c-26.453333 0-46.933333-21.333333-46.933333-46.933333V139.093333c0-28.16 22.186667-49.493333 49.493333-49.493333z m8.533334 82.773333v500.053334c0 18.773333 15.36 34.986667 34.986666 34.986666h750.933334c18.773333 0 34.986667-15.36 34.986666-34.986666V172.373333c0-18.773333-15.36-34.986667-34.986666-34.986666H136.533333c-19.626667 0-34.986667 15.36-34.986666 34.986666z" fill="#3F3F3F" p-id="2673"></path><path d="M716.8 427.52h64V622.933333H716.8zM570.88 390.826667l-17.066667-17.92L674.133333 258.56l86.186667 68.266667 96.426667-103.253334 17.066666 24.746667-113.493333 107.52-83.626667-66.56z" fill="#3F3F3F" p-id="2674"></path><path d="M551.253333 378.88l-17.066666-17.066667 121.173333-116.906666 84.48 69.12 99.84-104.106667 17.066667 24.746667-116.906667 107.52-81.066667-66.56zM558.933333 462.506667H622.933333V622.933333h-64zM637.44 395.093333h64v228.693334h-64zM802.133333 377.173333h64V622.933333H802.133333zM314.026667 427.52H183.466667c-13.653333 0-26.453333-11.093333-26.453334-26.453333v-1.706667c0-13.653333 11.093333-26.453333 26.453334-26.453333h129.706666c13.653333 0 26.453333 11.093333 26.453334 26.453333v1.706667c0 16.213333-13.653333 26.453333-25.6 26.453333zM418.133333 335.36H183.466667c-13.653333 0-26.453333-11.093333-26.453334-26.453333V307.2c0-13.653333 11.093333-26.453333 26.453334-26.453333h232.96c13.653333 0 26.453333 11.093333 26.453333 26.453333v1.706667c0 12.8-11.093333 26.453333-24.746667 26.453333zM418.133333 522.24H183.466667c-13.653333 0-26.453333-11.093333-26.453334-26.453333v-1.706667c0-13.653333 11.093333-26.453333 26.453334-26.453333h232.96c13.653333 0 26.453333 11.093333 26.453333 26.453333v1.706667c0 15.36-11.093333 26.453333-24.746667 26.453333zM314.026667 616.106667H183.466667c-13.653333 0-26.453333-11.093333-26.453334-26.453334V588.8c0-13.653333 11.093333-26.453333 26.453334-26.453333h129.706666c13.653333 0 26.453333 11.093333 26.453334 26.453333v1.706667c0 15.36-13.653333 25.6-25.6 25.6z" fill="#3F3F3F" p-id="2675"></path></svg>