<?xml version="1.0" standalone="no"?><!DOCTYPE svg PUBLIC "-//W3C//DTD SVG 1.1//EN" "http://www.w3.org/Graphics/SVG/1.1/DTD/svg11.dtd"><svg t="1764104482610" class="icon" viewBox="0 0 1239 1024" version="1.1" xmlns="http://www.w3.org/2000/svg" p-id="135911" xmlns:xlink="http://www.w3.org/1999/xlink" width="241.9921875" height="200"><path d="M218.920421 52.439579c-21.342316 27.270737-37.510737 57.128421-50.122105 104.016842l-3.395369 13.743158c-14.012632 60.739368-16.545684 134.844632-4.796631 224.202105l1.886316 13.365895 3.072-7.329684a352.579368 352.579368 0 0 0-30.82779 142.713263l0.431158 9.054316 1.185684 8.515368 0.862316 4.042105 0.215579-4.042105a360.771368 360.771368 0 0 0-0.646737 21.989053c0 229.914947 217.573053 414.342737 483.974737 414.342737 266.455579 0 484.082526-184.427789 484.082526-414.342737l-0.431158-17.354106a365.945263 365.945263 0 0 0-48.235789-164.055578l-4.042105-6.682948-1.185685 9.701053c14.012632-101.537684 7.437474-187.661474-13.904842-258.910316-13.419789-44.786526-29.857684-75.776-43.115789-92.914526a54.864842 54.864842 0 0 0-59.984842-18.162527c-21.557895 6.736842-49.475368 22.905263-83.321263 46.888421-8.569263 5.982316-17.408 12.503579-26.408421 19.348211l-17.408 13.312c-11.102316 8.623158-21.504 16.976842-31.690106 25.438316l-22.366316 18.809263 15.575579 4.850526a555.277474 555.277474 0 0 0-175.211789-28.294737l-21.989053 0.485053a556.732632 556.732632 0 0 0-129.024 20.48l-4.527158 1.401263-28.941473-28.079158-20.210527-19.078737a676.271158 676.271158 0 0 0-42.630736-36.325052l-10.671158-8.084211a227.866947 227.866947 0 0 0-47.966316-28.133052L279.821474 34.708211 276.102737 32.336842a46.618947 46.618947 0 0 0-2.209684-1.239579C252.874105 19.941053 237.136842 29.157053 218.920421 52.439579z m42.630737 32.929684l0.808421 0.269474c12.288 3.826526 29.696 14.389895 50.337684 30.450526 6.575158 5.12 13.365895 10.671158 20.426105 16.707369l15.036632 13.312 28.348632 26.731789 30.935579 30.181053 3.664842 4.149894 11.587368 10.994527 15.252211-4.958316a503.053474 503.053474 0 0 1 313.344 0.91621l18.485894 6.144 11.910737-16.060631-2.479158 2.209684c25.707789-22.096842 48.505263-40.96 77.446737-62.841263 8.623158-6.521263 17.030737-12.665263 25.061053-18.378105 29.534316-20.857263 53.625263-34.869895 68.50021-39.504842l1.13179-0.10779 3.557052 5.066105 2.263579 3.772632 5.497263 9.701053c8.245895 15.575579 16.060632 34.492632 22.743579 56.697263 19.132632 63.919158 25.114947 142.228211 12.234106 235.735579l-1.616842 10.671158 14.174315 2.155789-8.677052 5.551158c32.336842 51.361684 49.421474 108.544 49.421473 167.774316 0 198.009263-191.703579 360.448-430.133894 360.448-238.484211 0-430.133895-162.438737-430.133895-360.448 0-6.251789 0.161684-12.503579 0.538947-18.701474l-0.808421-8.515368a46.726737 46.726737 0 0 1-1.778526-12.341895c0-41.175579 9.000421-81.812211 26.246737-120.993684l3.125895-7.168-1.13179-7.760842c-15.036632-98.789053-12.072421-176.666947 4.042105-236.813474 10.509474-39.235368 23.282526-62.841263 40.636632-85.045895z" fill="#949494" p-id="135912"></path><path d="M668.833684 862.315789c-42.037895-0.053895-76.099368-21.773474-75.991579-48.559157 0.107789-26.785684 34.169263-48.343579 76.261053-48.289685 31.312842 0.107789 58.206316 12.180211 69.847579 29.372632 120.616421-14.120421 219.674947-79.494737 274.32421-168.259368 13.258105-21.557895 9.323789-29.157053 18.270316-31.85179 9.862737-2.964211 40.906105-5.12 41.984 15.521684 0.862316 16.707368 9.377684-1.077895 0 21.126737-59.230316 116.736-190.194526 201.135158-345.680842 213.315369-14.120421 10.778947-35.354947 17.677474-59.014737 17.623578zM367.023158 630.784c15.252211-23.444211 35.031579-33.468632 64.134737-33.468632 29.103158 0 48.882526 10.024421 64.134737 33.414737 9.323789 14.389895 31.797895 20.156632 50.122105 12.826948 18.432-7.275789 25.761684-24.845474 16.437895-39.235369C534.204632 561.852632 489.094737 538.947368 431.157895 538.947368c-57.936842 0-103.046737 22.905263-130.694737 65.374316-9.323789 14.389895-1.994105 31.959579 16.384 39.235369 18.378105 7.329684 40.852211 1.616842 50.176-12.773053z" fill="#949494" p-id="135913"></path><path d="M744.286316 630.784c15.252211-23.444211 35.031579-33.468632 64.134737-33.468632 29.103158 0 48.882526 10.024421 64.134736 33.414737 9.323789 14.389895 31.797895 20.156632 50.122106 12.826948 18.432-7.275789 25.761684-24.845474 16.437894-39.235369C911.467789 561.852632 866.357895 538.947368 808.421053 538.947368c-57.936842 0-103.046737 22.905263-130.694737 65.374316-9.323789 14.389895-1.994105 31.959579 16.384 39.235369 18.378105 7.329684 40.852211 1.616842 50.176-12.773053zM269.365895 610.627368a18.701474 18.701474 0 0 0-9.701053-13.365894 34.330947 34.330947 0 0 0-20.048842-4.311579l-214.932211 14.659368c-14.928842 1.024-25.869474 10.563368-24.576 21.396211 1.347368 10.078316 13.096421 17.785263 27.109053 17.731368 0.862316 0 1.724632 0 2.640842-0.107789l214.932211-14.659369c14.874947-1.077895 25.869474-10.563368 24.576-21.342316zM321.320421 713.728c-5.874526-10.778947-22.096842-15.952842-36.217263-11.533474l-213.854316 65.751579c-14.228211 4.311579-21.126737 16.707368-15.25221 27.378527 4.365474 8.192 14.821053 13.096421 25.869473 13.096421a33.738105 33.738105 0 0 0 10.509474-1.616842l213.854316-65.751579c14.012632-4.311579 20.803368-16.599579 15.090526-27.324632zM1214.895158 607.609263l-214.932211-14.659368a34.223158 34.223158 0 0 0-19.994947 4.311579c-5.605053 3.287579-9.108211 8.084211-9.701053 13.365894-1.509053 10.725053 9.593263 20.372211 24.522106 21.342316l214.93221 14.659369a21.665684 21.665684 0 0 0 2.694737 0.107789c13.958737 0 25.653895-7.653053 27.055158-17.785263a16.276211 16.276211 0 0 0-6.144-14.336 31.258947 31.258947 0 0 0-18.432-7.006316zM1168.222316 768l-213.692632-65.751579a35.732211 35.732211 0 0 0-21.234526 0 25.330526 25.330526 0 0 0-14.982737 11.479579c-5.928421 10.725053 1.077895 23.013053 15.252211 27.378526l213.800421 65.751579c3.503158 0.970105 6.952421 1.562947 10.563368 1.562948 11.317895 0.053895 21.557895-5.12 25.815579-13.096421a16.491789 16.491789 0 0 0-0.323368-16.168421 25.653895 25.653895 0 0 0-15.198316-11.156211z" fill="#949494" p-id="135914"></path></svg>