<?xml version="1.0" standalone="no"?><!DOCTYPE svg PUBLIC "-//W3C//DTD SVG 1.1//EN" "http://www.w3.org/Graphics/SVG/1.1/DTD/svg11.dtd"><svg t="1764939360250" class="icon" viewBox="0 0 1024 1024" version="1.1" xmlns="http://www.w3.org/2000/svg" p-id="3920" xmlns:xlink="http://www.w3.org/1999/xlink" width="200" height="200"><path d="M808.63085938 170.54492187c-60.64453125-30.32226563-187.20703125-73.828125-187.20703126-73.82812498s42.1875 38.23242188 44.82421876 69.87304686c2.63671875 29.00390625 0 309.81445313 0 309.81445314s2.63671875 334.86328125 0 369.14062498c-2.63671875 36.9140625-44.82421875 83.05664063-44.82421875 83.05664063s126.5625-51.41601563 187.20703124-87.01171875c60.64453125-35.59570313 123.92578126-80.41992188 123.92578126-80.41992188V237.78124999s-61.96289063-38.23242188-123.92578125-67.23632812zM237.78124999 331.38476562h259.71679689c26.3671875 0 47.4609375-21.09375001 47.46093749-47.46093749v-51.41601563c0-26.3671875-21.09375001-47.4609375-47.4609375-47.4609375H237.78124999c-26.3671875 0-47.4609375 21.09375001-47.46093749 47.4609375v51.41601563c0 26.3671875 21.09375001 47.4609375 47.46093751 47.4609375zM501.453125 356.43359375H232.5078125c-25.04882813 0-44.82421875 19.77539065-44.82421875 44.82421875V432.8984375c0 25.04882813 19.77539065 44.82421875 44.82421875 44.82421875h267.62695313c25.04882813 0 44.82421875-19.77539065 44.82421874-44.82421875V401.2578125c0-25.04882813-19.77539065-44.82421875-43.50585937-44.82421875z" fill="#515151" p-id="3921"></path><path d="M651.21875001 541.53125001V213.875c0-5.625 0-9.84375001-1.40625001-14.0625-7.03125002-73.125-68.90625001-129.375-143.4375-129.375H208.25c-74.53125001 0-136.40625001 57.65624999-143.4375 129.375 0 4.21875001-1.40625001 9.84375001-1.40625001 14.0625V810.125c0 60.46875001 37.96875001 113.90625001 91.40625001 135 1.40625001 0 2.8125 1.40625001 2.8125 1.40625001 4.21875001 1.40625001 8.4375 2.8125 11.25 4.21874999 1.40625001 0 2.8125 1.40625001 4.21875001 1.40625001 4.21875001 1.40625001 8.4375 1.40625001 11.24999998 2.8125 1.40625001 0 2.8125 0 4.21875001 1.40624999 5.625 0 11.25 1.40625001 16.875 1.40625001h299.53125001c5.625 0 11.25 0 16.87499998-1.40625001 1.40625001 0 2.8125 0 4.21875001-1.40625002 4.21875001 0 8.4375-1.40625001 11.25-2.81249999 1.40625001 0 2.8125-1.40625001 4.21874999-1.40624999 4.21875001-1.40625001 8.4375-2.8125 11.25-4.21874999 1.40625001 0 2.8125-1.40625001 2.8125-1.40625001 53.4375-21.09375003 91.40625001-73.125 91.40625001-135l4.21875001-268.59375001zM405.125 731.375c-8.4375 12.65625001-21.09375003 21.09375003-36.5625 23.90625001-4.21875001 1.40625001-7.03125002 1.40625001-11.25 1.40624999s-8.4375 0-11.25-1.40625001c-22.50000001-4.21875001-39.375-22.50000001-45-45-1.40625001-4.21875001-1.40625001-7.03125002-1.40625001-11.25s0-8.4375 1.40625001-11.25c4.21875001-22.50000001 22.50000001-39.375 45-45.00000001 4.21875001-1.40625001 7.03125002-1.40625001 11.25-1.40624998s8.4375 0 11.25 1.40624998c15.46875001 2.8125 28.125 11.25 36.5625 23.90625002 5.625 9.84375001 9.84375001 19.68749999 9.84375001 32.34374999 0 11.25-4.21875001 22.50000001-9.84375001 32.34375001z m168.75-284.0625c0 29.53125001-25.3125 54.84375001-54.84375001 54.84375001h-323.43749998c-29.53125001 0-54.84375001-25.3125-54.84375001-54.84375001v-254.53125001c0-29.53125001 25.3125-54.84375001 54.84374999-54.84374999h323.43750003c29.53125001 0 54.84375001 25.3125 54.84374998 54.84375001V447.3125z" fill="#2c2c2c" p-id="3922"></path></svg>