<?xml version="1.0" standalone="no"?><!DOCTYPE svg PUBLIC "-//W3C//DTD SVG 1.1//EN" "http://www.w3.org/Graphics/SVG/1.1/DTD/svg11.dtd"><svg t="1764104871283" class="icon" viewBox="0 0 1024 1024" version="1.1" xmlns="http://www.w3.org/2000/svg" p-id="140618" xmlns:xlink="http://www.w3.org/1999/xlink" width="200" height="200"><path d="M352 448h-256A96 96 0 0 1 0 352v-256A96 96 0 0 1 96 0h256A96 96 0 0 1 448 96v256A96 96 0 0 1 352 448z m-256-384a32 32 0 0 0-32 32v256a32 32 0 0 0 32 32h256a32 32 0 0 0 32-32v-256a32 32 0 0 0-32-32zM800 448A224 224 0 1 1 1024 224 224 224 0 0 1 800 448z m0-384A160 160 0 1 0 960 224 160 160 0 0 0 800 64zM352 1024h-256A96 96 0 0 1 0 928v-256A96 96 0 0 1 96 576h256A96 96 0 0 1 448 672v256A96 96 0 0 1 352 1024z m-256-384a32 32 0 0 0-32 32v256a32 32 0 0 0 32 32h256a32 32 0 0 0 32-32v-256a32 32 0 0 0-32-32zM928 1024h-256A96 96 0 0 1 576 928v-256A96 96 0 0 1 672 576h256a96 96 0 0 1 96 96v256a96 96 0 0 1-96 96z m-256-384a32 32 0 0 0-32 32v256a32 32 0 0 0 32 32h256a32 32 0 0 0 32-32v-256a32 32 0 0 0-32-32z" fill="#333333" p-id="140619"></path></svg>