<?xml version="1.0" standalone="no"?><!DOCTYPE svg PUBLIC "-//W3C//DTD SVG 1.1//EN" "http://www.w3.org/Graphics/SVG/1.1/DTD/svg11.dtd"><svg t="1764735323104" class="icon" viewBox="0 0 1024 1024" version="1.1" xmlns="http://www.w3.org/2000/svg" p-id="5394" xmlns:xlink="http://www.w3.org/1999/xlink" width="200" height="200"><path d="M498.701 522.033c15.746-15.209 40.84-14.773 56.048 0.973 14.837 15.361 14.837 39.714 0 55.075L257.465 875.366a39.637 39.637 0 0 1-28.024 11.614H70.889c-21.891 0-39.638-17.747-39.638-39.638V688.79a39.637 39.637 0 0 1 11.614-28.024l515.293-515.293c15.479-15.474 40.569-15.474 56.048 0l158.552 158.552c15.474 15.479 15.474 40.569 0 56.048L653.844 478.986c-15.479 15.474-40.569 15.474-56.048 0L518.52 399.71c-15.746-15.208-16.183-40.302-0.975-56.048 15.208-15.746 40.302-16.183 56.048-0.975 0.33 0.319 0.655 0.644 0.975 0.975l51.252 51.252 62.866-62.866-102.504-102.503L110.527 705.2v102.504h102.504l285.67-285.671z" p-id="5395"></path><path d="M693.135 616.739v258.41c0 6.534-5.297 11.831-11.831 11.831h-42.898c-6.534 0-11.831-5.297-11.831-11.831v-258.41c0-6.534 5.297-11.831 11.831-11.831h42.898c6.534 0 11.831 5.297 11.831 11.831zM821.552 875.017c0 6.607-5.356 11.963-11.963 11.963h-40.254c-6.607 0-11.963-5.356-11.963-11.963V616.871c0-6.607 5.356-11.963 11.963-11.963h110.048c68.147 0 115.682 41.593 115.682 100.624 0 59.438-47.535 100.624-116.475 100.624h-57.038v68.861z m0-219.788v100.624h45.154c36.444 0 61.799-21 61.799-50.322 0-29.709-25.354-50.302-61.799-50.302h-45.154z" p-id="5396"></path></svg>