<?xml version="1.0" standalone="no"?><!DOCTYPE svg PUBLIC "-//W3C//DTD SVG 1.1//EN" "http://www.w3.org/Graphics/SVG/1.1/DTD/svg11.dtd"><svg t="1764102899555" class="icon" viewBox="0 0 1024 1024" version="1.1" xmlns="http://www.w3.org/2000/svg" p-id="127563" xmlns:xlink="http://www.w3.org/1999/xlink" width="200" height="200"><path d="M346.8 407.2c-9.5-7.1-23.6-10.7-42.6-10.7H268v101.3h36.3c18.9 0 33.1-3.6 42.6-10.7s14.2-20.4 14.2-39.9c-0.1-19.6-4.9-32.9-14.3-40z m167.1-341c-239.1 0-433 193.9-433 433s193.9 433 433 433 433-193.9 433-433-193.9-433-433-433zM375.2 505.4c-14.7 14.3-35.2 21.5-61.5 21.5H268v102.8h-36.3V367.3h82c26.3 0 46.8 7.2 61.5 21.5 14.7 14.3 22.1 33.8 22.1 58.3-0.1 24.5-7.4 43.9-22.1 58.3z m217.5 124.2h-39.4l-86.7-190.3H465v190.3h-36.3V367.3h39.4l86.7 190.3h1.6V367.3h36.3v262.3z m89.9-47.5c10.5 14.3 22.6 21.5 36.3 21.5 13.6 0 24.4-4.8 32.3-14.6 7.9-9.7 11.8-24.8 11.8-45.3v-16.9h-48.9v-29.2h80.4v135h-26.8l-4.7-21.5c-4.2 6.1-10.8 11.3-19.7 15.3-8.9 4.1-18.7 6.1-29.2 6.1-22.1 0-41.8-10-59.1-29.9-17.3-19.9-26-51.9-26-95.9 0-48.1 7.9-83.9 23.6-107.4 15.8-23.5 37.3-35.3 64.6-35.3 24.2 0 43.1 8.7 56.8 26.1 13.6 17.4 20.5 39.9 20.5 67.5h-34.7c0-21.5-3.7-37.6-11-48.3-7.4-10.7-17.9-16.1-31.5-16.1-16.8 0-29.4 8.4-37.8 25.3-8.4 16.9-12.6 45.3-12.6 85.2-0.1 38 5.2 64.1 15.7 78.4z" fill="#7BABFF" p-id="127564"></path></svg>