<?xml version="1.0" standalone="no"?><!DOCTYPE svg PUBLIC "-//W3C//DTD SVG 1.1//EN" "http://www.w3.org/Graphics/SVG/1.1/DTD/svg11.dtd"><svg t="1764099862834" class="icon" viewBox="0 0 1078 1024" version="1.1" xmlns="http://www.w3.org/2000/svg" p-id="85170" xmlns:xlink="http://www.w3.org/1999/xlink" width="210.546875" height="200"><path d="M26.891929 55.481191h1021.32017c16.122553 0 26.88-10.752 26.88-26.874553S1064.340099 1.726638 1048.212099 1.726638H26.891929C10.763929 1.726638 0.006482 12.478638 0.006482 28.606638c0 16.122553 10.752 26.874553 26.88 26.874553z m1021.32017 913.816511H26.891929c-16.128 0-26.88 10.702979-26.88 26.830979 0 16.177021 10.752 26.874553 26.88 26.874553h1021.32017c16.122553 0 26.88-10.702979 26.88-26.874553 0-16.078979-10.752-26.830979-26.88-26.830979zM940.702992 136.115745H134.395588A133.076426 133.076426 0 0 0 0.011929 270.499404v483.785532a133.076426 133.076426 0 0 0 134.383659 134.38366h806.307404a133.076426 133.076426 0 0 0 134.389107-134.38366v-483.785532a133.076426 133.076426 0 0 0-134.389107-134.383659z m80.634554 618.169191c0 45.709617-34.914043 80.672681-80.634554 80.672681H134.395588A79.180255 79.180255 0 0 1 53.766482 754.284936v-483.785532c0-45.715064 34.968511-80.634553 80.629106-80.634553h806.307404c45.715064 0 80.634553 34.968511 80.634554 80.634553v483.785532z m-352.114383-276.861276L491.83695 367.261957a50.388426 50.388426 0 0 0-21.498553-5.376 41.319489 41.319489 0 0 0-40.29549 40.339064v220.388766c0 21.504 18.791489 40.295489 40.29549 40.29549 8.039489 0 16.122553-2.712511 21.498553-5.332426l177.386213-110.21617c10.752-8.039489 18.791489-21.460426 18.791489-34.914043 0-13.464511-7.990468-26.929021-18.791489-35.012085z m-16.078979 45.715063l-177.386213 110.221617c-2.712511 2.668936-5.376 2.668936-8.088511 2.668937-8.039489 0-13.415489-5.337872-13.415489-13.420937V402.219574c0-8.039489 5.376-13.464511 13.415489-13.46451 2.712511 0 5.376 0 8.088511 2.71251l177.386213 110.172596a12.620255 12.620255 0 0 1 0 21.498553z" fill="#666666" p-id="85171"></path></svg>