<?xml version="1.0" standalone="no"?><!DOCTYPE svg PUBLIC "-//W3C//DTD SVG 1.1//EN" "http://www.w3.org/Graphics/SVG/1.1/DTD/svg11.dtd"><svg t="1764539023276" class="icon" viewBox="0 0 1024 1024" version="1.1" xmlns="http://www.w3.org/2000/svg" p-id="19970" xmlns:xlink="http://www.w3.org/1999/xlink" width="200" height="200"><path d="M610.702222 725.333333s8.817778-188.586667 5.688889-285.866666v-83.342223c-3.128889-22.755556 28.444444-12.231111 31.004445-12.231111 43.804444 3.982222 173.795556 92.728889 199.111111 110.933334a39.537778 39.537778 0 0 0 30.435555 7.111111 37.831111 37.831111 0 0 0 31.857778-39.253334 382.577778 382.577778 0 0 0-341.333333-352.711111 401.635556 401.635556 0 0 0-51.2-2.275555 43.52 43.52 0 0 0-42.666667 34.702222 69.12 69.12 0 0 0 0 23.324444l18.773333 469.048889a322.56 322.56 0 0 0-189.44-3.413333c-87.893333 25.315556-150.755556 63.431111-175.217777 133.973333a154.453333 154.453333 0 0 0 28.444444 153.315556 191.146667 191.146667 0 0 0 76.231111 56.888889 333.084444 333.084444 0 0 0 315.448889-45.226667 216.462222 216.462222 0 0 0 62.862222-164.977778z" fill="#464646" p-id="19971"></path></svg>