<?xml version="1.0" standalone="no"?><!DOCTYPE svg PUBLIC "-//W3C//DTD SVG 1.1//EN" "http://www.w3.org/Graphics/SVG/1.1/DTD/svg11.dtd"><svg t="1763760601738" class="icon" viewBox="0 0 1024 1024" version="1.1" xmlns="http://www.w3.org/2000/svg" p-id="125355" xmlns:xlink="http://www.w3.org/1999/xlink" width="200" height="200"><path d="M269.6 57.2C152.8 57.2 58 152.1 58 268.9c0 116.9 94.7 211.6 211.6 211.6h146.8c35.8 0 64.7-29.1 64.7-64.9V268.8c0-116.8-94.7-211.6-211.5-211.6z m146.7 358.4v0.2H269.6c-59.5 0.2-113.3-35.6-136.2-90.6-22.9-55-10.4-118.3 31.7-160.5 42.1-42.1 105.4-54.8 160.4-31.9 55 22.8 90.8 76.5 90.8 136.1v146.7z m0 126H269.6C152.8 541.6 58 636.3 58 753.2c0 116.8 94.8 211.6 211.5 211.6 116.8 0 211.5-94.7 211.5-211.6V606.4c0.1-35.8-28.9-64.8-64.7-64.8z m0 211.6c0.1 59-35.2 112.3-89.6 135.2-18.1 7.6-37.3 11.4-57.1 11.4-19.8 0-39-3.8-57.1-11.4-64.4-27.1-100.8-95.9-86.9-164.4 13.9-68.5 74.1-117.7 144-117.6h146.8l-0.1 146.8z m338.5-211.6H608.1c-17.2 0-33.7 6.8-45.8 19-12.2 12.2-19 28.6-19 45.8v146.7c0 116.8 94.7 211.6 211.6 211.6 116.8 0 211.6-94.8 211.6-211.6-0.1-116.8-94.8-211.5-211.7-211.5z m135.3 268.6c-27.1 64.4-95.9 100.8-164.4 87-68.5-13.9-117.8-74.1-117.7-144V606.4h146.8c49.2 0 95.1 24.7 122.3 65.6 27.3 41 32.1 92.9 13 138.2z m-282-329.7h146.7c116.8 0 211.6-94.8 211.6-211.6S871.6 57.3 754.8 57.3 543.3 152 543.3 268.8v146.8c0 35.8 29 64.9 64.8 64.9z m-0.1-211.7c0.1-81.1 65.8-146.7 146.9-146.7 81.1 0 146.7 65.8 146.7 146.9 0 81.1-65.8 146.8-146.8 146.8H608v-147z m0 0" fill="#2C2C2C" p-id="125356"></path></svg>