<?xml version="1.0" standalone="no"?><!DOCTYPE svg PUBLIC "-//W3C//DTD SVG 1.1//EN" "http://www.w3.org/Graphics/SVG/1.1/DTD/svg11.dtd"><svg t="1764099814941" class="icon" viewBox="0 0 1024 1024" version="1.1" xmlns="http://www.w3.org/2000/svg" p-id="85023" xmlns:xlink="http://www.w3.org/1999/xlink" width="200" height="200"><path d="M911.36 61.44c28.27776 0 51.2 22.92224 51.2 51.2v798.72c0 28.27776-22.92224 51.2-51.2 51.2H112.64c-28.27776 0-51.2-22.92224-51.2-51.2V112.64c0-28.27776 22.92224-51.2 51.2-51.2h798.72zM128 128v768h768V128H128z" fill="#474B55" p-id="85024"></path><path d="M456.09984 321.44384l1.76128 1.09568 208.45056 134.21056A65.67424 65.67424 0 0 1 696.32 511.93344c0 21.88288-10.46528 41.97376-28.37504 54.29248l-1.55136 1.02912-208.49664 134.16448A63.65184 63.65184 0 0 1 423.15776 711.68c-11.1104 0-21.78048-2.75968-31.21664-8.0896-20.08064-11.1616-32.8192-32.26112-33.51552-55.5264l-0.0256-1.82784V377.7536c0-19.55328 8.66816-38.02112 23.66976-50.56512l1.3056-1.05984 0.75776-0.55808 7.05024-4.7104 0.7424-0.45056c20.18816-11.14112 44.54912-10.74176 64.17408 1.03936z m-30.08512 64.256l-1.05472 0.58368v256.55296l1.05472 0.58368L624.64 515.49184v-1.86368L426.01472 385.69984z" fill="#474B55" p-id="85025"></path></svg>