<?xml version="1.0" standalone="no"?><!DOCTYPE svg PUBLIC "-//W3C//DTD SVG 1.1//EN" "http://www.w3.org/Graphics/SVG/1.1/DTD/svg11.dtd"><svg t="1764761271860" class="icon" viewBox="0 0 1024 1024" version="1.1" xmlns="http://www.w3.org/2000/svg" p-id="2824" xmlns:xlink="http://www.w3.org/1999/xlink" width="200" height="200"><path d="M713.898667 815.530667c29.184 0 43.776 8.96 43.776 26.752v6.272c0 17.834667-14.592 26.709333-43.776 26.709333H282.453333c-29.184 0-43.733333-8.874667-43.733333-26.709333v-6.272c0-17.834667 14.549333-26.752 43.733333-26.752h431.445334zM841.941333 157.653333c28.330667 0.085333 51.328 25.6 51.413334 57.173334V710.826667c-0.085333 31.488-23.04 57.045333-51.413334 57.130666H176.768c-28.373333-0.085333-51.328-25.6-51.413333-57.173333V214.869333c0.085333-31.573333 23.04-57.088 51.370666-57.173333z m-234.581333 369.706667h-46.762667v128h46.762667v-128z m93.44 42.666667H654.08v85.333333h46.72v-85.333333z m93.44-85.333334H747.52v170.666667h46.72v-170.666667z m-280.362667 85.333334h-46.762666v85.333333h46.762666v-85.333333zM314.453333 253.482667c-71.210667 7.04-126.165333 67.84-126.165333 140.501333 0 77.994667 62.933333 141.354667 140.288 141.354667 45.098667 0 87.466667-21.973333 113.92-59.050667L314.453333 401.28z m482.346667 116.48l-110.037333 112.128-112.128-91.52-107.52 117.674666 25.728 25.941334 84.608-90.624 109.312 88.234666 130.858666-128.128-20.821333-33.706666z m-328.405333 14.976l-107.221334 15.061333 92.544 56.746667c9.813333-19.626667 15.104-41.557333 14.933334-63.488 0-2.56-0.128-5.290667-0.256-8.32zM335.786667 252.928h-0.298667v127.018667c16.64-1.877333 131.285333-16.64 131.285333-16.64-27.221333-108.501333-131.285333-110.378667-131.285333-110.378667z" fill="#666666" p-id="2825"></path></svg>