<?xml version="1.0" standalone="no"?><!DOCTYPE svg PUBLIC "-//W3C//DTD SVG 1.1//EN" "http://www.w3.org/Graphics/SVG/1.1/DTD/svg11.dtd"><svg t="1764094649417" class="icon" viewBox="0 0 1408 1024" version="1.1" xmlns="http://www.w3.org/2000/svg" p-id="50965" xmlns:xlink="http://www.w3.org/1999/xlink" width="275" height="200"><path d="M620.8 427.14074074h19.2c19.2 0 32-12.8 32-32s-12.8-32-32-32h-19.2c-44.8 0-76.8-25.6-76.8-57.59999999s32-57.6 76.8-57.60000001c12.8 0 19.2 0 32 6.4 19.2 6.4 38.4-6.4 44.8-25.6 0-19.2 25.6-32 51.2-31.99999999 32 0 51.2 19.2 51.2 38.39999999v6.4c-6.4 19.2 6.4 38.4 25.6 44.80000001 25.6 6.4 38.4 19.2 38.4 38.4s-25.6 38.4-51.2 38.39999999h-25.6c-19.2 0-32 12.8-32 32s12.8 32 32 32h25.6c64 0 115.2-44.8 115.2-102.39999999 0-38.4-25.6-76.8-64-89.60000001 0-57.6-57.6-102.4-115.2-102.4-44.8 0-83.2 19.2-102.4 57.60000001h-25.6c-76.8 0-140.8 51.2-140.8 121.6s64 115.2 140.8 115.19999999zM544 740.74074075h-320c-19.2 0-32 12.8-32 32s12.8 32 32 31.99999999h320c19.2 0 32-12.8 32-31.99999999s-12.8-32-32-32z" fill="#2c2c2c" p-id="50966"></path><path d="M1388.8 689.54074074v-19.2l-153.6-544C1216 36.74074075 1132.8-27.25925926 1056-27.25925926h-704C275.2-27.25925926 192 36.74074075 166.4 119.94074074L12.8 663.94074074v19.2c-6.4 32-12.8 57.6-12.8 89.60000001C0 894.34074075 102.4 996.74074074 224 996.74074074h960c121.6 0 224-102.4 224-223.99999999 0-32-6.4-57.6-19.2-83.20000001zM230.4 139.14074074C243.2 81.54074074 300.8 36.74074075 352 36.74074075h704c51.2 0 102.4 44.8 121.6 102.4l121.6 448c-32-25.6-70.4-38.4-115.2-38.40000001h-960c-44.8 0-83.2 12.8-115.2 32.00000001l121.6-441.6zM1184 932.74074075h-960C134.4 932.74074075 64 862.34074074 64 772.74074075c0-12.8 0-19.2 6.4-32v-6.4c12.8-70.4 76.8-121.6 153.6-121.6h960c76.8 0 140.8 51.2 153.6 128 0 12.8 6.4 19.2 6.4 32 0 89.6-70.4 160-160 160z" fill="#2c2c2c" p-id="50967"></path><path d="M1120 676.74074074c-51.2 0-96 44.8-96 96.00000001s44.8 96 96 95.99999999 96-44.8 96-95.99999999-44.8-96-96-96.00000001z m0 128c-19.2 0-32-12.8-32-31.99999999s12.8-32 32-32 32 12.8 32 32-12.8 32-32 31.99999999z" fill="#2c2c2c" p-id="50968"></path></svg>