<?xml version="1.0" standalone="no"?><!DOCTYPE svg PUBLIC "-//W3C//DTD SVG 1.1//EN" "http://www.w3.org/Graphics/SVG/1.1/DTD/svg11.dtd"><svg t="1764093135762" class="icon" viewBox="0 0 1024 1024" version="1.1" xmlns="http://www.w3.org/2000/svg" p-id="44310" xmlns:xlink="http://www.w3.org/1999/xlink" width="200" height="200"><path d="M810.666667 960H213.333333c-81.066667 0-149.333333-68.266667-149.333333-149.333333V213.333333c0-81.066667 68.266667-149.333333 149.333333-149.333333h597.333334c81.066667 0 149.333333 68.266667 149.333333 149.333333v597.333334c0 81.066667-68.266667 149.333333-149.333333 149.333333z" fill="#FF7200" p-id="44311"></path><path d="M874.666667 576c-85.333333 46.933333-170.666667 89.6-264.533334 110.933333-21.333333 4.266667-42.666667 4.266667-64 0s-29.866667-21.333333-21.333333-38.4c8.533333-17.066667 17.066667-38.4 29.866667-51.2 25.6-34.133333 55.466667-64 81.066666-93.866666 17.066667-21.333333 29.866667-42.666667 42.666667-64 8.533333-17.066667 4.266667-34.133333-12.8-42.666667-25.6-12.8-55.466667-21.333333-85.333333-34.133333-4.266667 0-8.533333 4.266667-12.8 4.266666l21.333333 21.333334c-85.333333 12.8-166.4 34.133333-243.2 64v4.266666c12.8 17.066667 4.266667 29.866667-8.533333 42.666667-8.533333 4.266667-12.8 8.533333-17.066667 17.066667 51.2 17.066667 98.133333 8.533333 140.8-21.333334-4.266667-4.266667-4.266667-8.533333-8.533333-12.8 17.066667 4.266667 25.6 12.8 29.866666 25.6 0 4.266667 0 8.533333-4.266666 8.533334l-8.533334-8.533334s0-4.266667-4.266666-8.533333c-51.2 34.133333-106.666667 42.666667-170.666667 25.6v34.133333c0 8.533333-4.266667 12.8-12.8 17.066667-17.066667 12.8-34.133333 21.333333-51.2 38.4-17.066667 17.066667-12.8 38.4 12.8 51.2 25.6 8.533333 55.466667 12.8 85.333333 8.533333 34.133333-4.266667 68.266667-8.533333 102.4-17.066666-42.666667 21.333333-85.333333 34.133333-132.266666 42.666666-29.866667 4.266667-64 8.533333-93.866667-4.266666-42.666667-12.8-64-46.933333-51.2-89.6 12.8-42.666667 38.4-76.8 64-106.666667 93.866667-102.4 213.333333-153.6 349.866667-166.4 34.133333-4.266667 64 0 93.866666 17.066667 42.666667 21.333333 59.733333 59.733333 38.4 102.4-12.8 29.866667-34.133333 55.466667-51.2 76.8-17.066667 25.6-38.4 46.933333-59.733333 72.533333-4.266667 8.533333-12.8 12.8-17.066667 21.333333-8.533333 17.066667-4.266667 25.6 12.8 25.6 38.4-4.266667 72.533333-8.533333 106.666667-17.066666 51.2-12.8 102.4-34.133333 153.6-51.2 17.066667-4.266667 21.333333-4.266667 29.866667-4.266667z" fill="#FFFFFF" p-id="44312"></path></svg>