<?xml version="1.0" standalone="no"?><!DOCTYPE svg PUBLIC "-//W3C//DTD SVG 1.1//EN" "http://www.w3.org/Graphics/SVG/1.1/DTD/svg11.dtd"><svg t="1764099679793" class="icon" viewBox="0 0 1024 1024" version="1.1" xmlns="http://www.w3.org/2000/svg" p-id="82983" xmlns:xlink="http://www.w3.org/1999/xlink" width="200" height="200"><path d="M722.410904 553.882448a57.577428 57.577428 0 0 1 1.463698-81.139785L926.517238 276.193465c22.591862-21.955471 33.935522-50.386216 31.914982-80.026102-1.925081-28.462564-16.657521-55.143234-40.490344-73.646287-16.593882-17.166633-126.546246-122.505166-325.816012-122.505166C301.677252 0 65.337741 229.689231 65.337741 511.992045s236.339512 512.007955 526.788123 512.007955c183.757749 0 297.369358-97.638208 312.913196-111.829716 24.564672-17.914392 40.203968-44.467784 42.956356-73.184904 2.895577-29.623977-7.525317-58.404736-29.273961-81.012507z m-78.673773-217.470534h-0.254556a87.965073 87.965073 0 1 1 88.330998-87.742337v0.079549a87.837795 87.837795 0 0 1-88.076442 87.662788z" p-id="82984"></path></svg>