<?xml version="1.0" standalone="no"?><!DOCTYPE svg PUBLIC "-//W3C//DTD SVG 1.1//EN" "http://www.w3.org/Graphics/SVG/1.1/DTD/svg11.dtd"><svg t="1764100418668" class="icon" viewBox="0 0 1223 1024" version="1.1" xmlns="http://www.w3.org/2000/svg" p-id="101485" xmlns:xlink="http://www.w3.org/1999/xlink" width="238.8671875" height="200"><path d="M1080.888889 896H56.888889c-31.288889 0-56.888889-25.6-56.888889-56.888889V142.222222c0-31.288889 25.6-56.888889 56.888889-56.888889h1024c31.288889 0 56.888889 25.6 56.888889 56.888889v696.888889c0 31.288889-25.6 56.888889-56.888889 56.888889z" fill="#EBEBEB" p-id="101486"></path><path d="M106.666667 576V56.888889c0-19.911111 15.644444-35.555556 35.555555-35.555556h1024c19.911111 0 35.555556 15.644444 35.555556 35.555556v519.111111h-1095.111111z" fill="#FFFFFF" p-id="101487"></path><path d="M1166.222222 42.666667c8.533333 0 14.222222 5.688889 14.222222 14.222222v497.777778H128V56.888889c0-8.533333 5.688889-14.222222 14.222222-14.222222h1024m0-42.666667H142.222222C110.933333 0 85.333333 25.6 85.333333 56.888889v540.444444h1137.777778V56.888889c0-31.288889-25.6-56.888889-56.888889-56.888889z" fill="#133860" p-id="101488"></path><path d="M142.222222 789.333333c-19.911111 0-35.555556-15.644444-35.555555-35.555555v-92.444445h1095.111111V753.777778c0 19.911111-15.644444 35.555556-35.555556 35.555555H142.222222z" fill="#FFFFFF" p-id="101489"></path><path d="M1180.444444 682.666667v71.111111c0 8.533333-5.688889 14.222222-14.222222 14.222222H142.222222c-8.533333 0-14.222222-5.688889-14.222222-14.222222v-71.111111h1052.444444m42.666667-42.666667H85.333333v113.777778c0 31.288889 25.6 56.888889 56.888889 56.888889h1024c31.288889 0 56.888889-25.6 56.888889-56.888889v-113.777778zM540.444444 810.666667h42.666667v120.888889h-42.666667zM412.444444 1002.666667c0-11.377778 9.955556-21.333333 21.333334-21.333334h455.111111c11.377778 0 21.333333 9.955556 21.333333 21.333334s-9.955556 21.333333-21.333333 21.333333h-455.111111c-11.377778 0-21.333333-9.955556-21.333334-21.333333zM526.222222 475.022222c0-11.377778 9.955556-21.333333 21.333334-21.333333h213.333333c11.377778 0 21.333333 9.955556 21.333333 21.333333s-9.955556 21.333333-21.333333 21.333334h-213.333333c-11.377778 0-21.333333-9.955556-21.333334-21.333334zM745.244444 810.666667h42.666667v120.888889h-42.666667z" fill="#133860" p-id="101490"></path><path d="M213.333333 113.777778m-28.444444 0a28.444444 28.444444 0 1 0 56.888889 0 28.444444 28.444444 0 1 0-56.888889 0Z" fill="#133860" p-id="101491"></path><path d="M327.111111 113.777778m-28.444444 0a28.444444 28.444444 0 1 0 56.888889 0 28.444444 28.444444 0 1 0-56.888889 0Z" fill="#133860" p-id="101492"></path><path d="M440.888889 113.777778m-28.444445 0a28.444444 28.444444 0 1 0 56.888889 0 28.444444 28.444444 0 1 0-56.888889 0Z" fill="#133860" p-id="101493"></path><path d="M583.111111 810.666667h162.133333v120.888889H583.111111z" fill="#D1D7DC" p-id="101494"></path><path d="M654.222222 311.466667m-78.222222 0a78.222222 78.222222 0 1 0 156.444444 0 78.222222 78.222222 0 1 0-156.444444 0Z" fill="#77B2DE" p-id="101495"></path><path d="M654.222222 254.577778c31.288889 0 56.888889 25.6 56.888889 56.888889s-25.6 56.888889-56.888889 56.888889-56.888889-25.6-56.888889-56.888889 25.6-56.888889 56.888889-56.888889m0-42.666667c-55.466667 0-99.555556 44.088889-99.555555 99.555556s44.088889 99.555556 99.555555 99.555555 99.555556-44.088889 99.555556-99.555555-45.511111-99.555556-99.555556-99.555556z" fill="#133860" p-id="101496"></path></svg>