<?xml version="1.0" standalone="no"?><!DOCTYPE svg PUBLIC "-//W3C//DTD SVG 1.1//EN" "http://www.w3.org/Graphics/SVG/1.1/DTD/svg11.dtd"><svg t="1764997630613" class="icon" viewBox="0 0 1024 1024" version="1.1" xmlns="http://www.w3.org/2000/svg" p-id="30984" xmlns:xlink="http://www.w3.org/1999/xlink" width="200" height="200"><path d="M512 512m-512 0a512 512 0 1 0 1024 0 512 512 0 1 0-1024 0Z" fill="#101010" p-id="30985"></path><path d="M170.666667 170.666667h546.133333q136.533333 0 136.533333 136.533333v409.6q0 136.533333-136.533333 136.533333h-409.6q-136.533333 0-136.533333-136.533333v-409.6q0-136.533333 136.533333-136.533333z" fill="#101010" p-id="30986"></path><path d="M561.066667 726.016v-250.282667a79.658667 79.658667 0 0 1 79.701333 79.488v170.666667z m-283.008-5.888v-403.242667h81.066666v403.072z m81.322666-164.906667v-79.488h201.685334v23.381334a56.234667 56.234667 0 0 1-56.32 56.106666z m99.669334-79.488l69.205333-161.408h89.088l-53.376 124.458667a60.970667 60.970667 0 0 1-56.064 36.949333z" fill="#FFFFFF" p-id="30987"></path><path d="M745.728 344.661333a46.933333 46.933333 0 0 1-46.933333 46.933334c-6.826667 0-43.392 4.693333-43.392 4.693333s7.04-8.192 12.8-15.914667a46.933333 46.933333 0 1 1 77.354666-35.626666z" fill="#017AFD" p-id="30988"></path></svg>