<?xml version="1.0" standalone="no"?><!DOCTYPE svg PUBLIC "-//W3C//DTD SVG 1.1//EN" "http://www.w3.org/Graphics/SVG/1.1/DTD/svg11.dtd"><svg t="1764093305445" class="icon" viewBox="0 0 1024 1024" version="1.1" xmlns="http://www.w3.org/2000/svg" p-id="46427" xmlns:xlink="http://www.w3.org/1999/xlink" width="200" height="200"><path d="M262.4 64h499.2C892.8 64 960 131.2 960 262.4v499.2c0 131.2-67.2 198.4-198.4 198.4H262.4C131.2 960 64 892.8 64 761.6V262.4C64 131.2 131.2 64 262.4 64z" fill="#E15319" p-id="46428"></path><path d="M195.2 736l9.6-22.4h38.4l6.4 22.4h16l-35.2-92.8h-16L179.2 736h16z m41.6-35.2h-32l19.2-41.6 12.8 41.6zM291.2 736v-92.8h-12.8V736h12.8z m32-73.6c3.2 0 3.2 0 6.4-3.2s3.2-3.2 3.2-6.4 0-6.4-3.2-6.4c-3.2-3.2-3.2-3.2-6.4-3.2s-6.4 0-6.4 3.2c-3.2 3.2-3.2 3.2-3.2 6.4s0 6.4 3.2 6.4c0 0 3.2 3.2 6.4 3.2z m6.4 73.6v-67.2h-16V736h16z m89.6 0v-12.8h-54.4v-28.8h48v-12.8h-48v-25.6H416v-12.8h-64V736h67.2z m25.6 0l16-25.6 19.2 25.6h16l-25.6-35.2 22.4-32h-16l-16 22.4-12.8-22.4h-16l22.4 32-25.6 35.2h16z m73.6 25.6v-35.2c6.4 6.4 12.8 12.8 19.2 12.8 9.6 0 16-3.2 22.4-9.6 6.4-6.4 6.4-16 6.4-25.6 0-9.6-3.2-19.2-6.4-25.6-6.4-6.4-12.8-9.6-22.4-9.6-9.6 0-16 3.2-19.2 9.6V672h-12.8v92.8h12.8z m19.2-35.2c-6.4 0-9.6-3.2-12.8-6.4-3.2-3.2-6.4-9.6-6.4-16s0-12.8 3.2-16c3.2-3.2 6.4-6.4 12.8-6.4s12.8 3.2 16 6.4c3.2 3.2 3.2 9.6 3.2 16s0 12.8-3.2 16c-3.2 3.2-6.4 6.4-12.8 6.4z m60.8 9.6v-35.2c0-6.4 3.2-9.6 6.4-12.8 3.2-3.2 6.4-6.4 9.6-6.4h9.6v-12.8c-3.2 0-6.4-3.2-9.6-3.2-3.2 0-6.4 0-9.6 3.2-3.2 3.2-3.2 3.2-6.4 9.6v-9.6h-12.8V736h12.8z m67.2 3.2c9.6 0 16-3.2 22.4-6.4 3.2-3.2 6.4-9.6 9.6-16h-12.8c-3.2 3.2-3.2 6.4-6.4 9.6-3.2 3.2-6.4 3.2-12.8 3.2s-9.6-3.2-12.8-6.4c-3.2-3.2-3.2-9.6-6.4-16h51.2c0-12.8-3.2-22.4-6.4-28.8-6.4-6.4-12.8-9.6-25.6-9.6-9.6 0-16 3.2-22.4 9.6-6.4 6.4-9.6 16-9.6 25.6 0 9.6 3.2 19.2 9.6 25.6 3.2 6.4 12.8 9.6 22.4 9.6z m19.2-41.6h-35.2c0-6.4 3.2-9.6 6.4-12.8 3.2-3.2 6.4-3.2 12.8-3.2 6.4-3.2 12.8 3.2 16 16z m54.4 41.6c19.2 0 28.8-6.4 28.8-22.4 0-6.4-3.2-9.6-6.4-12.8-3.2-3.2-9.6-3.2-16-6.4s-9.6-3.2-12.8-3.2c-3.2-3.2-6.4-3.2-6.4-6.4s0-3.2 3.2-6.4c3.2 0 6.4-3.2 9.6-3.2 3.2 0 9.6 0 9.6 3.2 3.2 0 3.2 3.2 3.2 6.4h12.8c0-12.8-9.6-22.4-28.8-22.4-9.6 0-16 3.2-19.2 6.4-6.4 3.2-6.4 9.6-6.4 12.8 0 6.4 3.2 9.6 6.4 12.8 3.2 3.2 9.6 3.2 16 6.4 6.4 0 12.8 3.2 12.8 3.2 3.2 3.2 6.4 3.2 6.4 6.4 0 6.4-6.4 9.6-16 9.6-6.4 0-9.6 0-9.6-3.2-3.2-3.2-3.2-6.4-3.2-9.6h-12.8c0 19.2 9.6 28.8 28.8 28.8z m67.2 0c19.2 0 28.8-6.4 28.8-22.4 0-6.4-3.2-9.6-6.4-12.8-3.2-3.2-9.6-3.2-16-6.4s-9.6-3.2-12.8-3.2c-3.2-3.2-6.4-3.2-6.4-6.4s0-3.2 3.2-6.4c3.2 0 6.4-3.2 9.6-3.2 3.2 0 9.6 0 9.6 3.2 3.2 0 3.2 3.2 3.2 6.4h12.8c0-12.8-9.6-22.4-28.8-22.4-9.6 0-16 3.2-19.2 6.4-6.4 3.2-6.4 9.6-6.4 12.8 0 6.4 3.2 9.6 6.4 12.8 3.2 3.2 9.6 3.2 16 6.4 6.4 0 12.8 3.2 12.8 3.2 3.2 3.2 6.4 3.2 6.4 6.4 0 6.4-6.4 9.6-16 9.6-6.4 0-9.6 0-9.6-3.2-3.2-3.2-3.2-6.4-3.2-9.6h-12.8c3.2 19.2 12.8 28.8 28.8 28.8z" fill="#FFFFFF" p-id="46429"></path><path d="M252.8 316.8m-32 0a32 32 0 1 0 64 0 32 32 0 1 0-64 0Z" fill="#930808" p-id="46430"></path><path d="M771.2 316.8m-32 0a32 32 0 1 0 64 0 32 32 0 1 0-64 0Z" fill="#930808" p-id="46431"></path><path d="M771.2 300.8c9.6 0 16 9.6 12.8 19.2-22.4 137.6-115.2 208-275.2 208S259.2 457.6 236.8 320c0-9.6 3.2-16 12.8-19.2 9.6 0 16 3.2 19.2 12.8 19.2 121.6 99.2 179.2 243.2 179.2s224-60.8 243.2-179.2c0-6.4 6.4-12.8 16-12.8z" fill="#FFFFFF" p-id="46432"></path></svg>